<svg width="782" height="500" viewBox="0 0 782 500" fill="none" xmlns="http://www.w3.org/2000/svg">
<path d="M758.059 500C770.632 500 780.89 489.923 781.089 477.35C782.048 414.682 787.095 322.217 669.068 296.654C573.546 275.958 630.19 106.207 372.932 117.171C188.274 125.04 237.32 280.698 93.7473 293.651C-1.79271 302.281 -2.62491 423.112 1.04762 478.471C1.84364 490.574 11.9024 499.982 24.0416 499.982H758.059V500Z" fill="#B5DFEA"/>
<path opacity="0.55" d="M669.069 296.636C573.547 275.94 630.191 106.189 372.933 117.152C329.007 119.016 298.324 129.274 275.113 143.946C282.929 142.914 291.233 142.191 300.079 141.829C557.319 130.866 500.693 300.616 596.215 321.312C712.994 346.604 709.304 437.368 708.273 499.982H758.06C770.633 499.982 780.891 489.905 781.09 477.332C782.049 414.663 787.096 322.199 669.069 296.636Z" fill="#90CEDD"/>
<path d="M554.911 109.934L252.878 74.674C239.979 73.1725 228.292 82.4171 226.772 95.3161L204.23 288.44C202.729 301.34 211.973 313.026 224.872 314.546L526.906 349.806C539.805 351.308 551.492 342.063 553.012 329.164L575.553 136.04C577.055 123.141 567.81 111.454 554.911 109.934Z" fill="#D7F0F9"/>
<path d="M573.328 155.144L575.554 136.022C577.055 123.123 567.811 111.436 554.912 109.916L252.878 74.6561C239.979 73.1546 228.292 82.3992 226.772 95.2983L224.547 114.421L573.31 155.126L573.328 155.144Z" fill="#0B4D8E"/>
<path d="M273.429 231.381L311.71 163.918C314.171 159.595 318.965 157.17 323.904 157.731C330.688 158.527 335.555 164.66 334.759 171.444L326.799 239.685L327.142 239.721C331.846 240.264 335.211 244.533 334.668 249.219C334.126 253.923 329.856 257.288 325.17 256.745L324.827 256.709L323.379 269.137C322.782 274.221 318.187 277.857 313.122 277.26C308.038 276.663 304.402 272.068 304.999 267.003L306.446 254.574L278.875 251.354C274.171 250.811 270.788 246.541 271.349 241.838L272.073 235.578C272.253 234.095 272.706 232.683 273.447 231.381H273.429ZM308.526 236.428L313.465 194.113C313.502 193.823 313.104 193.697 312.959 193.95L290.345 233.859C289.947 234.565 290.399 235.451 291.195 235.542L307.278 237.423C307.893 237.496 308.454 237.043 308.526 236.428Z" fill="#79C9E8"/>
<path d="M442.383 251.1L480.665 183.638C483.125 179.314 487.919 176.89 492.858 177.451C499.642 178.247 504.509 184.38 503.713 191.164L495.753 259.404L496.096 259.44C500.8 259.983 504.165 264.253 503.622 268.938C503.08 273.642 498.81 277.007 494.125 276.464L493.781 276.428L492.333 288.857C491.736 293.94 487.141 297.577 482.076 296.98C476.992 296.383 473.356 291.788 473.953 286.722L475.4 274.293L447.829 271.073C443.125 270.53 439.742 266.261 440.303 261.557L441.027 255.298C441.208 253.814 441.66 252.403 442.402 251.1H442.383ZM477.499 256.148L482.438 213.832C482.474 213.543 482.076 213.416 481.931 213.67L459.317 253.579C458.919 254.284 459.371 255.171 460.167 255.261L476.25 257.143C476.865 257.215 477.426 256.763 477.499 256.148Z" fill="#79C9E8"/>
<path d="M366.436 191.689C368.661 172.62 379.968 162.905 398.367 165.04C416.748 167.193 425.522 179.26 423.297 198.31L416.06 260.273C413.835 279.341 402.528 289.056 384.129 286.921C365.748 284.768 356.974 272.701 359.199 253.651L366.436 191.689ZM377.779 257.034C376.784 265.537 380.149 269.21 386.119 269.915C392.071 270.603 396.196 267.817 397.191 259.296L404.699 194.945C405.694 186.442 402.329 182.77 396.359 182.064C390.407 181.377 386.282 184.163 385.287 192.684L377.779 257.034Z" fill="#79C9E8"/>
<path d="M260.168 101.359C259.77 104.832 256.622 107.311 253.149 106.913C249.675 106.515 247.197 103.367 247.595 99.8935C247.993 96.42 251.141 93.9415 254.614 94.3395C258.088 94.7375 260.566 97.8854 260.168 101.359Z" fill="white"/>
<path d="M290.454 104.905C290.056 108.378 286.908 110.857 283.435 110.459C279.961 110.061 277.483 106.913 277.881 103.439C278.279 99.9659 281.427 97.4874 284.9 97.8854C288.374 98.2834 290.852 101.431 290.454 104.905Z" fill="#0697D5"/>
<path d="M321.86 108.559C321.462 112.033 318.314 114.511 314.84 114.113C311.367 113.715 308.888 110.567 309.286 107.094C309.684 103.62 312.832 101.142 316.306 101.54C319.779 101.938 322.258 105.086 321.86 108.559Z" fill="#FFBF4D"/>
<path d="M200.359 328.549C200.359 328.549 196.27 346.64 196.957 365.13C197.573 381.683 195.601 490.52 195.601 490.52H208.898C208.898 490.52 227.821 405.274 228.527 398.544C229.232 391.814 238.748 324.497 238.748 324.497L200.359 328.549Z" fill="#00668E"/>
<path d="M209.206 323.592C209.206 323.592 212.263 346.839 217.474 363.375C222.684 379.892 248.247 490.538 248.247 490.538H261.544C261.544 490.538 259.102 405.292 258.179 398.562C257.256 391.832 250.527 324.515 250.527 324.515L209.224 323.592H209.206Z" fill="#0582C1"/>
<path d="M249.315 490.502V499.783H274.625C276.054 499.783 276.633 497.92 275.421 497.124C271.712 494.663 265.797 491.262 260.279 490.502H249.315Z" fill="#0582C1"/>
<path d="M196.288 490.502V499.783H221.598C223.027 499.783 223.606 497.92 222.394 497.124C218.685 494.663 212.769 491.262 207.251 490.502H196.288Z" fill="#0582C1"/>
<path d="M241.934 215.424C241.934 215.424 250.636 202.2 240.65 200.915C232.979 199.92 229.813 202.218 229.813 202.218C229.813 202.218 220.984 201.241 216.136 205.438C212.825 208.314 200.668 230.585 220.333 238.635C239.998 246.686 235.801 226.062 235.801 226.062L241.934 215.424Z" fill="#00668E"/>
<path d="M240.65 200.915C232.979 199.92 229.813 202.218 229.813 202.218C229.813 202.218 220.984 201.241 216.136 205.438C212.825 208.314 200.668 230.585 220.333 238.635C229.578 242.416 233.54 239.866 235.168 236.103C216.516 241.349 214.49 218.862 217.565 212.475C220.695 205.981 228.185 208.966 228.185 208.966C231.116 201.584 240.686 202.38 244.63 202.959C243.906 201.928 242.658 201.186 240.65 200.915Z" fill="#05556D"/>
<path d="M229.686 221.865C229.686 221.865 227.099 219.278 225.181 221.865C223.245 224.452 224.53 230.241 227.768 230.567C227.768 230.567 226.809 238.943 220.351 238.617V245.383H235.493V240.227C235.493 240.227 244.846 236.356 244.521 228.631C244.195 220.888 241.933 215.406 241.933 215.406C241.933 215.406 236.777 221.213 229.686 221.847V221.865Z" fill="#F98D3D"/>
<path d="M232.003 242.398C233.504 243.032 233.233 243.972 233.305 245.383H235.476V240.227C235.476 240.227 231.804 241.385 226.431 238.328C226.431 238.328 229.56 241.385 232.003 242.398Z" fill="#ED701B"/>
<path d="M235.113 209.527C235.113 209.527 227.262 206.397 226.339 208.749C225.742 210.286 227.262 211.607 229.36 212.946L227.515 213.253C227.099 213.326 226.954 213.85 227.28 214.104C227.786 214.52 229.216 214.791 232.182 214.9L235.113 209.527Z" fill="#F98D3D"/>
<path d="M291.195 229.192C276.216 218.102 235.329 209.219 235.329 209.219L231.964 215.352C231.964 215.352 269.088 229.735 266.645 231.887C265.198 233.154 247.071 241.458 240.92 244.262C239.599 244.859 238.17 245.148 236.704 245.13L217.908 245.022C217.908 245.022 204.339 243.412 193.683 255.659C184.149 266.641 167.939 292.059 167.939 292.059L195.257 332.222L198.279 336.654V336.6V336.98C198.279 336.98 199.255 337.088 200.974 337.251C209.748 338.065 237.898 340.29 252.788 337.124L253.204 337.034L252.498 271.145C276.27 252.331 287.631 237.785 291.684 233.226C292.751 232.014 292.552 230.169 291.25 229.192H291.195ZM199.545 319.051L196.885 313.226L188.401 294.682L202.476 278.907L199.943 313.515L199.545 319.051Z" fill="#FFBF4D"/>
<path d="M196.887 313.226L199.546 319.051L198.262 336.618L198.225 336.672L195.204 332.24L196.887 313.226Z" fill="#EFAA3A"/>
<g style="mix-blend-mode:multiply" opacity="0.29">
<path d="M246.077 268.794C243.544 270.639 244.196 286.921 243.563 297.106C242.513 314.166 241.5 328.929 242.242 338.445C246.095 338.192 249.677 337.776 252.717 337.124L253.133 337.034L252.427 271.145C276.199 252.331 287.56 237.785 291.613 233.226C292.68 232.014 292.481 230.169 291.179 229.192C291.179 229.192 272.382 249.689 246.077 268.794Z" fill="#F98D2B"/>
</g>
<path d="M258.161 398.562C257.492 393.714 253.801 357.314 251.811 337.414L242.259 338.463C242.259 338.463 256.189 453.035 257.112 490.538H261.526C261.526 490.538 259.084 405.292 258.161 398.562Z" fill="#00668E"/>
<path d="M196.904 223.746L194.028 218.59C195.475 215.877 196.289 212.765 196.289 209.472C196.289 198.708 187.551 189.97 176.787 189.97C166.022 189.97 157.284 198.708 157.284 209.472C157.284 220.237 166.022 228.975 176.787 228.975C182.214 228.975 187.117 226.749 190.644 223.185L196.904 223.746Z" fill="#0582C1"/>
<path d="M166.638 207.699H167.398V210.413C167.398 211.245 167.651 211.607 168.23 211.607C168.683 211.607 169.008 211.372 169.424 210.865V207.699H170.166V212.15H169.551L169.479 211.462H169.442C169.026 211.951 168.592 212.276 167.977 212.276C167.036 212.276 166.62 211.679 166.62 210.54V207.717L166.638 207.699Z" fill="white"/>
<path d="M173.35 212.512V214.013H172.59V207.681H173.205L173.259 208.188H173.295C173.693 207.844 174.2 207.573 174.707 207.573C175.846 207.573 176.461 208.459 176.461 209.834C176.461 211.336 175.557 212.24 174.544 212.24C174.128 212.24 173.711 212.041 173.313 211.734V212.512H173.35ZM174.435 211.625C175.159 211.625 175.702 210.956 175.702 209.852C175.702 208.875 175.376 208.206 174.526 208.206C174.146 208.206 173.766 208.423 173.332 208.803V211.137C173.73 211.48 174.128 211.607 174.417 211.607L174.435 211.625Z" fill="white"/>
<path d="M178.47 211.137C178.85 211.444 179.248 211.661 179.772 211.661C180.351 211.661 180.659 211.354 180.659 210.974C180.659 210.522 180.134 210.323 179.646 210.124C179.012 209.888 178.325 209.599 178.325 208.839C178.325 208.079 178.886 207.573 179.845 207.573C180.406 207.573 180.894 207.808 181.22 208.079L180.858 208.55C180.55 208.314 180.243 208.152 179.845 208.152C179.284 208.152 179.031 208.459 179.031 208.785C179.031 209.201 179.519 209.364 180.026 209.563C180.659 209.798 181.382 210.069 181.382 210.901C181.382 211.625 180.804 212.222 179.754 212.222C179.121 212.222 178.524 211.951 178.09 211.607L178.47 211.1V211.137Z" fill="white"/>
<path d="M183.735 211.101C184.025 211.101 184.278 211.336 184.278 211.679C184.278 212.005 184.025 212.24 183.735 212.24C183.446 212.24 183.192 212.005 183.192 211.679C183.192 211.336 183.446 211.101 183.735 211.101Z" fill="white"/>
<path d="M186.936 211.101C187.226 211.101 187.479 211.336 187.479 211.679C187.479 212.005 187.226 212.24 186.936 212.24C186.647 212.24 186.394 212.005 186.394 211.679C186.394 211.336 186.647 211.101 186.936 211.101Z" fill="white"/>
<path d="M122.133 458.263C122.133 458.263 118.044 454.428 120.794 439.919C123.544 425.41 130.527 411.461 127.09 395.722C123.671 379.965 96.8232 340.272 96.7508 337.631C96.6604 334.99 88.465 383.818 102.341 403.067C116.217 422.298 117.881 428.974 117.266 439.105C116.651 449.218 117.411 457.377 118.931 459.729L122.133 458.3V458.263Z" fill="#79C9E8"/>
<path d="M119.582 429.082C117.972 435.559 116.995 451.787 119.582 455.676C119.817 456.038 120.161 455.839 120.595 455.17C119.817 452.492 119.292 447.789 120.776 439.937C123.526 425.428 130.509 411.479 127.071 395.74C123.652 379.983 96.8048 340.29 96.7324 337.649C96.7324 337.649 100.785 370.738 114.389 393.497C124.141 409.797 121.192 422.624 119.582 429.1V429.082Z" fill="#49B4D6"/>
<path d="M127.017 457.269C127.017 457.269 119.129 437.585 132.499 420.543C145.868 403.501 167.234 381.611 167.65 372.945C167.65 372.945 173.15 414.103 155.746 425.753C138.36 437.404 126.167 439.268 129.17 457.196L127.017 457.269Z" fill="#79C9E8"/>
<path d="M145.796 417.486C126.402 431.597 124.828 447.861 127.831 455.405C128.066 455.984 128.5 456.346 129.097 456.545C126.492 439.25 138.595 437.278 155.764 425.772C173.15 414.121 167.668 372.963 167.668 372.963C167.668 372.963 165.208 403.393 145.814 417.504L145.796 417.486Z" fill="#49B4D6"/>
<path d="M114.046 457.703C114.046 457.703 116.578 447.282 115.222 436.029C113.883 424.777 102.123 418.445 91.1421 406.559C85.4976 400.444 83.8151 368.115 87.3248 365.112C87.3248 365.112 67.931 388.612 70.9341 405.817C73.9192 423.022 105.561 434.202 108.492 442.524C111.422 450.846 111.169 457.811 111.169 457.811L114.046 457.721V457.703Z" fill="#79C9E8"/>
<path d="M80.7764 374.356C74.3721 391.706 80.9392 412.728 102.233 425.79C117.9 435.396 112.906 455.387 112.906 455.387L115.475 447.499C115.711 444.098 115.729 440.118 115.24 436.029C113.901 424.777 102.142 418.445 91.1608 406.559C85.7153 400.661 83.9604 370.376 86.9817 365.546C86.0952 366.667 83.5805 369.924 80.7764 374.356Z" fill="#49B4D6"/>
<path d="M86.9814 365.546C87.1985 365.274 87.3252 365.112 87.3252 365.112C87.1985 365.22 87.09 365.365 86.9814 365.546Z" fill="#49B4D6"/>
<path d="M131.07 456.4C131.07 456.4 135.611 439.539 146.864 437.26C158.099 434.998 171.016 418.372 171.703 415.116C171.703 415.116 169.804 446.432 131.07 456.382V456.4Z" fill="#79C9E8"/>
<path d="M146.213 442.85C139.32 446.287 136.461 450.918 135.448 455.134C169.93 444.044 171.703 415.134 171.703 415.134C171.558 415.785 170.943 416.961 169.948 418.427C166.565 424.36 158.37 436.753 146.213 442.85Z" fill="#49B4D6"/>
<path d="M155.403 450.195H96.624L103.607 494.102C104.132 497.431 107.008 499.892 110.373 499.892H141.653C145.018 499.892 147.895 497.449 148.419 494.102L155.403 450.195Z" fill="#FFBF4D"/>
<path d="M154.243 457.467L155.401 450.195H96.6045L97.7623 457.467H154.243Z" fill="#FF9F50"/>
<path d="M141.147 450.195L134.164 494.102C133.639 497.431 130.762 499.892 127.397 499.892H141.635C145 499.892 147.877 497.449 148.401 494.102L155.385 450.195H141.147Z" fill="#FF9F50"/>
<path d="M560.864 371.896H295.176V425.916H560.864V371.896Z" fill="#FFBF4D"/>
<g style="mix-blend-mode:multiply" opacity="0.29">
<path d="M560.864 371.896H295.176V385.012H560.864V371.896Z" fill="#F98D2B"/>
</g>
<path d="M318.278 371.896H342.538L336.025 385.012H311.765L318.278 371.896Z" fill="#F77E2D"/>
<path d="M372.914 371.896H397.174L390.661 385.012H366.419L372.914 371.896Z" fill="#F77E2D"/>
<path d="M427.55 371.896H451.793L445.298 385.012H421.056L427.55 371.896Z" fill="#F77E2D"/>
<path d="M482.186 371.896H506.428L499.916 385.012H475.691L482.186 371.896Z" fill="#F77E2D"/>
<path d="M560.883 371.896V372.258L554.551 385.012H530.327L536.822 371.896H560.883Z" fill="#F77E2D"/>
<path d="M346.972 425.916H328.247V499.783H346.972V425.916Z" fill="#79C9E8"/>
<path d="M346.989 425.916H342.737V499.783H346.989V425.916Z" fill="#49B4D6"/>
<path d="M529.259 425.916H510.534V499.783H529.259V425.916Z" fill="#79C9E8"/>
<path d="M529.259 425.916H523.723V499.783H529.259V425.916Z" fill="#49B4D6"/>
<path d="M346.972 425.862H328.247V435.161H346.972V425.862Z" fill="#49B4D6"/>
<path d="M529.259 425.862H510.534V435.161H529.259V425.862Z" fill="#49B4D6"/>
<path d="M346.972 363.447H328.247V371.842H346.972V363.447Z" fill="#79C9E8"/>
<path d="M346.989 363.447H342.737V371.842H346.989V363.447Z" fill="#49B4D6"/>
<path d="M529.259 363.447H510.534V371.842H529.259V363.447Z" fill="#79C9E8"/>
<path d="M529.259 363.447H523.723V371.842H529.259V363.447Z" fill="#49B4D6"/>
<path d="M346.972 370.792H328.247V371.842H346.972V370.792Z" fill="#49B4D6"/>
<path d="M529.259 370.792H510.534V371.842H529.259V370.792Z" fill="#49B4D6"/>
<path d="M342.539 371.896L315.727 425.916H295.176V418.463L318.278 371.896H342.539Z" fill="#0582C1"/>
<path d="M372.914 371.896L346.121 425.916H370.363L397.175 371.896H372.914Z" fill="#0582C1"/>
<path d="M451.792 371.896L424.999 425.916H400.757L427.55 371.896H451.792Z" fill="#0582C1"/>
<path d="M506.426 371.896L479.633 425.916H455.391L482.184 371.896H506.426Z" fill="#0582C1"/>
<path d="M536.82 371.896L510.026 425.916H534.269L560.881 372.258L536.82 371.896Z" fill="#0582C1"/>
<path d="M342.538 371.896L336.025 385.012H311.765L318.278 371.896H342.538Z" fill="#00668E"/>
<path d="M397.174 371.896L390.661 385.012H366.419L372.914 371.896H397.174Z" fill="#00668E"/>
<path d="M451.793 371.896L445.298 385.012H421.056L427.55 371.896H451.793Z" fill="#00668E"/>
<path d="M506.428 371.896L499.916 385.012H475.691L482.186 371.896H506.428Z" fill="#00668E"/>
<path d="M560.881 372.258L554.549 385.012H530.325L536.82 371.896L560.881 372.258Z" fill="#00668E"/>
<path style="mix-blend-mode:overlay" opacity="0.55" d="M556.286 395.27H302.574V422.298H556.286V395.27Z" fill="url(#paint0_linear_3120_1902)"/>
<path d="M339.782 368.239C348.884 366.759 355.063 358.179 353.582 349.077C352.101 339.974 343.522 333.795 334.419 335.276C325.317 336.757 319.138 345.337 320.619 354.439C322.1 363.542 330.679 369.72 339.782 368.239Z" fill="#FFBF4D"/>
<path d="M344.691 351.724C344.691 347.545 341.308 344.162 337.129 344.162C332.949 344.162 329.566 347.545 329.566 351.724C329.566 355.903 332.949 359.286 337.129 359.286C341.308 359.286 344.691 355.903 344.691 351.724Z" fill="#0582C1"/>
<path d="M522.431 368.255C531.534 366.775 537.712 358.195 536.231 349.093C534.75 339.99 526.171 333.811 517.069 335.292C507.966 336.773 501.787 345.353 503.268 354.455C504.749 363.558 513.328 369.736 522.431 368.255Z" fill="#FFBF4D"/>
<path d="M527.34 351.724C527.34 347.545 523.957 344.162 519.778 344.162C515.599 344.162 512.216 347.545 512.216 351.724C512.216 355.903 515.599 359.286 519.778 359.286C523.957 359.286 527.34 355.903 527.34 351.724Z" fill="#0582C1"/>
<path d="M661.543 494.048H576.93L589.865 462.678L595.075 449.996L596.504 446.522L598.838 440.878L599.309 439.72L604.519 427.056L605.478 424.758L614.704 402.361C616.369 398.327 622.086 398.327 623.75 402.361L632.976 424.758L633.935 427.056L639.146 439.72L639.616 440.878L641.95 446.522L643.379 449.996L648.589 462.66L661.524 494.048H661.543Z" fill="#FFBF4D"/>
<g style="mix-blend-mode:multiply" opacity="0.29">
<path d="M582.466 480.606L576.912 494.048H661.543L656.007 480.606H582.466Z" fill="#F98D2B"/>
</g>
<path d="M667.059 486.015H570.145V499.71H667.059V486.015Z" fill="#79C9E8"/>
<path d="M667.061 486.015H646.129V499.71H667.061V486.015Z" fill="#49B4D6"/>
<g style="mix-blend-mode:multiply" opacity="0.29">
<path d="M658.214 486.015H646.237L636.631 462.696L631.42 450.014L629.991 446.54L627.658 440.896L627.187 439.738L621.977 427.074L621.018 424.777L613.257 405.925L614.704 402.38C616.369 398.345 622.085 398.345 623.75 402.38L632.976 424.777L633.935 427.074L639.145 439.738L639.616 440.896L641.95 446.54L643.379 450.014L648.589 462.678L658.196 486.015H658.214Z" fill="#F98D2B"/>
</g>
<path d="M639.127 439.738H599.309L604.519 427.074H633.935L639.127 439.738Z" fill="#0582C1"/>
<path d="M648.59 462.66V462.678H589.866V462.66L595.058 449.996H643.38L648.59 462.66Z" fill="#0582C1"/>
<path d="M639.128 439.738H627.169L621.959 427.074H633.935L639.128 439.738Z" fill="#00668E"/>
<path d="M648.589 462.66V462.678H636.613V462.66L631.421 449.996H643.379L648.589 462.66Z" fill="#00668E"/>
<path d="M122.15 186.388C128.464 186.388 133.964 181.793 134.832 175.533C134.977 174.411 135.068 173.254 135.068 172.096C135.068 158.147 123.761 146.84 109.812 146.84C109.233 146.84 108.672 146.858 108.112 146.895C106.954 133.145 95.4297 122.345 81.3908 122.345C66.5741 122.345 54.5615 134.357 54.5615 149.174C54.5615 149.825 54.5977 150.477 54.6339 151.128C50.4367 148.776 45.5339 147.528 40.3237 147.763C26.8457 148.378 15.7738 159.161 14.815 172.62C14.815 172.729 14.815 172.838 14.7969 172.946C14.3627 180.255 20.2785 186.406 27.6055 186.406H122.15V186.388Z" fill="#D7F0F9"/>
<path d="M724.825 206.216C744.797 206.216 745.901 176.166 725.946 175.189C725.404 175.171 724.861 175.153 724.3 175.153C720.736 175.153 717.317 175.714 714.097 176.745C711.419 160.481 697.308 148.071 680.284 148.071C663.26 148.071 648.534 161.042 646.327 177.831C642.202 175.859 637.571 174.737 632.686 174.737C629.954 174.737 627.313 175.081 624.78 175.732C607.322 180.237 610.976 206.216 629.013 206.216H724.807H724.825Z" fill="#D7F0F9"/>
<path d="M485.026 58.1389C504.98 58.1389 506.102 28.0892 486.147 27.1304C485.605 27.1123 485.062 27.0942 484.501 27.0942C480.937 27.0942 477.518 27.655 474.298 28.6862C471.62 12.4222 457.509 0.0115967 440.503 0.0115967C423.497 0.0115967 408.753 12.983 406.546 29.7717C402.421 27.7998 397.79 26.6781 392.923 26.6781C390.191 26.6781 387.55 27.0219 385.017 27.6731C367.559 32.1598 371.232 58.1389 389.251 58.1389H485.008H485.026Z" fill="#D7F0F9"/>
<path d="M167.181 113.661C193.608 113.661 215.032 92.2371 215.032 65.8095C215.032 39.3819 193.608 17.9581 167.181 17.9581C140.753 17.9581 119.329 39.3819 119.329 65.8095C119.329 92.2371 140.753 113.661 167.181 113.661Z" fill="#FFBF4D"/>
<path d="M167.561 17.9581C180.569 26.5153 189.18 41.2416 189.18 57.976C189.18 84.4074 167.76 105.827 141.329 105.827C141.202 105.827 141.075 105.827 140.931 105.827C148.475 110.784 157.484 113.679 167.181 113.679C193.612 113.679 215.032 92.259 215.032 65.8276C215.032 39.3963 193.811 18.1933 167.561 17.9762V17.9581Z" fill="#FF9F50"/>
<defs>
<linearGradient id="paint0_linear_3120_1902" x1="429.43" y1="441.71" x2="429.43" y2="398.2" gradientUnits="userSpaceOnUse">
<stop stop-color="white"/>
<stop offset="0.12" stop-color="white" stop-opacity="0.82"/>
<stop offset="0.3" stop-color="white" stop-opacity="0.58"/>
<stop offset="0.47" stop-color="white" stop-opacity="0.37"/>
<stop offset="0.64" stop-color="white" stop-opacity="0.21"/>
<stop offset="0.78" stop-color="white" stop-opacity="0.1"/>
<stop offset="0.91" stop-color="white" stop-opacity="0.02"/>
<stop offset="1" stop-color="white" stop-opacity="0"/>
</linearGradient>
</defs>
</svg>
