<svg width="23" height="19" viewBox="0 0 23 19" fill="none" xmlns="http://www.w3.org/2000/svg">
<path fill-rule="evenodd" clip-rule="evenodd" d="M19.375 5.125V4.75C19.373 3.08857 18.3744 1.59052 16.8417 0.949446C15.3089 0.308372 13.5411 0.649422 12.3569 1.81469C12.2877 1.88444 12.2492 1.97894 12.25 2.07719V10.3947C12.2504 10.5324 12.3262 10.6589 12.4476 10.7241C12.5689 10.7892 12.7162 10.7826 12.8313 10.7069C13.5444 10.2496 14.3728 10.0045 15.22 10C15.6272 9.99244 15.9693 10.3045 15.9991 10.7106C16.0099 10.9163 15.9357 11.1173 15.7938 11.2666C15.652 11.4159 15.455 11.5003 15.2491 11.5C13.5922 11.5 12.2491 12.8431 12.2491 14.5V17.6763C12.2489 17.7899 12.3003 17.8974 12.3888 17.9688C13.4675 18.8615 14.9009 19.2002 16.2652 18.8848C17.6294 18.5693 18.7686 17.6357 19.3459 16.36C19.4044 16.2309 19.3851 16.0799 19.2961 15.9697C19.2071 15.8594 19.0635 15.8088 18.925 15.8388C18.4576 15.9459 17.9795 16 17.5 16H16.7753C16.374 16.0049 16.0367 15.6996 16.0019 15.2997C15.9881 15.0923 16.061 14.8885 16.2032 14.7369C16.3453 14.5853 16.544 14.4995 16.7519 14.5H17.5019C18.2855 14.5012 19.0576 14.312 19.7519 13.9487C21.4304 13.0745 22.4513 11.3078 22.3706 9.41698C22.2898 7.52614 21.122 5.8529 19.375 5.125ZM18.25 8.5H17.875C16.011 8.5 14.5 6.98896 14.5 5.125V4.75C14.5 4.33579 14.8358 4 15.25 4C15.6642 4 16 4.33579 16 4.75V5.125C16 6.16053 16.8395 7 17.875 7H18.25C18.6642 7 19 7.33579 19 7.75C19 8.16421 18.6642 8.5 18.25 8.5ZM7.75 0.625C5.4729 0.627583 3.62758 2.4729 3.625 4.75V5.125C1.87821 5.85329 0.71078 7.52675 0.630422 9.41758C0.550064 11.3084 1.5713 13.0749 3.25 13.9487C3.94429 14.312 4.71642 14.5012 5.5 14.5H6.22469C6.62676 14.4941 6.96514 14.7997 7 15.2003C7.01377 15.4077 6.94087 15.6115 6.7987 15.7631C6.65653 15.9147 6.45783 16.0005 6.25 16H5.5C5.02007 16.0002 4.54168 15.9458 4.07406 15.8378C3.93567 15.8076 3.79207 15.858 3.70286 15.968C3.61364 16.0781 3.59404 16.229 3.65219 16.3581C4.22936 17.6342 5.36853 18.5682 6.73298 18.884C8.09744 19.1998 9.53113 18.8614 10.6103 17.9688C10.6988 17.8974 10.7502 17.7899 10.75 17.6763V14.5C10.75 12.8431 9.40685 11.5 7.75 11.5C7.54407 11.5003 7.34709 11.4159 7.20525 11.2666C7.06341 11.1173 6.98919 10.9163 7 10.7106C7.02982 10.3041 7.37246 9.99193 7.78 10C8.62715 10.0045 9.45559 10.2496 10.1687 10.7069C10.2838 10.7826 10.4311 10.7892 10.5524 10.7241C10.6738 10.6589 10.7496 10.5324 10.75 10.3947V2.07719C10.7503 1.97875 10.7119 1.88413 10.6431 1.81375C9.87305 1.05177 8.83334 0.624565 7.75 0.625ZM8.5 5.125C8.5 6.98896 6.98896 8.5 5.125 8.5H4.75C4.33579 8.5 4 8.16421 4 7.75C4 7.33579 4.33579 7 4.75 7H5.125C6.16053 7 7 6.16053 7 5.125V4.75C7 4.33579 7.33579 4 7.75 4C8.16421 4 8.5 4.33579 8.5 4.75V5.125Z" fill="#0B4D8E"/>
</svg>
