<svg width="22" height="19" viewBox="0 0 22 19" fill="none" xmlns="http://www.w3.org/2000/svg">
<path fill-rule="evenodd" clip-rule="evenodd" d="M18.875 5.125V4.75C18.873 3.08857 17.8744 1.59052 16.3417 0.949446C14.8089 0.308372 13.0411 0.649422 11.8569 1.81469C11.7877 1.88444 11.7492 1.97894 11.75 2.07719V10.3947C11.7504 10.5324 11.8262 10.6589 11.9476 10.7241C12.0689 10.7892 12.2162 10.7826 12.3313 10.7069C13.0444 10.2496 13.8728 10.0045 14.72 10C15.1272 9.99244 15.4693 10.3045 15.4991 10.7106C15.5099 10.9163 15.4357 11.1173 15.2938 11.2666C15.152 11.4159 14.955 11.5003 14.7491 11.5C13.0922 11.5 11.7491 12.8431 11.7491 14.5V17.6763C11.7489 17.7899 11.8003 17.8974 11.8888 17.9688C12.9675 18.8615 14.4009 19.2002 15.7652 18.8848C17.1294 18.5693 18.2686 17.6357 18.8459 16.36C18.9044 16.2309 18.8851 16.0799 18.7961 15.9697C18.7071 15.8594 18.5635 15.8088 18.425 15.8388C17.9576 15.9459 17.4795 16 17 16H16.2753C15.874 16.0049 15.5367 15.6996 15.5019 15.2997C15.4881 15.0923 15.561 14.8885 15.7032 14.7369C15.8453 14.5853 16.044 14.4995 16.2519 14.5H17.0019C17.7855 14.5012 18.5576 14.312 19.2519 13.9487C20.9304 13.0745 21.9513 11.3078 21.8706 9.41698C21.7898 7.52614 20.622 5.8529 18.875 5.125ZM17.75 8.5H17.375C15.511 8.5 14 6.98896 14 5.125V4.75C14 4.33579 14.3358 4 14.75 4C15.1642 4 15.5 4.33579 15.5 4.75V5.125C15.5 6.16053 16.3395 7 17.375 7H17.75C18.1642 7 18.5 7.33579 18.5 7.75C18.5 8.16421 18.1642 8.5 17.75 8.5ZM7.25 0.625C4.9729 0.627583 3.12758 2.4729 3.125 4.75V5.125C1.37821 5.85329 0.21078 7.52675 0.130422 9.41758C0.0500638 11.3084 1.0713 13.0749 2.75 13.9487C3.44429 14.312 4.21642 14.5012 5 14.5H5.72469C6.12676 14.4941 6.46514 14.7997 6.5 15.2003C6.51377 15.4077 6.44087 15.6115 6.2987 15.7631C6.15653 15.9147 5.95783 16.0005 5.75 16H5C4.52007 16.0002 4.04168 15.9458 3.57406 15.8378C3.43567 15.8076 3.29207 15.858 3.20286 15.968C3.11364 16.0781 3.09404 16.229 3.15219 16.3581C3.72936 17.6342 4.86853 18.5682 6.23298 18.884C7.59744 19.1998 9.03113 18.8614 10.1103 17.9688C10.1988 17.8974 10.2502 17.7899 10.25 17.6763V14.5C10.25 12.8431 8.90685 11.5 7.25 11.5C7.04407 11.5003 6.84709 11.4159 6.70525 11.2666C6.56341 11.1173 6.48919 10.9163 6.5 10.7106C6.52982 10.3041 6.87246 9.99193 7.28 10C8.12715 10.0045 8.95559 10.2496 9.66875 10.7069C9.78378 10.7826 9.93109 10.7892 10.0524 10.7241C10.1738 10.6589 10.2496 10.5324 10.25 10.3947V2.07719C10.2503 1.97875 10.2119 1.88413 10.1431 1.81375C9.37305 1.05177 8.33334 0.624565 7.25 0.625ZM8 5.125C8 6.98896 6.48896 8.5 4.625 8.5H4.25C3.83579 8.5 3.5 8.16421 3.5 7.75C3.5 7.33579 3.83579 7 4.25 7H4.625C5.66053 7 6.5 6.16053 6.5 5.125V4.75C6.5 4.33579 6.83579 4 7.25 4C7.66421 4 8 4.33579 8 4.75V5.125Z" fill="#323232"/>
</svg>
