<svg width="1371" height="472" viewBox="0 0 1371 472" fill="none" xmlns="http://www.w3.org/2000/svg">
<path d="M1336 56C1288.5 128.5 1172.7 288.7 753.5 257.5C334.3 226.3 74.8333 387.167 -2.5 471.5" stroke="#0697D5" stroke-linecap="round" stroke-dasharray="10 10"/>
<g clip-path="url(#clip0_2489_569)">
<path d="M1339.23 36.6918V46.3543C1339.23 46.6827 1339.34 47.0023 1339.53 47.2677C1339.72 47.5332 1339.99 47.7311 1340.31 47.8334C1340.62 47.9358 1340.95 47.9373 1341.27 47.8379C1341.58 47.7384 1341.85 47.543 1342.05 47.2793L1347.7 39.5877L1339.23 36.6918ZM1370.34 0.289738C1370.11 0.122558 1369.83 0.0235671 1369.54 0.00371262C1369.26 -0.0161419 1368.97 0.0439139 1368.71 0.177238L1321.84 24.6564C1321.57 24.7989 1321.35 25.0171 1321.2 25.2842C1321.05 25.5512 1320.99 25.8555 1321.01 26.1597C1321.03 26.4639 1321.14 26.7547 1321.33 26.9965C1321.52 27.2384 1321.77 27.4206 1322.06 27.521L1335.09 31.9752L1362.84 8.24599L1341.36 34.1189L1363.2 41.5835C1363.42 41.6563 1363.65 41.6809 1363.88 41.6555C1364.11 41.63 1364.32 41.5553 1364.52 41.4364C1364.71 41.3175 1364.88 41.1574 1365.01 40.9673C1365.14 40.7771 1365.22 40.5615 1365.25 40.3356L1370.98 1.79391C1371.03 1.50859 1370.99 1.21711 1370.88 0.951662C1370.76 0.686216 1370.58 0.457137 1370.34 0.289738Z" fill="#0697D5"/>
</g>
<defs>
<clipPath id="clip0_2489_569">
<rect width="50" height="50" fill="white" transform="translate(1321)"/>
</clipPath>
</defs>
</svg>
