<svg width="23" height="18" viewBox="0 0 23 18" fill="none" xmlns="http://www.w3.org/2000/svg">
<path fill-rule="evenodd" clip-rule="evenodd" d="M14.5 0.75C11.3752 0.752399 8.51929 2.51831 7.12094 5.31281C4.89765 4.98856 2.67951 5.93363 1.37326 7.76171C0.067001 9.58978 -0.108445 11.9945 0.918638 13.9928C1.94572 15.9911 4.00319 17.2481 6.25 17.25H14.5C19.0563 17.25 22.75 13.5563 22.75 9C22.75 4.44365 19.0563 0.75 14.5 0.75ZM14.5 15.75H6.25C3.76472 15.75 1.75 13.7353 1.75 11.25C1.75 8.76472 3.76472 6.75 6.25 6.75C6.35313 6.75 6.45625 6.75 6.55844 6.76031C6.35333 7.48918 6.24955 8.24282 6.25 9C6.25 9.41421 6.58579 9.75 7 9.75C7.41421 9.75 7.75 9.41421 7.75 9C7.75 5.27208 10.7721 2.25 14.5 2.25C18.2279 2.25 21.25 5.27208 21.25 9C21.25 12.7279 18.2279 15.75 14.5 15.75Z" fill="#323232"/>
</svg>
