<svg width="15" height="22" viewBox="0 0 15 22" fill="none" xmlns="http://www.w3.org/2000/svg">
<path fill-rule="evenodd" clip-rule="evenodd" d="M12 0.5H3C1.75736 0.5 0.75 1.50736 0.75 2.75V19.25C0.75 20.4926 1.75736 21.5 3 21.5H12C13.2426 21.5 14.25 20.4926 14.25 19.25V2.75C14.25 1.50736 13.2426 0.5 12 0.5ZM2.25 5H12.75V17H2.25V5ZM3 2H12C12.4142 2 12.75 2.33579 12.75 2.75V3.5H2.25V2.75C2.25 2.33579 2.58579 2 3 2ZM12 20H3C2.58579 20 2.25 19.6642 2.25 19.25V18.5H12.75V19.25C12.75 19.6642 12.4142 20 12 20Z" fill="#323232"/>
</svg>
