<svg width="50" height="42" viewBox="0 0 50 42" fill="none" xmlns="http://www.w3.org/2000/svg">
<path d="M35.1763 41.6251H4.62944C1.98295 41.6251 0.0981875 39.047 0.908734 36.5274L4.12162 26.4884C5.15678 23.2657 8.68217 21.5958 11.8267 22.8165C13.9165 23.6271 16.6021 24.2618 19.8931 24.2618C22.813 24.2618 25.2544 23.7638 27.2369 23.0802C27.5494 25.2872 28.5552 27.4259 30.2544 29.1153C32.1978 31.0587 34.7662 32.1622 37.5103 32.2403L38.8873 36.5274C39.6978 39.047 37.8228 41.6251 35.1763 41.6251Z" fill="#FF5E81"/>
<path d="M19.9043 20.5117C25.4649 20.5117 29.9727 16.004 29.9727 10.4434C29.9727 4.88276 25.4649 0.375 19.9043 0.375C14.3437 0.375 9.83594 4.88276 9.83594 10.4434C9.83594 16.004 14.3437 20.5117 19.9043 20.5117Z" fill="#FF5E81"/>
<path d="M48.769 30.0527L45.0972 26.3809C47.3433 22.9922 46.9722 18.373 43.9937 15.3945C40.5854 11.9863 35.0483 11.9863 31.6499 15.3945C28.2417 18.8027 28.2417 24.3398 31.6499 27.7383C34.6382 30.7266 39.2573 31.0879 42.646 28.8418L46.3179 32.5137C46.9917 33.1875 48.0952 33.1875 48.769 32.5137C49.4429 31.8398 49.4429 30.7363 48.769 30.0527ZM34.0913 25.2871C32.0405 23.2363 32.0405 19.9062 34.0913 17.8457C36.1421 15.7852 39.4722 15.7949 41.5327 17.8457C43.5933 19.8965 43.5835 23.2266 41.5327 25.2773C39.4819 27.3379 36.1519 27.3379 34.0913 25.2871Z" fill="#FF5E81"/>
</svg>
