<svg width="48" height="48" viewBox="0 0 48 48" fill="none" xmlns="http://www.w3.org/2000/svg">
<path d="M46.1875 40.125L40.1875 34.125C38.5548 36.4999 36.4999 38.5548 34.125 40.1875L40.125 46.1875C40.9302 46.989 42.0201 47.4389 43.1562 47.4389C44.2924 47.4389 45.3823 46.989 46.1875 46.1875C47 45.375 47.4375 44.2969 47.4375 43.1562C47.4375 42.0156 46.9844 40.9375 46.1875 40.125ZM20.875 8.375C13.9844 8.375 8.375 13.9844 8.375 20.875C8.375 27.7656 13.9844 33.375 20.875 33.375C27.7656 33.375 33.375 27.7656 33.375 20.875C33.375 13.9844 27.7656 8.375 20.875 8.375ZM26.6563 19.0625L20.7031 24.9219C20.4063 25.2188 20 25.375 19.6094 25.375C19.2187 25.375 18.8125 25.2188 18.5156 24.9219L15.0938 21.5625C14.7995 21.2724 14.6326 20.8773 14.6297 20.4642C14.6267 20.051 14.788 19.6536 15.0781 19.3594C15.3682 19.0652 15.7633 18.8982 16.1765 18.8953C16.5896 18.8924 16.987 19.0537 17.2812 19.3438L19.6094 21.625L24.4687 16.8438C24.6143 16.6999 24.7868 16.5862 24.9764 16.5091C25.166 16.4321 25.3689 16.3932 25.5736 16.3946C25.7782 16.3961 25.9805 16.4379 26.169 16.5176C26.3575 16.5974 26.5284 16.7135 26.6719 16.8594C27.2812 17.4688 27.2656 18.4688 26.6563 19.0625Z" fill="#559FFF"/>
<path d="M41.1875 20.875C41.1875 9.67188 32.0781 0.5625 20.875 0.5625C9.67188 0.5625 0.5625 9.67188 0.5625 20.875C0.5625 32.0781 9.67188 41.1875 20.875 41.1875C32.0781 41.1875 41.1875 32.0781 41.1875 20.875ZM20.875 36.5C12.2656 36.5 5.25 29.4844 5.25 20.875C5.25 12.2656 12.2656 5.25 20.875 5.25C29.4844 5.25 36.5 12.2656 36.5 20.875C36.5 29.4844 29.4844 36.5 20.875 36.5Z" fill="#559FFF"/>
</svg>
