<svg width="50" height="50" viewBox="0 0 50 50" fill="none" xmlns="http://www.w3.org/2000/svg">
<path d="M48.5345 47.0701H46.972V18.1643C46.972 17.3553 46.3162 16.6995 45.5072 16.6995H39.6479C38.8389 16.6995 38.1831 17.3553 38.1831 18.1643V47.0701H35.2534V27.9298C35.2534 27.1208 34.5976 26.465 33.7886 26.465H27.9293C27.1203 26.465 26.4645 27.1208 26.4645 27.9298V47.0701H23.5348V33.3008C23.5348 32.4918 22.879 31.836 22.07 31.836H16.2107C15.4017 31.836 14.7459 32.4918 14.7459 33.3008V47.0701H11.8162V36.8164C11.8162 36.0074 11.1604 35.3516 10.3514 35.3516H4.49213C3.68315 35.3516 3.0273 36.0074 3.0273 36.8164V47.0701H1.46482C0.65585 47.0701 0 47.726 0 48.535C0 49.3439 0.65585 49.9998 1.46482 49.9998H48.5345C49.3435 49.9998 49.9993 49.3439 49.9993 48.535C49.9993 47.726 49.3435 47.0701 48.5345 47.0701Z" fill="#A34CFF"/>
<path d="M1.46482 31.4751C10.6071 31.4751 20.5212 28.1918 29.381 22.2298C36.3199 17.5605 42.1041 11.5954 45.697 5.48739L47.1197 10.7966C47.2951 11.4511 48.1418 12.0165 48.9137 11.8323C49.7006 11.6446 50.1588 10.8197 49.9494 10.0383L47.5507 1.08628C47.3412 0.304938 46.5384 -0.158923 45.7567 0.0505472L36.8047 2.44924C36.0232 2.65862 35.5596 3.46183 35.7689 4.24326C35.9784 5.0247 36.7812 5.48856 37.563 5.27899L43.33 3.7337C39.978 9.55843 34.4382 15.2955 27.7454 19.7992C19.3639 25.4394 10.0306 28.5455 1.46482 28.5455C0.65585 28.5455 0 29.2013 0 30.0103C0 30.8193 0.65585 31.4751 1.46482 31.4751Z" fill="#A34CFF"/>
</svg>
