<svg width="50" height="46" viewBox="0 0 50 46" fill="none" xmlns="http://www.w3.org/2000/svg">
<path d="M47.0703 0.441406H2.92969C1.31445 0.441406 0 1.75586 0 3.37109V32.4727C0 34.0879 1.31445 35.4023 2.92969 35.4023H47.0703C48.6855 35.4023 50 34.0879 50 32.4727V3.37109C50 1.75586 48.6855 0.441406 47.0703 0.441406ZM40.625 42.6289H32.7148V38.332H17.2852V42.6289H9.375C8.56641 42.6289 7.91016 43.2852 7.91016 44.0938C7.91016 44.9023 8.56641 45.5586 9.375 45.5586H40.625C41.4336 45.5586 42.0898 44.9023 42.0898 44.0938C42.0898 43.2852 41.4336 42.6289 40.625 42.6289Z" fill="#FFA01B"/>
</svg>
