<svg width="50" height="50" viewBox="0 0 50 50" fill="none" xmlns="http://www.w3.org/2000/svg">
<g clip-path="url(#clip0_1975_826)">
<path d="M46.3542 0H3.64583C1.63542 0 0 1.63542 0 3.64583V8.85417C0 10.8646 1.63542 12.5 3.64583 12.5H46.3542C48.3646 12.5 50 10.8646 50 8.85417V3.64583C50 1.63542 48.3646 0 46.3542 0ZM3.64583 50H19.2708C21.2812 50 22.9167 48.3646 22.9167 46.3542V20.3125C22.9167 18.3021 21.2812 16.6667 19.2708 16.6667H3.64583C1.63542 16.6667 0 18.3021 0 20.3125V46.3542C0 48.3646 1.63542 50 3.64583 50ZM46.3542 16.6667H30.7292C28.7187 16.6667 27.0833 18.3021 27.0833 20.3125V27.6042C27.0833 29.6146 28.7187 31.25 30.7292 31.25H46.3542C48.3646 31.25 50 29.6146 50 27.6042V20.3125C50 18.3021 48.3646 16.6667 46.3542 16.6667ZM46.3542 35.4167H30.7292C28.7187 35.4167 27.0833 37.0521 27.0833 39.0625V46.3542C27.0833 48.3646 28.7187 50 30.7292 50H46.3542C48.3646 50 50 48.3646 50 46.3542V39.0625C50 37.0521 48.3646 35.4167 46.3542 35.4167Z" fill="#3BDF6C"/>
</g>
<defs>
<clipPath id="clip0_1975_826">
<rect width="50" height="50" fill="white"/>
</clipPath>
</defs>
</svg>
