<svg width="21" height="19" viewBox="0 0 21 19" fill="none" xmlns="http://www.w3.org/2000/svg">
<path fill-rule="evenodd" clip-rule="evenodd" d="M18.75 3.25H15V2.5C15 1.25736 13.9926 0.25 12.75 0.25H8.25C7.00736 0.25 6 1.25736 6 2.5V3.25H2.25C1.42157 3.25 0.75 3.92157 0.75 4.75V16.75C0.75 17.5784 1.42157 18.25 2.25 18.25H18.75C19.5784 18.25 20.25 17.5784 20.25 16.75V4.75C20.25 3.92157 19.5784 3.25 18.75 3.25ZM7.5 2.5C7.5 2.08579 7.83579 1.75 8.25 1.75H12.75C13.1642 1.75 13.5 2.08579 13.5 2.5V3.25H7.5V2.5ZM18.75 4.75V8.65094C16.2185 10.0289 13.3822 10.7505 10.5 10.75C7.61794 10.7505 4.78165 10.0292 2.25 8.65187V4.75H18.75ZM18.75 16.75H2.25V10.3413C4.81868 11.5977 7.6405 12.2506 10.5 12.25C13.3596 12.2501 16.1813 11.5969 18.75 10.3403V16.75ZM8.25 8.5C8.25 8.08579 8.58579 7.75 9 7.75H12C12.4142 7.75 12.75 8.08579 12.75 8.5C12.75 8.91421 12.4142 9.25 12 9.25H9C8.58579 9.25 8.25 8.91421 8.25 8.5Z" fill="#323232"/>
</svg>
