<svg width="38" height="38" viewBox="0 0 38 38" fill="none" xmlns="http://www.w3.org/2000/svg">
<rect width="38" height="38" rx="10" fill="#0697D5"/>
<path d="M27.4296 16.375C27.3661 16.2388 27.2648 16.1237 27.1379 16.0433C27.0109 15.9629 26.8636 15.9205 26.7134 15.9213H26.7096L19.8921 15.9587L19.8509 15.9138L20.7884 9.40375C20.8134 9.23218 20.781 9.05714 20.6962 8.90589C20.6115 8.75464 20.479 8.63567 20.3196 8.5675C20.219 8.52369 20.1106 8.50073 20.0009 8.5C19.8833 8.50037 19.7673 8.52718 19.6615 8.57847C19.5557 8.62975 19.4628 8.70418 19.3896 8.79625L10.6709 19.6713C10.5777 19.7872 10.5193 19.9271 10.5023 20.0748C10.4852 20.2225 10.5103 20.372 10.5746 20.5061C10.6389 20.6402 10.7398 20.7534 10.8656 20.8326C10.9915 20.9118 11.1372 20.9538 11.2859 20.9537H17.4321L17.4696 21.0025L15.8946 28.5475C15.8583 28.7201 15.8809 28.8998 15.9586 29.0581C16.0364 29.2164 16.1648 29.3441 16.3236 29.4209C16.4823 29.4977 16.6622 29.5191 16.8346 29.4818C17.0069 29.4445 17.1618 29.3506 17.2746 29.215L27.3209 17.2188C27.418 17.1033 27.4798 16.9624 27.4991 16.8128C27.5184 16.6632 27.4943 16.5113 27.4296 16.375Z" fill="white"/>
</svg>
