<svg width="20" height="19" viewBox="0 0 20 19" fill="none" xmlns="http://www.w3.org/2000/svg">
<path fill-rule="evenodd" clip-rule="evenodd" d="M18.8113 4.87844L14.6216 0.689687C14.3402 0.408309 13.9587 0.250226 13.5608 0.250226C13.1629 0.250226 12.7813 0.408309 12.5 0.689687L0.939687 12.25C0.657107 12.5303 0.498728 12.9123 0.5 13.3103V17.5C0.5 18.3284 1.17157 19 2 19H17.75C18.1642 19 18.5 18.6642 18.5 18.25C18.5 17.8358 18.1642 17.5 17.75 17.5H8.31125L18.8113 7C19.0926 6.71869 19.2507 6.3371 19.2507 5.93922C19.2507 5.54133 19.0926 5.15975 18.8113 4.87844ZM10.25 5.06031L11.8147 6.625L3.875 14.5647L2.31031 13L10.25 5.06031ZM2 17.5V14.8103L4.68969 17.5H2ZM6.5 17.1897L4.93625 15.625L12.875 7.68531L14.4397 9.25L6.5 17.1897ZM15.5 8.18969L11.3112 4L13.5613 1.75L17.75 5.93969L15.5 8.18969Z" fill="#323232"/>
</svg>
