<svg width="21" height="20" viewBox="0 0 21 20" fill="none" xmlns="http://www.w3.org/2000/svg">
<path fill-rule="evenodd" clip-rule="evenodd" d="M10.5 0.25C5.11522 0.25 0.75 4.61522 0.75 10C0.75 15.3848 5.11522 19.75 10.5 19.75C15.8848 19.75 20.25 15.3848 20.25 10C20.2443 4.61758 15.8824 0.255684 10.5 0.25ZM18.75 10C18.7508 11.0584 18.5471 12.107 18.15 13.0881L13.9594 10.5109C13.7812 10.401 13.5819 10.3298 13.3744 10.3019L11.235 10.0131C10.6323 9.93453 10.0412 10.2249 9.735 10.75H8.9175L8.56125 10.0131C8.36166 9.59732 7.98093 9.29723 7.53 9.20031L6.78 9.03813L7.51313 7.75H9.07969C9.33318 7.7495 9.58245 7.68501 9.80437 7.5625L10.9528 6.92875C11.0537 6.87251 11.148 6.80522 11.2341 6.72812L13.7569 4.44625C14.2779 3.97931 14.4049 3.21324 14.0625 2.60313L14.0288 2.54219C16.9101 3.90842 18.7477 6.81115 18.75 10ZM11.9353 1.87562L12.75 3.33437L10.2272 5.61625L9.07969 6.25H7.51313C6.97644 6.24921 6.48022 6.53521 6.21187 7L5.39344 8.42781L4.44187 5.89281L5.4675 3.4675C7.30317 2.04914 9.65178 1.47049 11.9362 1.87375L11.9353 1.87562ZM2.25 10C2.24875 8.77377 2.52233 7.56284 3.05062 6.45625L4.11375 9.29406C4.29378 9.77151 4.70418 10.1247 5.20312 10.2316L7.21219 10.6637L7.56938 11.4062C7.82224 11.9214 8.34551 12.2484 8.91938 12.25H9.05812L8.38031 13.7716C8.13621 14.3192 8.24165 14.9596 8.64844 15.4L8.66156 15.4131L10.5 17.3069L10.3181 18.2444C5.83749 18.1401 2.25743 14.4818 2.25 10ZM11.8669 18.1356L11.9728 17.5909C12.0611 17.1217 11.922 16.6384 11.5978 16.2878C11.5932 16.2837 11.5888 16.2793 11.5847 16.2747L9.75 14.3819L11.0344 11.5L13.1737 11.7887L17.46 14.425C16.2042 16.3971 14.1721 17.7453 11.8669 18.1356Z" fill="#323232"/>
</svg>
