<svg width="184" height="205" viewBox="0 0 184 205" fill="none" xmlns="http://www.w3.org/2000/svg">
<g filter="url(#filter0_d_47_332)">
<path d="M87.058 7.09155L162.453 50.6206V137.679L87.058 181.208L11.6636 137.679V50.6206L87.058 7.09155Z" fill="#069AD8"/>
</g>
<path d="M81.325 67.9809L63.901 68.0469V64.0869L71.953 57.3879C72.613 56.8599 73.174 56.3649 73.636 55.9029C74.098 55.4189 74.472 54.9569 74.758 54.5169C75.066 54.0549 75.286 53.6039 75.418 53.1639C75.572 52.7019 75.649 52.2179 75.649 51.7119C75.649 50.4799 75.352 49.5449 74.758 48.9069C74.186 48.2469 73.35 47.9169 72.25 47.9169C71.106 47.9169 70.215 48.2909 69.577 49.0389C68.961 49.7869 68.653 50.8429 68.653 52.2069H63.34C63.34 50.3809 63.703 48.7969 64.429 47.4549C65.177 46.0909 66.211 45.0349 67.531 44.2869C68.873 43.5389 70.435 43.1649 72.217 43.1649C74.087 43.1649 75.682 43.4949 77.002 44.1549C78.322 44.7929 79.334 45.7279 80.038 46.9599C80.764 48.1699 81.127 49.6439 81.127 51.3819C81.127 52.2179 81.006 53.0209 80.764 53.7909C80.522 54.5389 80.181 55.2649 79.741 55.9689C79.301 56.6729 78.773 57.3549 78.157 58.0149C77.541 58.6749 76.848 59.3239 76.078 59.9619L70.666 64.4829L68.686 63.0309H81.325V67.9809ZM95.3324 48.6759V65.2089H91.1084V48.6759H95.3324ZM84.9704 54.8139H101.47V59.0379H84.9704V54.8139ZM58.5915 88.4609L53.9365 80.3099H56.0265L59.0855 85.8009C59.1741 85.9655 59.2501 86.1175 59.3135 86.2569C59.3895 86.3962 59.4655 86.5482 59.5415 86.7129C59.6048 86.5989 59.6491 86.5039 59.6745 86.4279C59.7125 86.3392 59.7505 86.2505 59.7885 86.1619C59.8391 86.0732 59.9088 85.9529 59.9975 85.8009L63.0375 80.3099H65.0705L60.4535 88.4609V94.0469H58.5915V88.4609ZM68.6773 94.2749C67.778 94.2749 66.98 94.0722 66.2833 93.6669C65.5867 93.2489 65.042 92.6789 64.6493 91.9569C64.2567 91.2222 64.0603 90.3735 64.0603 89.4109C64.0603 88.4355 64.2503 87.5805 64.6303 86.8459C65.023 86.1112 65.555 85.5349 66.2263 85.1169C66.9103 84.6989 67.702 84.4899 68.6013 84.4899C69.488 84.4899 70.2543 84.6799 70.9003 85.0599C71.559 85.4399 72.0657 85.9719 72.4203 86.6559C72.7877 87.3399 72.9713 88.1442 72.9713 89.0689V89.7339L65.0103 89.7529L65.0483 88.5559H71.1853C71.1853 87.7832 70.951 87.1625 70.4823 86.6939C70.0137 86.2252 69.3867 85.9909 68.6013 85.9909C68.006 85.9909 67.493 86.1239 67.0623 86.3899C66.6443 86.6432 66.3213 87.0232 66.0933 87.5299C65.878 88.0239 65.7703 88.6192 65.7703 89.3159C65.7703 90.4305 66.0237 91.2919 66.5303 91.8999C67.037 92.4952 67.7653 92.7929 68.7153 92.7929C69.412 92.7929 69.982 92.6535 70.4253 92.3749C70.8687 92.0962 71.1663 91.6909 71.3183 91.1589H72.9903C72.7623 92.1469 72.2747 92.9132 71.5273 93.4579C70.78 94.0025 69.83 94.2749 68.6773 94.2749ZM77.5904 94.2749C76.6024 94.2749 75.8234 94.0152 75.2534 93.4959C74.6961 92.9765 74.4174 92.2989 74.4174 91.4629C74.4174 90.6142 74.7214 89.9365 75.3294 89.4299C75.9374 88.9105 76.7861 88.6065 77.8754 88.5179L80.8014 88.2899V88.0239C80.8014 87.5045 80.7064 87.0929 80.5164 86.7889C80.3264 86.4722 80.0668 86.2505 79.7374 86.1239C79.4081 85.9845 79.0344 85.9149 78.6164 85.9149C77.8691 85.9149 77.2864 86.0732 76.8684 86.3899C76.4631 86.6939 76.2604 87.1309 76.2604 87.7009H74.7024C74.7024 87.0549 74.8671 86.4912 75.1964 86.0099C75.5258 85.5285 75.9881 85.1549 76.5834 84.8889C77.1914 84.6229 77.8944 84.4899 78.6924 84.4899C79.4651 84.4899 80.1364 84.6292 80.7064 84.9079C81.2891 85.1739 81.7388 85.5855 82.0554 86.1429C82.3848 86.6875 82.5494 87.3779 82.5494 88.2139V94.0469H81.0294L80.8394 92.5459C80.5988 93.0779 80.1808 93.5022 79.5854 93.8189C79.0028 94.1229 78.3378 94.2749 77.5904 94.2749ZM78.1034 92.8879C78.9521 92.8879 79.6171 92.6345 80.0984 92.1279C80.5798 91.6085 80.8204 90.9119 80.8204 90.0379V89.5439L78.4454 89.7339C77.6601 89.8099 77.0901 89.9935 76.7354 90.2849C76.3934 90.5762 76.2224 90.9499 76.2224 91.4059C76.2224 91.8999 76.3871 92.2735 76.7164 92.5269C77.0584 92.7675 77.5208 92.8879 78.1034 92.8879ZM90.3428 84.6799V86.3139H89.5448C88.6962 86.3139 88.0248 86.5609 87.5308 87.0549C87.0495 87.5362 86.8088 88.2265 86.8088 89.1259V94.0469H85.0228V84.7749H86.6948L86.8468 86.6369H86.6758C86.8025 86.0289 87.1065 85.5349 87.5878 85.1549C88.0692 84.7622 88.6708 84.5659 89.3928 84.5659C89.5575 84.5659 89.7095 84.5785 89.8488 84.6039C90.0008 84.6165 90.1655 84.6419 90.3428 84.6799ZM91.258 91.3489H92.968C92.968 91.8175 93.139 92.1912 93.481 92.4699C93.823 92.7359 94.2853 92.8689 94.868 92.8689C95.5013 92.8689 95.989 92.7485 96.331 92.5079C96.673 92.2545 96.844 91.9189 96.844 91.5009C96.844 91.1969 96.749 90.9435 96.559 90.7409C96.3816 90.5382 96.0523 90.3735 95.571 90.2469L93.937 89.8669C93.1136 89.6642 92.4993 89.3539 92.094 88.9359C91.7013 88.5179 91.505 87.9669 91.505 87.2829C91.505 86.7129 91.6506 86.2189 91.942 85.8009C92.246 85.3829 92.6576 85.0599 93.177 84.8319C93.709 84.6039 94.317 84.4899 95.001 84.4899C95.685 84.4899 96.274 84.6102 96.768 84.8509C97.2746 85.0915 97.6673 85.4272 97.946 85.8579C98.2373 86.2885 98.3893 86.8015 98.402 87.3969H96.692C96.6793 86.9155 96.521 86.5419 96.217 86.2759C95.913 86.0099 95.4886 85.8769 94.944 85.8769C94.3866 85.8769 93.956 85.9972 93.652 86.2379C93.348 86.4785 93.196 86.8079 93.196 87.2259C93.196 87.8465 93.652 88.2709 94.564 88.4989L96.198 88.8979C96.9833 89.0752 97.5723 89.3665 97.965 89.7719C98.3576 90.1645 98.554 90.7029 98.554 91.3869C98.554 91.9695 98.3956 92.4825 98.079 92.9259C97.7623 93.3565 97.3253 93.6922 96.768 93.9329C96.2233 94.1609 95.5773 94.2749 94.83 94.2749C93.7406 94.2749 92.873 94.0089 92.227 93.4769C91.581 92.9449 91.258 92.2355 91.258 91.3489ZM105.122 89.3919C105.122 88.4419 105.331 87.5995 105.749 86.8649C106.167 86.1302 106.737 85.5539 107.459 85.1359C108.194 84.7179 109.03 84.5089 109.967 84.5089C110.904 84.5089 111.734 84.7179 112.456 85.1359C113.178 85.5539 113.748 86.1302 114.166 86.8649C114.584 87.5995 114.793 88.4419 114.793 89.3919C114.793 90.3419 114.584 91.1842 114.166 91.9189C113.748 92.6535 113.178 93.2299 112.456 93.6479C111.734 94.0659 110.904 94.2749 109.967 94.2749C109.03 94.2749 108.194 94.0659 107.459 93.6479C106.737 93.2299 106.167 92.6535 105.749 91.9189C105.331 91.1842 105.122 90.3419 105.122 89.3919ZM106.927 89.3919C106.927 90.0379 107.054 90.6079 107.307 91.1019C107.573 91.5959 107.934 91.9822 108.39 92.2609C108.846 92.5395 109.372 92.6789 109.967 92.6789C110.562 92.6789 111.088 92.5395 111.544 92.2609C112 91.9822 112.355 91.5959 112.608 91.1019C112.874 90.6079 113.007 90.0379 113.007 89.3919C113.007 88.7332 112.874 88.1632 112.608 87.6819C112.355 87.1879 112 86.8015 111.544 86.5229C111.088 86.2442 110.562 86.1049 109.967 86.1049C109.372 86.1049 108.846 86.2442 108.39 86.5229C107.934 86.8015 107.573 87.1879 107.307 87.6819C107.054 88.1632 106.927 88.7332 106.927 89.3919ZM115.726 84.7559H121.084V86.2569H115.726V84.7559ZM121.141 80.1389V81.6779C121.027 81.6779 120.901 81.6779 120.761 81.6779C120.635 81.6779 120.495 81.6779 120.343 81.6779C119.761 81.6779 119.368 81.8172 119.165 82.0959C118.975 82.3745 118.88 82.7672 118.88 83.2739V94.0469H117.094V83.2739C117.094 82.5139 117.221 81.8995 117.474 81.4309C117.74 80.9495 118.089 80.6012 118.519 80.3859C118.963 80.1705 119.469 80.0629 120.039 80.0629C120.217 80.0629 120.4 80.0692 120.59 80.0819C120.78 80.0945 120.964 80.1135 121.141 80.1389ZM52.1248 120.047H43.7458V106.31H52.1248V108.02H44.7528L45.6078 107.279V112.314H51.4788V113.967H45.6078V119.097L44.7528 118.318H52.1248V120.047ZM55.4689 120.047H53.4169L56.6659 115.449L53.4359 110.756H55.5069L57.8629 114.214L60.1619 110.756H62.1949L58.9649 115.449L62.1379 120.047H60.0669L57.7489 116.646L55.4689 120.047ZM62.7059 115.411C62.7059 114.436 62.8959 113.581 63.2759 112.846C63.6685 112.111 64.2069 111.535 64.8909 111.117C65.5749 110.699 66.3665 110.49 67.2659 110.49C68.4312 110.49 69.4002 110.8 70.1729 111.421C70.9455 112.042 71.4079 112.865 71.5599 113.891H69.7739C69.6219 113.296 69.3242 112.846 68.8809 112.542C68.4375 112.238 67.9182 112.086 67.3229 112.086C66.7655 112.086 66.2715 112.225 65.8409 112.504C65.4102 112.77 65.0745 113.15 64.8339 113.644C64.5932 114.138 64.4729 114.721 64.4729 115.392C64.4729 116.063 64.5869 116.646 64.8149 117.14C65.0429 117.621 65.3659 118.001 65.7839 118.28C66.2019 118.546 66.6895 118.679 67.2469 118.679C67.8802 118.679 68.4249 118.521 68.8809 118.204C69.3369 117.887 69.6409 117.457 69.7929 116.912H71.5789C71.4649 117.583 71.2052 118.172 70.7999 118.679C70.4072 119.173 69.9005 119.566 69.2799 119.857C68.6719 120.136 67.9942 120.275 67.2469 120.275C66.3349 120.275 65.5369 120.072 64.8529 119.667C64.1815 119.262 63.6559 118.698 63.2759 117.976C62.8959 117.241 62.7059 116.386 62.7059 115.411ZM77.4723 120.275C76.5729 120.275 75.7749 120.072 75.0783 119.667C74.3816 119.249 73.8369 118.679 73.4443 117.957C73.0516 117.222 72.8553 116.374 72.8553 115.411C72.8553 114.436 73.0453 113.581 73.4253 112.846C73.8179 112.111 74.3499 111.535 75.0213 111.117C75.7053 110.699 76.4969 110.49 77.3963 110.49C78.2829 110.49 79.0493 110.68 79.6953 111.06C80.3539 111.44 80.8606 111.972 81.2153 112.656C81.5826 113.34 81.7663 114.144 81.7663 115.069V115.734L73.8053 115.753L73.8433 114.556H79.9803C79.9803 113.783 79.7459 113.163 79.2773 112.694C78.8086 112.225 78.1816 111.991 77.3963 111.991C76.8009 111.991 76.2879 112.124 75.8573 112.39C75.4393 112.643 75.1163 113.023 74.8883 113.53C74.6729 114.024 74.5653 114.619 74.5653 115.316C74.5653 116.431 74.8186 117.292 75.3253 117.9C75.8319 118.495 76.5603 118.793 77.5103 118.793C78.2069 118.793 78.7769 118.654 79.2203 118.375C79.6636 118.096 79.9613 117.691 80.1133 117.159H81.7853C81.5573 118.147 81.0696 118.913 80.3223 119.458C79.5749 120.003 78.6249 120.275 77.4723 120.275ZM85.5851 120.047H83.7991V106.063H85.5851V120.047ZM90.0382 120.047H88.2522V106.063H90.0382V120.047ZM96.6764 120.275C95.777 120.275 94.979 120.072 94.2824 119.667C93.5857 119.249 93.041 118.679 92.6484 117.957C92.2557 117.222 92.0594 116.374 92.0594 115.411C92.0594 114.436 92.2494 113.581 92.6294 112.846C93.022 112.111 93.554 111.535 94.2254 111.117C94.9094 110.699 95.701 110.49 96.6004 110.49C97.487 110.49 98.2534 110.68 98.8994 111.06C99.558 111.44 100.065 111.972 100.419 112.656C100.787 113.34 100.97 114.144 100.97 115.069V115.734L93.0094 115.753L93.0474 114.556H99.1844C99.1844 113.783 98.95 113.163 98.4814 112.694C98.0127 112.225 97.3857 111.991 96.6004 111.991C96.005 111.991 95.492 112.124 95.0614 112.39C94.6434 112.643 94.3204 113.023 94.0924 113.53C93.877 114.024 93.7694 114.619 93.7694 115.316C93.7694 116.431 94.0227 117.292 94.5294 117.9C95.036 118.495 95.7644 118.793 96.7144 118.793C97.411 118.793 97.981 118.654 98.4244 118.375C98.8677 118.096 99.1654 117.691 99.3174 117.159H100.989C100.761 118.147 100.274 118.913 99.5264 119.458C98.779 120.003 97.829 120.275 96.6764 120.275ZM104.751 120.047H102.965V110.756H104.58L104.77 112.181C105.062 111.649 105.48 111.237 106.024 110.946C106.582 110.642 107.19 110.49 107.848 110.49C109.064 110.49 109.964 110.838 110.546 111.535C111.129 112.232 111.42 113.175 111.42 114.366V120.047H109.634V114.765C109.634 113.828 109.432 113.156 109.026 112.751C108.621 112.333 108.076 112.124 107.392 112.124C106.556 112.124 105.904 112.396 105.435 112.941C104.979 113.486 104.751 114.214 104.751 115.126V120.047ZM113.286 115.411C113.286 114.436 113.476 113.581 113.856 112.846C114.249 112.111 114.787 111.535 115.471 111.117C116.155 110.699 116.947 110.49 117.846 110.49C119.011 110.49 119.98 110.8 120.753 111.421C121.526 112.042 121.988 112.865 122.14 113.891H120.354C120.202 113.296 119.904 112.846 119.461 112.542C119.018 112.238 118.498 112.086 117.903 112.086C117.346 112.086 116.852 112.225 116.421 112.504C115.99 112.77 115.655 113.15 115.414 113.644C115.173 114.138 115.053 114.721 115.053 115.392C115.053 116.063 115.167 116.646 115.395 117.14C115.623 117.621 115.946 118.001 116.364 118.28C116.782 118.546 117.27 118.679 117.827 118.679C118.46 118.679 119.005 118.521 119.461 118.204C119.917 117.887 120.221 117.457 120.373 116.912H122.159C122.045 117.583 121.785 118.172 121.38 118.679C120.987 119.173 120.481 119.566 119.86 119.857C119.252 120.136 118.574 120.275 117.827 120.275C116.915 120.275 116.117 120.072 115.433 119.667C114.762 119.262 114.236 118.698 113.856 117.976C113.476 117.241 113.286 116.386 113.286 115.411ZM128.052 120.275C127.153 120.275 126.355 120.072 125.658 119.667C124.962 119.249 124.417 118.679 124.024 117.957C123.632 117.222 123.435 116.374 123.435 115.411C123.435 114.436 123.625 113.581 124.005 112.846C124.398 112.111 124.93 111.535 125.601 111.117C126.285 110.699 127.077 110.49 127.976 110.49C128.863 110.49 129.629 110.68 130.275 111.06C130.934 111.44 131.441 111.972 131.795 112.656C132.163 113.34 132.346 114.144 132.346 115.069V115.734L124.385 115.753L124.423 114.556H130.56C130.56 113.783 130.326 113.163 129.857 112.694C129.389 112.225 128.762 111.991 127.976 111.991C127.381 111.991 126.868 112.124 126.437 112.39C126.019 112.643 125.696 113.023 125.468 113.53C125.253 114.024 125.145 114.619 125.145 115.316C125.145 116.431 125.399 117.292 125.905 117.9C126.412 118.495 127.14 118.793 128.09 118.793C128.787 118.793 129.357 118.654 129.8 118.375C130.244 118.096 130.541 117.691 130.693 117.159H132.365C132.137 118.147 131.65 118.913 130.902 119.458C130.155 120.003 129.205 120.275 128.052 120.275Z" fill="white"/>
<defs>
<filter id="filter0_d_47_332" x="2.66309" y="0.0915527" width="180.789" height="204.116" filterUnits="userSpaceOnUse" color-interpolation-filters="sRGB">
<feFlood flood-opacity="0" result="BackgroundImageFix"/>
<feColorMatrix in="SourceAlpha" type="matrix" values="0 0 0 0 0 0 0 0 0 0 0 0 0 0 0 0 0 0 127 0" result="hardAlpha"/>
<feOffset dx="6" dy="8"/>
<feGaussianBlur stdDeviation="7.5"/>
<feComposite in2="hardAlpha" operator="out"/>
<feColorMatrix type="matrix" values="0 0 0 0 0.291632 0 0 0 0 0.751874 0 0 0 0 0.945833 0 0 0 0.34 0"/>
<feBlend mode="normal" in2="BackgroundImageFix" result="effect1_dropShadow_47_332"/>
<feBlend mode="normal" in="SourceGraphic" in2="effect1_dropShadow_47_332" result="shape"/>
</filter>
</defs>
</svg>
