<svg width="352" height="218" viewBox="0 0 352 218" fill="none" xmlns="http://www.w3.org/2000/svg">
<g clip-path="url(#clip0_111_2031)">
<path d="M0 10C0 4.47715 4.47715 0 10 0H342C347.523 0 352 4.47715 352 10V218H0V10Z" fill="#EAF6FF"/>
<g clip-path="url(#clip1_111_2031)">
<path d="M125.16 82.96C125.16 82.96 133.88 115.73 122.33 125.45C110.78 135.17 97.88 119.98 93.6 144.87C89.32 169.76 168.66 159.23 182.02 140.82C195.38 122.41 171.09 120.82 161.18 122.61C151.27 124.4 151.67 113.91 150.66 99.14C149.65 84.37 125.16 82.96 125.16 82.96Z" fill="#EA8D83"/>
<path opacity="0.5" d="M127.82 113.59C135.986 117.221 144.754 119.306 153.68 119.74C151.37 115.74 151.28 108.27 150.68 99.14C149.68 84.37 125.18 82.96 125.18 82.96C125.18 82.96 129.79 100.38 127.82 113.59Z" fill="#D36A62"/>
<path d="M237.02 66.2404C232.65 36.0404 232.65 63.3404 232.65 63.3404C228.86 30.2104 228.65 62.9804 228.65 62.9804C223.45 25.6304 224.65 63.9804 224.65 63.9804C216.72 33.6804 221.45 65.4704 221.45 65.4704L221.85 70.2404C203.18 49.1804 222.25 77.0004 222.25 77.0004L222.88 78.4504C223.79 95.3304 224.88 117.81 224.88 117.81L221.15 118.06C210.81 118.06 192.15 118.66 178.15 121.82C179.55 130.93 180.71 140.12 180.5 149.23C188.888 148.854 197.24 147.909 205.5 146.4C231.27 142.07 247.02 141.4 250.03 134.29C253.88 132.06 241.11 94.4504 237.02 66.2404Z" fill="#EA8D83"/>
<path opacity="0.5" d="M198.55 118.92C191.693 119.406 184.877 120.361 178.15 121.78C179.55 130.9 180.71 140.09 180.5 149.2C185.59 149.02 190.668 148.569 195.71 147.85C199.02 138.74 199.69 128.56 198.55 118.92Z" fill="#D36A62"/>
<path d="M117.02 127.45C117.02 127.45 130.68 149.26 156.75 146.13C176.62 143.74 169.47 121.49 169.47 121.49C169.47 121.49 180.99 119.11 182.19 120.3C188.19 126.3 203.25 165.2 194.11 179.11C184.97 193.02 182.98 218.85 182.98 218.85L132.51 214.45C132.51 214.45 92.35 171.55 91.98 147.3C91.59 120.68 117.02 127.45 117.02 127.45Z" fill="#FFDD88"/>
<path d="M155.79 174.38C141.64 173.19 124.86 172.68 112.62 164.64C106.44 160.59 102.12 155.18 98.17 149.03C96.36 146.21 94.56 143.3 92.52 140.62C92.1138 142.823 91.9328 145.061 91.98 147.3C92.35 171.55 132.51 214.45 132.51 214.45L182.98 218.83C182.98 218.83 184.98 193 194.11 179.09C195.594 176.692 196.552 174.006 196.92 171.21C183.56 175.45 167.8 175.39 155.79 174.38Z" fill="#F9CB64"/>
<path d="M163.02 207.93C163.02 207.93 179.84 212.39 160.76 204.41C149.95 199.88 112.49 197.12 112.49 197.12L112.95 193.4C116.09 176.4 122.12 136.31 110.26 131.01C95.16 124.25 88.8 133.39 88.01 172.73C87.31 207.44 83.52 223.59 101.2 219.26C118.82 218.39 154.98 213.2 154.98 213.2C154.98 213.2 169.56 229.29 157.49 211.45C157.49 211.45 175.09 228.54 160.76 210.45C160.76 210.45 180.11 222 163.02 207.93Z" fill="#EA8D83"/>
<path d="M122.94 77.6996C122.94 77.6996 117.88 53.6196 136.09 45.9296C154.3 38.2396 172.09 49.3696 176.35 71.8296C180.61 94.2896 171.92 116.36 156.35 114.92C127.79 112.29 122.94 77.6996 122.94 77.6996Z" fill="#EA8D83"/>
<path d="M190.11 46.9399C194.16 40.0599 197.8 43.0999 197.8 43.0999C197.8 43.0999 196.18 38.6499 188.9 41.6799C187.171 42.4174 185.34 42.8861 183.47 43.0699C189.88 40.6199 196.26 35.4899 194.76 28.5299C194.76 28.5299 192.54 35.4099 188.69 35.2099C184.84 35.0099 173.69 19.8299 165.02 27.7199C156.35 35.6099 150.45 19.4299 134.67 30.9599C131.739 33.0049 129.256 35.6246 127.37 38.6599L127.48 38.3899C128.163 37.0131 128.994 35.7153 129.96 34.5199C130.226 34.1721 130.51 33.8383 130.81 33.5199C131.11 33.1999 131.39 32.8599 131.72 32.5199C132.4 31.9099 133.04 31.1999 133.8 30.6299L134.93 29.7099C135.31 29.3999 135.76 29.1099 136.18 28.7999L137.44 27.9099C137.88 27.6399 138.31 27.3399 138.76 27.0899C139.661 26.5701 140.601 26.1188 141.57 25.7399C142.541 25.382 143.546 25.1273 144.57 24.9799C146.69 24.7712 148.83 25.0588 150.82 25.8199C151.91 26.1599 153.02 26.5599 154.25 26.8199C155.534 27.1466 156.871 27.2079 158.18 26.9999C159.483 26.7616 160.716 26.2355 161.79 25.4599C162.07 25.2799 162.25 25.1099 162.48 24.9399L162.84 24.6699L163.15 24.4399C163.57 24.1599 163.95 23.8099 164.39 23.5699C166.03 22.548 167.893 21.9374 169.82 21.7899C171.589 21.6725 173.364 21.8585 175.07 22.3399C176.547 22.7634 177.968 23.3644 179.3 24.1299C179.89 24.4799 180.44 24.8199 180.93 25.1799C181.384 25.4896 181.821 25.8234 182.24 26.1799C182.63 26.4899 182.93 26.8199 183.24 27.0899C183.489 27.3114 183.719 27.5521 183.93 27.8099L184.47 28.4499L184.05 27.7299C183.879 27.4372 183.689 27.1565 183.48 26.8899C183.221 26.5084 182.934 26.1474 182.62 25.8099C182.244 25.3775 181.843 24.9668 181.42 24.5799C180.929 24.1126 180.408 23.6783 179.86 23.2799C178.546 22.2966 177.102 21.4991 175.57 20.9099C173.715 20.1892 171.74 19.8229 169.75 19.8299C167.471 19.849 165.234 20.4477 163.25 21.5699C162.72 21.8399 162.25 22.2099 161.76 22.5699L161.39 22.8299L161.07 23.0499C160.85 23.1999 160.6 23.3999 160.41 23.5099C159.607 24.0116 158.713 24.3513 157.78 24.5099C155.94 24.8499 153.89 24.0499 151.64 23.3099C149.277 22.4545 146.747 22.1601 144.25 22.4499C141.868 22.8531 139.598 23.7563 137.59 25.0999C137.1 25.3999 136.66 25.7399 136.19 26.0499C135.72 26.3599 135.33 26.7199 134.91 27.0499C134.49 27.3799 134.1 27.6899 133.7 28.0499L132.54 29.1299C131.808 29.8155 131.114 30.5399 130.46 31.2999C130.14 31.6599 129.87 32.0599 129.58 32.4299C129.295 32.7895 129.028 33.1633 128.78 33.5499C127.857 34.9106 127.118 36.3865 126.58 37.9399C126.2 39.076 125.965 40.2552 125.88 41.4499C125.394 40.8061 124.856 40.2041 124.27 39.6499C123.783 39.1973 123.265 38.7796 122.72 38.3999L121.87 37.8799L120.99 37.4299C120.394 37.1494 119.78 36.9121 119.15 36.7199C118.526 36.5311 117.892 36.3808 117.25 36.2699C116.6 36.1999 115.96 36.0999 115.31 36.0899C114.67 36.0549 114.029 36.0549 113.39 36.0899C112.75 36.0899 112.11 36.2199 111.48 36.2799C110.85 36.3399 110.23 36.4999 109.61 36.6299C108.99 36.7599 108.37 36.9199 107.76 37.0899L105.96 37.6799L107.82 37.3199L109.68 37.0399L111.54 36.8699C112.16 36.8699 112.78 36.8199 113.4 36.8699C114.015 36.8747 114.629 36.9148 115.24 36.9899C115.848 37.0591 116.452 37.1592 117.05 37.2899C117.639 37.4281 118.22 37.5984 118.79 37.7999C119.356 38.0011 119.907 38.2417 120.44 38.5199L121.22 38.9699L121.95 39.4799C122.426 39.8394 122.88 40.2268 123.31 40.6399L123.58 40.9399C123.174 40.7366 122.753 40.5661 122.32 40.4299C121.98 40.3399 121.64 40.2399 121.32 40.1799L120.32 40.0399C119.654 39.9967 118.986 39.9967 118.32 40.0399C117.649 40.0778 116.982 40.1546 116.32 40.2699C115.65 40.3599 115.02 40.5399 114.37 40.6799C113.72 40.8199 113.09 41.0299 112.47 41.2599L111.54 41.6099L110.63 42.0199C110.031 42.3136 109.453 42.6477 108.9 43.0199C108.342 43.3751 107.808 43.7659 107.3 44.1899C106.276 45.0095 105.432 46.0306 104.82 47.1899C105.18 46.6542 105.603 46.164 106.08 45.7299C106.507 45.2653 106.972 44.8372 107.47 44.4499C107.73 44.2616 108 44.088 108.28 43.9299C108.55 43.7599 108.83 43.5999 109.11 43.4599C109.674 43.1687 110.255 42.9115 110.85 42.6899L111.74 42.3599L112.66 42.0899C113.26 41.8999 113.89 41.7899 114.51 41.6499C115.13 41.5099 115.77 41.4099 116.38 41.3699L117.38 41.2699C117.7 41.2699 118 41.2699 118.31 41.2699C118.924 41.2566 119.539 41.2834 120.15 41.3499L120.57 41.4199C118.363 41.2803 116.161 41.7641 114.216 42.8163C112.271 43.8684 110.661 45.4464 109.57 47.3699C99.6499 63.1499 111.79 73.0599 116.85 79.1299C116.85 79.1299 120.49 73.4699 123.93 79.9399C127.37 86.4099 123.93 89.2499 132.63 90.4599C132.63 90.4599 127.98 89.8599 129.19 83.7899C130.4 77.7199 129.19 73.2599 126.76 70.8399C126.76 70.8399 130.58 63.4799 129.95 56.5399C129.988 56.6181 130.021 56.6982 130.05 56.7799C130.526 57.8019 131.11 58.7706 131.79 59.6699C132.609 60.7688 133.627 61.7049 134.79 62.4299C135.449 62.8164 136.15 63.1251 136.88 63.3499C137.647 63.5764 138.441 63.6976 139.24 63.7099C140.063 63.7232 140.884 63.646 141.69 63.4799C142.51 63.3099 143.24 63.0699 144 62.8799C145.501 62.4818 147.033 62.2108 148.58 62.0699C150.072 61.9021 151.583 62.0416 153.02 62.4799C154.393 62.9749 155.656 63.7323 156.74 64.7099C157.3 65.1899 157.84 65.7099 158.38 66.1599C158.919 66.706 159.54 67.1649 160.22 67.5199C161.508 68.1112 162.948 68.286 164.34 68.0199C165.459 67.8307 166.549 67.4945 167.58 67.0199C168.363 66.671 169.121 66.2701 169.85 65.8199C170.489 65.4407 171.101 65.0163 171.68 64.5499C171.031 64.9171 170.363 65.2509 169.68 65.5499C169.04 65.8399 168.25 66.1599 167.33 66.4699C166.318 66.8059 165.271 67.0241 164.21 67.1199C163.012 67.2521 161.802 67.0296 160.73 66.4799C160.174 66.136 159.672 65.7113 159.24 65.2199C158.73 64.6999 158.24 64.2199 157.62 63.6599C156.433 62.5116 155.024 61.6168 153.48 61.0299C152.417 60.6669 151.303 60.4746 150.18 60.4599C157.82 59.0699 156.55 62.2899 161.33 65.3599C166.44 68.6499 172.46 58.4799 178.33 64.3599C184.2 70.2399 189.25 67.7999 192.69 62.5399C192.69 62.5399 186.62 66.5899 183.59 62.3399C180.56 58.0899 181.16 54.6499 174.89 55.2599C174.89 55.2599 181.76 53.4399 185.61 57.0799C189.46 60.7199 191.07 61.0799 193.9 56.4699C193.468 56.8842 192.952 57.2002 192.387 57.3963C191.821 57.5924 191.22 57.664 190.625 57.6061C190.029 57.5481 189.453 57.3621 188.936 57.0607C188.419 56.7593 187.974 56.3497 187.63 55.8599C186.13 54.0599 185.32 51.9699 183.86 50.4299C185.119 50.4645 186.365 50.1585 187.465 49.5443C188.565 48.93 189.479 48.0303 190.11 46.9399ZM129.7 54.7099C129.7 54.7799 129.75 54.8599 129.78 54.9399L129.72 54.8099C129.72 54.8099 129.71 54.7399 129.7 54.7099Z" fill="#01334C"/>
<path d="M168.55 66.0404C168.19 66.1804 167.8 66.3204 167.38 66.4604C166.368 66.7964 165.321 67.0145 164.26 67.1104C163.062 67.2426 161.852 67.02 160.78 66.4704C160.224 66.1264 159.722 65.7018 159.29 65.2104C158.78 64.6904 158.29 64.2104 157.67 63.6504C156.483 62.5021 155.074 61.6073 153.53 61.0204C152.467 60.6574 151.353 60.465 150.23 60.4504C157.87 59.0604 156.6 62.2804 161.38 65.3504C162.088 65.7603 162.886 65.9902 163.704 66.0198C164.521 66.0495 165.334 65.878 166.07 65.5204C163.713 64.9654 161.473 64.0007 159.45 62.6704C157.12 61.1104 155 58.4004 154.93 55.5104C154.86 52.6204 155.45 49.8604 151.84 49.1304C150.579 48.9504 149.384 48.4514 148.37 47.6804C141.98 42.5004 140.78 35.1804 141.16 27.4704C138.83 28.2927 136.641 29.4699 134.67 30.9604C131.739 33.0053 129.256 35.6251 127.37 38.6604L127.48 38.3904C128.163 37.0135 128.994 35.7158 129.96 34.5204C130.226 34.1726 130.51 33.8388 130.81 33.5204C131.11 33.2004 131.39 32.8604 131.72 32.5204C132.4 31.9104 133.04 31.2004 133.8 30.6304L134.93 29.7104C135.31 29.4004 135.76 29.1104 136.18 28.8004L137.44 27.9104C137.88 27.6404 138.31 27.3404 138.76 27.0904C139.563 26.6332 140.394 26.2289 141.25 25.8804C141.32 24.9704 141.4 24.0604 141.5 23.1504C140.118 23.6726 138.797 24.3432 137.56 25.1504C137.07 25.4504 136.63 25.7904 136.16 26.1004C135.69 26.4104 135.3 26.7704 134.88 27.1004C134.46 27.4304 134.07 27.7404 133.67 28.1004L132.51 29.1804C131.778 29.866 131.084 30.5903 130.43 31.3504C130.11 31.7104 129.84 32.1104 129.55 32.4804C129.265 32.84 128.998 33.2138 128.75 33.6004C127.827 34.961 127.088 36.437 126.55 37.9904C126.185 39.1117 125.96 40.2738 125.88 41.4504C125.394 40.8066 124.856 40.2045 124.27 39.6504C123.783 39.1978 123.265 38.7801 122.72 38.4004L121.87 37.8804L120.99 37.4304C120.394 37.1498 119.78 36.9125 119.15 36.7204C118.526 36.5315 117.892 36.3812 117.25 36.2704C116.6 36.2004 115.96 36.1004 115.31 36.0904C114.67 36.0554 114.029 36.0554 113.39 36.0904C112.75 36.0904 112.11 36.2204 111.48 36.2804C110.85 36.3404 110.23 36.5004 109.61 36.6304C108.99 36.7604 108.37 36.9204 107.76 37.0904L105.96 37.6804L107.82 37.3204L109.68 37.0404L111.54 36.8704C112.16 36.8704 112.78 36.8204 113.4 36.8704C114.015 36.8752 114.629 36.9152 115.24 36.9904C115.848 37.0596 116.452 37.1597 117.05 37.2904C117.639 37.4286 118.22 37.5988 118.79 37.8004C119.356 38.0015 119.907 38.2421 120.44 38.5204L121.22 38.9704L121.95 39.4804C122.426 39.8399 122.88 40.2272 123.31 40.6404L123.58 40.9404C123.174 40.7371 122.753 40.5666 122.32 40.4304C121.98 40.3404 121.64 40.2404 121.32 40.1804L120.32 40.0404C119.654 39.9971 118.986 39.9971 118.32 40.0404C117.649 40.0782 116.982 40.155 116.32 40.2704C115.65 40.3604 115.02 40.5404 114.37 40.6804C113.72 40.8204 113.09 41.0304 112.47 41.2604L111.54 41.6104L110.63 42.0204C110.031 42.3141 109.453 42.6482 108.9 43.0204C108.342 43.3756 107.808 43.7663 107.3 44.1904C106.276 45.0099 105.432 46.031 104.82 47.1904C105.18 46.6547 105.603 46.1645 106.08 45.7304C106.507 45.2658 106.972 44.8376 107.47 44.4504C107.73 44.262 108 44.0884 108.28 43.9304C108.55 43.7604 108.83 43.6004 109.11 43.4604C109.674 43.1691 110.255 42.912 110.85 42.6904L111.74 42.3604L112.66 42.0904C113.26 41.9004 113.89 41.7904 114.51 41.6504C115.13 41.5104 115.77 41.4104 116.38 41.3704L117.38 41.2704C117.7 41.2704 118 41.2704 118.31 41.2704C118.924 41.2571 119.539 41.2838 120.15 41.3504L120.57 41.4204C118.363 41.2807 116.161 41.7646 114.216 42.8167C112.271 43.8688 110.661 45.4468 109.57 47.3704C99.6499 63.1504 111.79 73.0604 116.85 79.1304C116.85 79.1304 120.49 73.4704 123.93 79.9404C127.37 86.4104 123.93 89.2504 132.63 90.4604C132.63 90.4604 127.98 89.8604 129.19 83.7904C130.4 77.7204 129.19 73.2604 126.76 70.8404C126.76 70.8404 130.58 63.4804 129.95 56.5404C129.988 56.6185 130.021 56.6986 130.05 56.7804C130.526 57.8023 131.11 58.771 131.79 59.6704C132.609 60.7693 133.627 61.7053 134.79 62.4304C135.449 62.8168 136.15 63.1255 136.88 63.3504C137.647 63.5769 138.441 63.698 139.24 63.7104C140.063 63.7236 140.884 63.6465 141.69 63.4804C142.51 63.3104 143.24 63.0704 144 62.8804C145.501 62.4822 147.033 62.2113 148.58 62.0704C150.072 61.9025 151.583 62.042 153.02 62.4804C154.393 62.9754 155.656 63.7328 156.74 64.7104C157.3 65.1904 157.84 65.7104 158.38 66.1604C158.919 66.7065 159.54 67.1653 160.22 67.5204C161.508 68.1117 162.948 68.2864 164.34 68.0204C165.459 67.8312 166.549 67.4949 167.58 67.0204C168.163 66.7663 168.73 66.4791 169.28 66.1604L168.55 66.0404Z" fill="#002838"/>
<path d="M129.7 54.71C129.7 54.78 129.75 54.8599 129.78 54.9399L129.72 54.8099C129.72 54.8099 129.71 54.74 129.7 54.71Z" fill="#002838"/>
<path d="M157.33 70.8203C158.39 73.9103 159.33 77.0003 160.42 80.0203C160.71 80.7703 160.97 81.5203 161.27 82.2503C161.57 82.9803 161.89 83.7103 162.27 84.4103C162.61 85.1031 162.997 85.7714 163.43 86.4103C163.636 86.7061 163.867 86.9838 164.12 87.2403C164.352 87.4731 164.618 87.6687 164.91 87.8203L166.08 88.4903L164.98 89.0203C162.69 90.1203 160.39 91.1903 157.98 92.0803C159.98 90.5403 162.17 89.1803 164.34 87.8503L164.4 89.0603C163.953 88.8742 163.54 88.6139 163.18 88.2903C162.835 87.9879 162.521 87.653 162.24 87.2903C161.969 86.9514 161.721 86.5938 161.5 86.2203C161.27 85.8503 161.07 85.4803 160.88 85.1103C160.502 84.3674 160.168 83.6028 159.88 82.8203C159.59 82.0403 159.31 81.2603 159.08 80.4703C158.614 78.8961 158.237 77.2969 157.95 75.6803C157.638 74.0754 157.431 72.452 157.33 70.8203Z" fill="#D36A62"/>
<path d="M164.95 96.6797C164.788 96.8951 164.611 97.099 164.42 97.2897C163.932 97.8057 163.385 98.2622 162.79 98.6497C162.397 98.9233 161.986 99.1705 161.56 99.3897C161.082 99.6366 160.587 99.8504 160.08 100.03C159.536 100.23 158.978 100.387 158.41 100.5C157.823 100.62 157.228 100.7 156.63 100.74C156.031 100.775 155.43 100.775 154.83 100.74C154.24 100.74 153.68 100.54 153.12 100.46C152.601 100.325 152.091 100.161 151.59 99.9697C151.134 99.814 150.696 99.613 150.28 99.3697C149.927 99.2036 149.592 99.0026 149.28 98.7697C148.98 98.5697 148.74 98.3697 148.53 98.2197C148.13 97.9097 147.91 97.7197 147.91 97.7197C147.91 97.7197 148.2 97.7897 148.68 97.9397C148.92 98.0197 149.21 98.0997 149.54 98.2197C149.904 98.3403 150.275 98.4405 150.65 98.5197C151.06 98.6097 151.48 98.7697 151.95 98.8297C152.42 98.8897 152.9 99.0097 153.41 99.0797C153.92 99.1497 154.41 99.1797 154.97 99.2097C155.503 99.2396 156.037 99.2396 156.57 99.2097C157.107 99.197 157.642 99.1435 158.17 99.0497C158.7 98.9797 159.17 98.8697 159.71 98.7597C160.25 98.6497 160.71 98.4997 161.13 98.3597C161.55 98.2197 162.01 98.0697 162.39 97.9097C163.17 97.6097 163.82 97.3197 164.27 97.0997L164.95 96.6797Z" fill="#D36A62"/>
<path d="M145.7 89.7301C151.565 89.7301 156.32 84.6127 156.32 78.3001C156.32 71.9875 151.565 66.8701 145.7 66.8701C139.835 66.8701 135.08 71.9875 135.08 78.3001C135.08 84.6127 139.835 89.7301 145.7 89.7301Z" fill="white"/>
<path d="M134.5 78.4501C134.57 83.3701 137.5 88.1301 142.41 89.5701C144.581 90.1762 146.884 90.1192 149.022 89.4064C151.16 88.6936 153.037 87.3576 154.41 85.5701C155.919 83.5719 156.781 81.1609 156.883 78.6592C156.985 76.1575 156.321 73.6843 154.98 71.5701C153.758 69.6603 151.969 68.1816 149.863 67.3421C147.757 66.5026 145.44 66.3445 143.24 66.8901C140.71 67.5798 138.48 69.0883 136.899 71.1799C135.318 73.2715 134.474 75.8281 134.5 78.4501C134.5 78.7301 135.65 78.5401 135.65 78.1401C135.71 73.7601 138.14 69.2801 142.39 67.7001C146.64 66.1201 151.23 68.1201 153.7 71.7001C154.892 73.4823 155.589 75.5495 155.719 77.6899C155.849 79.8302 155.408 81.9666 154.44 83.8801C153.478 85.9286 151.82 87.5695 149.762 88.5107C147.704 89.4519 145.379 89.6324 143.2 89.0201C138.5 87.5701 135.72 82.8901 135.65 78.1401C135.65 77.8601 134.5 78.0601 134.5 78.4501Z" fill="#00D7CF"/>
<path d="M156.32 78.3001C156.32 78.3001 158.14 73.2401 160.77 77.7001" stroke="#00D7CF" stroke-width="1.59" stroke-miterlimit="10"/>
<path d="M122.33 79.51L135.08 80.32" stroke="#00D7CF" stroke-width="1.59" stroke-miterlimit="10"/>
<path d="M185.05 74.45L177.24 75.54" stroke="#00D7CF" stroke-width="1.59" stroke-miterlimit="10"/>
<path d="M171.19 87.3004C177.055 87.3004 181.81 82.183 181.81 75.8704C181.81 69.5578 177.055 64.4404 171.19 64.4404C165.325 64.4404 160.57 69.5578 160.57 75.8704C160.57 82.183 165.325 87.3004 171.19 87.3004Z" fill="white"/>
<path d="M160 76.03C160.06 80.96 163 85.71 167.91 87.16C170.081 87.7675 172.384 87.7113 174.523 86.9984C176.661 86.2855 178.538 84.9486 179.91 83.16C181.386 81.19 182.241 78.8241 182.363 76.3655C182.486 73.9068 181.872 71.4674 180.6 69.36C179.4 67.3867 177.602 65.8469 175.468 64.9641C173.334 64.0812 170.974 63.9012 168.73 64.45C166.204 65.1411 163.977 66.649 162.398 68.7383C160.819 70.8277 159.976 73.3811 160 76C160 76.3 161.14 76.1 161.15 75.69C161.15 71.31 163.64 66.85 167.89 65.26C172.14 63.67 176.73 65.67 179.19 69.26C180.383 71.0403 181.08 73.1059 181.21 75.2447C181.34 77.3835 180.898 79.5184 179.93 81.43C178.965 83.4754 177.306 85.1128 175.249 86.0519C173.191 86.991 170.868 87.171 168.69 86.56C164 85.1 161.21 80.45 161.15 75.69C161.14 75.45 159.99 75.62 160 76.03Z" fill="#00D7CF"/>
<path d="M153.28 81.2797C153.44 83.0797 153.01 84.5897 152.28 84.6497C151.55 84.7097 150.89 83.3097 150.72 81.4997C150.55 79.6897 150.99 78.1897 151.72 78.1197C152.45 78.0497 153.11 79.4497 153.28 81.2797Z" fill="#01334C"/>
<path d="M173.77 79.1996C173.93 80.9996 173.5 82.5196 172.77 82.5796C172.04 82.6396 171.38 81.2296 171.22 79.4296C171.06 77.6296 171.49 76.1096 172.22 76.0496C172.95 75.9896 173.61 77.4496 173.77 79.1996Z" fill="#01334C"/>
<path d="M124.88 80.1205C124.88 80.1205 118.26 70.8705 116.14 80.9305C112.84 96.5105 133.91 96.1305 127.41 90.0405C123.93 86.8005 124.88 80.1205 124.88 80.1205Z" fill="#EA8D83"/>
<path d="M117.27 83.7696C117.371 83.1208 117.549 82.4864 117.8 81.8796C118.038 81.2291 118.405 80.6337 118.88 80.1296C119.156 79.8466 119.5 79.6399 119.88 79.5296C120.097 79.4646 120.325 79.4442 120.55 79.4696C120.769 79.4801 120.983 79.5345 121.18 79.6296C121.552 79.7889 121.891 80.0161 122.18 80.2996C122.417 80.5379 122.637 80.7917 122.84 81.0596C123.064 81.3429 123.265 81.6439 123.44 81.9596C123.61 82.2696 123.74 82.5896 123.88 82.8996C124.133 83.5322 124.333 84.1843 124.48 84.8496C124.609 85.5108 124.702 86.1784 124.76 86.8496C124.81 87.5153 124.81 88.1838 124.76 88.8496V89.1996L124.5 89.3796C124.29 89.5296 124.06 89.7196 123.85 89.8896C123.637 90.0659 123.434 90.2528 123.24 90.4496C122.898 90.7486 122.651 91.1415 122.53 91.5796C122.53 91.6996 122.61 91.8396 122.81 91.9896C123.034 92.1355 123.281 92.2436 123.54 92.3096C124.115 92.468 124.699 92.5882 125.29 92.6696C124.686 92.8005 124.068 92.8609 123.45 92.8496C123.109 92.8388 122.771 92.7747 122.45 92.6596C122.261 92.5922 122.09 92.4828 121.95 92.3396C121.779 92.1826 121.66 91.9765 121.61 91.7496C121.529 91.3429 121.585 90.9208 121.77 90.5496C121.916 90.242 122.094 89.9504 122.3 89.6796C122.497 89.4186 122.707 89.1683 122.93 88.9296C123.151 88.6971 123.385 88.4768 123.63 88.2696L123.36 88.7996C123.36 88.2196 123.28 87.5896 123.22 86.9796C123.15 86.3783 123.05 85.7808 122.92 85.1896C122.798 84.602 122.634 84.0239 122.43 83.4596C122.232 82.9274 121.984 82.4151 121.69 81.9296C121.525 81.6727 121.341 81.4287 121.14 81.1996C120.986 81.038 120.815 80.8938 120.63 80.7696C120.548 80.7065 120.452 80.6653 120.35 80.6496C120.26 80.5996 120.17 80.6496 120.07 80.6496C119.836 80.6796 119.614 80.7654 119.42 80.8996C118.948 81.2546 118.536 81.6835 118.2 82.1696C117.864 82.6871 117.553 83.2211 117.27 83.7696Z" fill="#D36A62"/>
<path d="M223.19 218.18C223.19 218.802 222.944 219.398 222.505 219.838C222.067 220.279 221.471 220.527 220.85 220.53H131.78C131.472 220.53 131.167 220.469 130.882 220.351C130.598 220.233 130.339 220.06 130.122 219.841C129.904 219.623 129.732 219.364 129.615 219.079C129.498 218.794 129.439 218.488 129.44 218.18C129.44 217.559 129.686 216.964 130.125 216.525C130.564 216.087 131.159 215.84 131.78 215.84H220.88C221.501 215.84 222.096 216.087 222.535 216.525C222.973 216.964 223.22 217.559 223.22 218.18H223.19Z" fill="#002838"/>
<path d="M263.56 216.62C263.56 217.657 263.148 218.652 262.415 219.385C261.682 220.118 260.687 220.53 259.65 220.53H182.3C181.265 220.527 180.273 220.114 179.542 219.381C178.811 218.648 178.4 217.655 178.4 216.62L181.4 164.27C181.403 163.235 181.816 162.243 182.549 161.512C183.282 160.781 184.275 160.37 185.31 160.37H262.65C263.685 160.37 264.678 160.781 265.411 161.512C266.144 162.243 266.557 163.235 266.56 164.27L263.56 216.62Z" fill="#01334C"/>
<path d="M184.1 216.62L187.1 164.27C187.103 163.235 187.516 162.243 188.249 161.512C188.982 160.781 189.975 160.37 191.01 160.37H185.31C184.275 160.37 183.282 160.781 182.549 161.512C181.816 162.243 181.403 163.235 181.4 164.27L178.4 216.62C178.4 217.655 178.811 218.648 179.542 219.381C180.273 220.114 181.265 220.527 182.3 220.53H188.01C187.497 220.53 186.988 220.429 186.514 220.232C186.039 220.036 185.608 219.748 185.245 219.385C184.882 219.022 184.594 218.591 184.398 218.116C184.201 217.642 184.1 217.134 184.1 216.62Z" fill="#002838"/>
</g>
</g>
<defs>
<clipPath id="clip0_111_2031">
<path d="M0 10C0 4.47715 4.47715 0 10 0H342C347.523 0 352 4.47715 352 10V218H0V10Z" fill="white"/>
</clipPath>
<clipPath id="clip1_111_2031">
<rect width="221.15" height="202.52" fill="white" transform="translate(61 18)"/>
</clipPath>
</defs>
</svg>
