<svg width="20" height="22" viewBox="0 0 20 22" fill="none" xmlns="http://www.w3.org/2000/svg">
<g clip-path="url(#clip0_155_8507)">
<path d="M19.9334 18.4632C17.8889 20.5116 15.3319 21.7932 12.2376 21.9739C8.70939 22.1801 5.62005 21.1919 3.12323 18.7105C1.3938 16.9926 0.433159 14.8988 0.115305 12.5211C-0.160782 10.4493 0.0445117 8.42692 0.887638 6.50008C2.39479 3.058 5.10115 0.997843 8.84814 0.261188C11.5821 -0.276185 14.2432 -0.00131353 16.7598 1.24729C17.9909 1.85888 19.0506 2.68418 19.9999 3.62836L16.454 7.05806L15.7461 6.46709C13.354 4.47977 9.69622 4.34096 7.27161 6.17848C5.70217 7.36798 5.04239 9.00072 5.00629 10.8925C4.95319 13.5595 6.43557 15.8278 8.94371 16.7246C11.4044 17.6049 13.6966 17.2249 15.7192 15.5516C15.9613 15.3516 16.1963 15.1434 16.4759 14.9029L19.9334 18.4632Z" fill="#0697D5"/>
<path d="M11.1504 14.6588C10.1503 14.6526 9.19357 14.2616 8.49016 13.5714C7.78676 12.8813 7.39414 11.9484 7.39847 10.9776C7.41971 8.92914 9.09747 7.33557 11.2262 7.33557C13.2713 7.33557 14.9781 9.00885 14.9732 10.9982C14.9712 11.4826 14.8706 11.9619 14.6772 12.4085C14.4838 12.855 14.2013 13.26 13.846 13.6002C13.4908 13.9404 13.0697 14.2091 12.6071 14.3908C12.1445 14.5724 11.6494 14.6635 11.1504 14.6588Z" fill="#0697D5"/>
</g>
<defs>
<clipPath id="clip0_155_8507">
<rect width="20" height="22" fill="white"/>
</clipPath>
</defs>
</svg>
