<svg width="22" height="20" viewBox="0 0 22 20" fill="none" xmlns="http://www.w3.org/2000/svg">
<path fill-rule="evenodd" clip-rule="evenodd" d="M7.7815 3.2615H20.6428L13.0039 8.49829L7.80775 4.93616C8.00558 4.40643 8.00725 3.80766 7.7815 3.2615ZM4.41784 6.30096L6.2925 5.15951C6.84883 4.82078 7.0335 4.09806 6.70779 3.53394L5.01535 0.602544C4.84173 0.301775 4.57893 0.10829 4.24019 0.0318198C3.90142 -0.044696 3.58105 0.0170686 3.29499 0.214037L0.208476 2.3391C-1.26071 7.51575 5.34151 18.723 10.405 20L13.7886 18.3895C14.1022 18.2403 14.3159 17.9937 14.4191 17.6621C14.5222 17.3305 14.486 17.0062 14.3124 16.7054L12.6199 13.774C12.2943 13.2099 11.576 13.0084 11.0045 13.3209L9.07865 14.3736C7.17413 12.6798 4.9325 8.79725 4.41784 6.30096ZM21.5769 3.93499L13.3093 9.60277C13.1158 9.7348 12.8673 9.72448 12.6875 9.5953L7.19883 5.83263C7.09314 5.92791 6.97879 6.0131 6.85725 6.08711L5.67155 6.80901C6.29449 8.81942 7.83589 11.4892 9.26548 13.0338L10.4835 12.368C11.5719 11.773 12.9402 12.1568 13.5603 13.231L14.6099 15.0489H20.7234C21.2061 15.0489 21.601 14.654 21.601 14.1713V4.13915C21.6011 4.07038 21.593 4.00185 21.5769 3.93499Z" fill="#1CB2E8"/>
</svg>
