<svg width="344" height="218" viewBox="0 0 344 218" fill="none" xmlns="http://www.w3.org/2000/svg">
<path d="M0 10C0 4.47715 4.47715 0 10 0H334C339.523 0 344 4.47715 344 10V218H0V10Z" fill="#EAF6FF"/>
<g clip-path="url(#clip0_111_1988)">
<path d="M239.34 72.38L220.69 71.58L191.23 70.32L184.44 70.02L184.83 70.37V34.04L184.17 34.49L202.67 33.49L232.02 31.94L238.81 31.59L238.28 31.23L238.51 67.65V72.8C238.51 73.38 239.7 73.19 239.7 72.7L239.5 36.32V31.17C239.5 30.88 239.22 30.81 238.97 30.82L220.48 31.82L191.08 33.32L184.29 33.68C184.08 33.68 183.64 33.86 183.64 34.13V70.48C183.645 70.5764 183.688 70.6669 183.759 70.7323C183.83 70.7977 183.924 70.8327 184.02 70.83L202.63 71.63L232.14 72.89L238.92 73.18C239.46 73.2 240.14 72.41 239.34 72.38Z" fill="#0B4D8E"/>
<path d="M236.49 69.3201L219.69 68.5401L192.86 67.3801L186.69 67.1101L187.04 67.4301V40.6301V36.8301L186.46 37.2401L203.41 36.3201L230.34 34.8401L236.5 34.5001L236.02 34.1901L235.8 65.3201V69.7101C235.8 70.2301 236.86 70.0501 236.86 69.6101L237.08 38.5001V34.1101C237.08 33.8501 236.82 33.7901 236.6 33.8001L219.69 34.7001L192.76 36.1801L186.6 36.5201C186.41 36.5201 186.02 36.6801 186.02 36.9301L185.96 63.7301V67.5201C185.961 67.5639 185.971 67.607 185.99 67.6468C186.008 67.6865 186.035 67.722 186.068 67.7511C186.101 67.7801 186.139 67.8022 186.181 67.8157C186.222 67.8293 186.266 67.8342 186.31 67.8301L203.13 68.5601L229.95 69.7201L236.12 69.9901C236.6 70.0101 237.2 69.3201 236.49 69.3201Z" fill="#0B4D8E"/>
<path opacity="0.5" d="M233.08 65.9401L191.53 64.4201V40.9701L232.88 39.1201L233.08 65.9401Z" fill="#0B4D8E"/>
<path d="M220.54 87.3205L235.16 87.7205L258.37 88.3705L263.78 88.5205L263.45 88.2105V124.79L264.15 124.4L249.47 124.16L226.2 123.79L220.82 123.7L221.15 124.01L221.22 91.5105V86.9205C221.22 86.4205 220.22 86.5905 220.22 87.0105L220.15 119.51V124.1C220.151 124.142 220.161 124.183 220.178 124.221C220.196 124.259 220.221 124.292 220.251 124.32C220.282 124.348 220.318 124.37 220.358 124.384C220.397 124.397 220.438 124.403 220.48 124.4L235.16 124.64L258.43 125.01L263.81 125.1C264.02 125.1 264.51 125 264.51 124.7V88.1105C264.509 88.0689 264.499 88.0279 264.482 87.9901C264.464 87.9523 264.439 87.9184 264.409 87.8904C264.378 87.8624 264.342 87.8409 264.302 87.8272C264.263 87.8134 264.222 87.8077 264.18 87.8105L249.55 87.4005L226.34 86.7605L220.93 86.6105C220.43 86.6005 219.85 87.3205 220.54 87.3205Z" fill="#0B4D8E"/>
<path d="M222.81 90.0196L256.24 90.9296L261.04 91.0596L260.75 90.7997V122.8L261.36 122.45L227.87 121.92L223.06 121.84L223.35 122.11L223.41 93.7197V89.7197C223.41 89.2697 222.51 89.4197 222.51 89.7997L222.44 118.18V122.18C222.441 122.216 222.45 122.253 222.465 122.286C222.48 122.32 222.502 122.35 222.529 122.375C222.556 122.4 222.588 122.419 222.622 122.432C222.657 122.445 222.693 122.451 222.73 122.45L256.22 122.98L261.03 123.05C261.21 123.05 261.64 122.97 261.64 122.71V90.7096C261.64 90.6724 261.633 90.6356 261.618 90.6015C261.603 90.5674 261.581 90.5367 261.554 90.5113C261.527 90.4859 261.495 90.4665 261.459 90.4542C261.424 90.4418 261.387 90.4369 261.35 90.4397L227.93 89.5196L223.12 89.3896C222.69 89.3896 222.21 89.9996 222.81 90.0196Z" fill="#0B4D8E"/>
<path opacity="0.5" d="M227.28 94.8799L257.44 95.4899L256.68 118.34L227.13 117.83L227.28 94.8799Z" fill="#0B4D8E"/>
<path d="M93.21 136.04C93.21 136.04 89.95 122.57 107.5 116.45C125.05 110.33 123.82 113.18 118.5 75.2303L145.02 72.7803C145.02 72.7803 145.84 107.06 153.59 109.1C161.34 111.14 182.44 101.76 193.45 124.2C204.46 146.64 200.69 203.11 200.69 203.11L119.74 214.4C119.74 214.4 93.62 160.93 93.21 136.04Z" fill="#F8BC91"/>
<path d="M151.5 108.23L151.99 108.13C145.74 102.13 144.99 72.7803 144.99 72.7803L118.52 75.2303C120.11 86.6003 121.33 94.3003 121.79 99.6903C127.04 103.03 137.96 108.65 151.5 108.23Z" fill="#E8A06C"/>
<path d="M193.89 139.82C185.65 149.73 177.07 159.39 168.41 168.93C154.343 184.43 139.677 199.367 124.41 213.74L200.69 203.11C200.69 203.11 203.5 161.56 197.34 135.58C196.207 137.013 195.057 138.427 193.89 139.82Z" fill="#EA8D83"/>
<path d="M115.16 73.5199C115.16 73.5199 105.81 45.8399 119.69 34.2499C133.57 22.6599 154.98 15.7899 162.84 47.5899C168.21 69.3399 174.56 95.0999 157.35 102.21C140.14 109.32 121.52 92.5999 115.16 73.5199Z" fill="#F8BC91"/>
<path d="M160.3 26.1397C162.171 24.842 163.555 22.9566 164.233 20.7826C164.91 18.6087 164.843 16.2707 164.04 14.1397C162.271 15.3584 160.409 16.4351 158.47 17.3597C158.855 16.3298 159.051 15.2391 159.05 14.1397C159.05 14.1397 113.42 4.1397 111.17 33.5897C111.17 33.5897 102.69 32.5897 101.17 43.5897C99.65 54.5897 109.9 66.5297 109.9 66.5297C109.9 66.5297 111.42 65.0497 112.69 65.3197C112.69 65.3197 114.93 65.3197 116.93 71.5597C117.702 74.3065 118.705 76.9828 119.93 79.5597L123.67 78.5597L118.69 61.0597C118.69 61.0597 128.63 57.3197 122.69 42.3197C122.69 42.3197 159.35 47.0597 169.08 24.3197L160.3 26.1397Z" fill="#767676"/>
<path d="M141.5 41.9897C138.984 41.6375 136.507 41.0517 134.1 40.2397C125.41 37.2397 118.1 29.8697 116.17 21.1797C113.142 24.64 111.379 29.0263 111.17 33.6197C111.17 33.6197 102.69 32.6197 101.17 43.6197C99.65 54.6197 109.9 66.5597 109.9 66.5597C109.9 66.5597 111.42 65.0497 112.69 65.3197C112.69 65.3197 114.93 65.3197 116.93 71.5597C117.702 74.3065 118.705 76.9828 119.93 79.5597L123.67 78.5597L118.69 61.0597C118.69 61.0597 128.63 57.3197 122.69 42.3197C128.95 42.9789 135.267 42.8681 141.5 41.9897Z" fill="#4E4B4B"/>
<path d="M119.9 79.3205C119.9 79.3205 116 64.3205 112.37 64.5505C108.74 64.7805 106.13 67.9205 107.95 73.6405C109.77 79.3605 120.69 88.7005 119.9 79.3205Z" fill="#FFAFA4"/>
<path d="M148.34 58.05C149.07 59.59 149.8 61.11 150.56 62.59C150.76 62.96 150.93 63.34 151.13 63.71L151.72 64.8C152.13 65.51 152.52 66.24 152.98 66.92C153.21 67.26 153.39 67.63 153.64 67.92L154.33 68.92C154.58 69.23 154.84 69.54 155.08 69.92C155.327 70.2306 155.591 70.5277 155.87 70.81L156.27 71.25L156.72 71.64C156.999 71.911 157.3 72.1585 157.62 72.38C157.942 72.6082 158.275 72.8185 158.62 73.01C158.96 73.16 159.3 73.33 159.62 73.5L160.71 74.02L159.88 74.67C158.127 76.0976 156.302 77.4327 154.41 78.67C155.84 76.9233 157.362 75.2543 158.97 73.67L159.24 74.84C158.8 74.69 158.36 74.55 157.93 74.39C157.515 74.1919 157.111 73.9716 156.72 73.73C156.329 73.5023 155.961 73.2377 155.62 72.94L155.1 72.51L154.63 72.03C154.309 71.7164 154.008 71.3824 153.73 71.03C153.45 70.69 153.19 70.34 152.92 70.03L152.2 68.94C151.961 68.5783 151.741 68.2045 151.54 67.82C151.33 67.44 151.13 67.06 150.95 66.66C150.77 66.26 150.57 65.89 150.4 65.49C150.08 64.7 149.76 63.9 149.49 63.09C148.945 61.4511 148.56 59.7632 148.34 58.05Z" fill="#FF8973"/>
<path d="M142.69 87.0303L143.32 87.2503C143.72 87.3903 144.32 87.5803 144.95 87.7803L146.02 88.0803C146.39 88.1903 146.81 88.2503 147.21 88.3703C148.064 88.5482 148.93 88.6685 149.8 88.7303C150.235 88.78 150.672 88.8 151.11 88.7903C151.55 88.7903 151.98 88.7903 152.39 88.7903C152.8 88.7903 153.21 88.7003 153.6 88.6703C153.966 88.6321 154.33 88.5754 154.69 88.5003C155.03 88.4203 155.36 88.4003 155.63 88.3303C155.9 88.2603 156.15 88.2003 156.36 88.1503L157.02 88.0203C157.02 88.0203 156.85 88.1903 156.52 88.4603C156.35 88.6003 156.14 88.7703 155.9 88.9403C155.268 89.339 154.598 89.6739 153.9 89.9403C153.478 90.1024 153.043 90.2295 152.6 90.3203C152.123 90.4281 151.638 90.495 151.15 90.5203C150.647 90.5553 150.143 90.5553 149.64 90.5203C149.139 90.4827 148.641 90.4092 148.15 90.3003C147.679 90.1922 147.215 90.0552 146.76 89.8903C145.96 89.5957 145.198 89.2063 144.49 88.7303C143.798 88.2699 143.189 87.695 142.69 87.0303Z" fill="#FF8973"/>
<path d="M149.82 55.17C149.815 54.911 149.842 54.6523 149.9 54.4C150.023 53.7407 150.26 53.1079 150.6 52.53C150.823 52.1382 151.084 51.7697 151.38 51.43C151.717 51.0579 152.092 50.7227 152.5 50.43C152.723 50.264 152.957 50.1136 153.2 49.98C153.436 49.8186 153.691 49.6876 153.96 49.59C154.24 49.49 154.51 49.36 154.79 49.27L155.68 49.09C156.269 48.997 156.866 48.9735 157.46 49.02C158.027 49.0824 158.586 49.1997 159.13 49.37C159.607 49.56 160.071 49.7805 160.52 50.03C160.902 50.2724 161.26 50.5503 161.59 50.86C161.879 51.0948 162.132 51.3711 162.34 51.68C162.54 51.95 162.69 52.21 162.82 52.42C162.951 52.6373 163.065 52.8647 163.16 53.1C163.16 53.1 162.86 53.1 162.39 53.1L161.58 53.04C161.249 52.9937 160.915 52.9703 160.58 52.97C160.23 52.97 159.88 52.89 159.52 52.89C159.16 52.89 158.78 52.89 158.42 52.89C158.06 52.89 157.7 52.89 157.34 52.89C156.98 52.89 156.64 52.89 156.34 53.03L155.82 53.11L155.3 53.24C154.94 53.29 154.61 53.45 154.24 53.51C153.87 53.57 153.53 53.73 153.24 53.88C152.95 54.03 152.56 54.13 152.24 54.26L149.82 55.17Z" fill="#01334C"/>
<path d="M143.74 57.2199C143.74 57.2199 143.41 57.2199 142.88 57.0999L140.77 56.7799C138.944 56.4144 137.082 56.26 135.22 56.3199C134.782 56.35 134.347 56.4169 133.92 56.5199C133.71 56.5199 133.52 56.6399 133.31 56.6799L132.72 56.8999C131.956 57.2352 131.231 57.6545 130.56 58.1499C130.26 58.4099 129.92 58.6199 129.67 58.8599C129.42 59.0999 129.14 59.2799 128.96 59.4699C128.56 59.8299 128.29 60.0299 128.29 60.0299C128.268 59.737 128.268 59.4428 128.29 59.1499C128.307 58.8125 128.357 58.4775 128.44 58.1499C128.534 57.712 128.668 57.2835 128.84 56.8699C129.075 56.3722 129.359 55.8998 129.69 55.4599C130.071 54.9521 130.518 54.498 131.02 54.1099C131.576 53.6856 132.193 53.3485 132.85 53.1099C133.521 52.8556 134.225 52.6974 134.94 52.6399C135.628 52.5891 136.319 52.6193 137 52.7299C137.632 52.8303 138.252 52.9944 138.85 53.2199C139.874 53.6112 140.832 54.1576 141.69 54.8399C142.285 55.3199 142.819 55.8706 143.28 56.4799C143.453 56.7138 143.607 56.9613 143.74 57.2199Z" fill="#01334C"/>
<path d="M117.53 81.1305C117.117 81.0853 116.715 80.9704 116.34 80.7905C116.137 80.7028 115.948 80.5848 115.78 80.4405C115.689 80.3684 115.606 80.288 115.53 80.2005C115.449 80.111 115.381 80.0099 115.33 79.9005C115.265 79.7887 115.217 79.6672 115.19 79.5405C115.175 79.4109 115.175 79.2801 115.19 79.1505V78.7705L115.3 78.4105C115.391 78.1927 115.498 77.9821 115.62 77.7805L116.04 77.2505L115.89 77.7505C115.52 76.4805 115.13 75.2005 114.72 73.9505C114.53 73.3205 114.3 72.7005 114.07 72.0905C113.846 71.4837 113.582 70.8924 113.28 70.3205C113.046 69.793 112.706 69.3197 112.28 68.9305C112.16 68.8093 112 68.7349 111.83 68.7205C111.675 68.7399 111.521 68.77 111.37 68.8105C111.256 68.8479 111.146 68.8948 111.04 68.9505C110.528 69.2376 110.132 69.6936 109.92 70.2405C109.658 70.847 109.48 71.4861 109.39 72.1405C109.244 71.4548 109.244 70.7461 109.39 70.0605C109.463 69.7121 109.584 69.3756 109.75 69.0605C109.944 68.7123 110.206 68.4063 110.52 68.1605C110.691 68.0233 110.884 67.9152 111.09 67.8405C111.254 67.7646 111.425 67.7043 111.6 67.6605C111.846 67.6028 112.102 67.5979 112.35 67.6462C112.598 67.6945 112.833 67.7948 113.04 67.9405C113.667 68.4014 114.18 69.0001 114.54 69.6905C115.202 70.9034 115.722 72.1886 116.09 73.5205C116.29 74.1805 116.45 74.8405 116.59 75.5205C116.73 76.2005 116.85 76.8505 116.95 77.5205V77.8305L116.76 78.0205L116.38 78.3905C116.29 78.5205 116.15 78.6505 116.08 78.7805L115.96 78.9905L115.9 79.2005C115.9 79.2705 115.9 79.3305 115.9 79.4105C115.9 79.4905 115.9 79.5505 115.9 79.6205C116.01 79.9523 116.215 80.2445 116.49 80.4605C116.807 80.727 117.156 80.9522 117.53 81.1305Z" fill="#FF8973"/>
<path d="M153.94 60.4299L154.24 60.9799C154.492 61.4383 154.769 61.8823 155.07 62.3099C155.447 62.8727 155.925 63.3609 156.48 63.7499C156.76 63.9381 157.072 64.0737 157.4 64.1499C157.73 64.2129 158.07 64.2129 158.4 64.1499H158.54C158.41 64.1499 158.54 64.1499 158.48 64.1499H158.55H158.63L158.95 64.0699C159.11 64.0346 159.265 63.9774 159.41 63.8999C159.55 63.8999 159.68 63.7299 159.83 63.6599C159.98 63.5899 160.07 63.4499 160.18 63.3299C160.401 63.0785 160.583 62.7953 160.72 62.4899C160.852 62.1916 160.962 61.8841 161.05 61.5699C161.181 61.067 161.278 60.5558 161.34 60.0399C161.34 59.6499 161.4 59.4199 161.4 59.4199C161.492 59.6102 161.569 59.8075 161.63 60.0099C161.805 60.5461 161.896 61.106 161.9 61.6699C161.917 62.0637 161.877 62.4578 161.78 62.8399C161.677 63.2983 161.494 63.735 161.24 64.1299C160.941 64.569 160.544 64.932 160.08 65.1899C159.839 65.324 159.584 65.4313 159.32 65.5099L159 65.5899L158.78 65.6499H158.58C158.046 65.7134 157.505 65.6657 156.99 65.5099C156.735 65.4459 156.492 65.3412 156.27 65.1999C156.043 65.0848 155.834 64.9365 155.65 64.7599C155.311 64.4727 155.018 64.1355 154.78 63.7599C154.582 63.4273 154.418 63.0755 154.29 62.7099C154.101 62.1807 153.98 61.6296 153.93 61.0699C153.918 60.8566 153.921 60.6427 153.94 60.4299Z" fill="#01334C"/>
<path d="M133.99 64.55C133.99 64.55 134.09 64.75 134.29 65.09C134.541 65.5519 134.818 65.9993 135.12 66.43C135.501 66.9874 135.978 67.4717 136.53 67.86C136.809 68.0499 137.121 68.1856 137.45 68.26C137.781 68.3181 138.119 68.3181 138.45 68.26H138.6H138.68L139 68.19C139.159 68.1457 139.313 68.0854 139.46 68.01C139.603 67.9413 139.74 67.8611 139.87 67.77C139.99 67.66 140.12 67.56 140.23 67.44C140.451 67.1922 140.633 66.9124 140.77 66.61C140.902 66.3117 141.012 66.0043 141.1 65.69C141.23 65.1869 141.327 64.6758 141.39 64.16C141.39 63.77 141.45 63.54 141.45 63.54C141.545 63.7292 141.622 63.9267 141.68 64.13C141.851 64.6672 141.942 65.2265 141.95 65.79C141.962 66.1836 141.921 66.577 141.83 66.96C141.728 67.4156 141.545 67.8491 141.29 68.24C140.998 68.6862 140.604 69.0564 140.14 69.32C139.902 69.4511 139.651 69.5551 139.39 69.63L139.07 69.72H138.85H138.65C138.117 69.7919 137.574 69.7475 137.06 69.59C136.568 69.4326 136.112 69.1775 135.72 68.84C135.381 68.5523 135.088 68.2152 134.85 67.84C134.653 67.5226 134.486 67.1879 134.35 66.84C134.164 66.3104 134.047 65.7593 134 65.2C133.98 64.9839 133.977 64.7667 133.99 64.55Z" fill="#01334C"/>
<path d="M117.43 215.08C117.43 215.08 91.58 158.76 91.04 139.98C90.5 121.2 110.35 114.68 110.35 114.68C110.35 114.68 116.61 134 141.35 131C166.09 128 160.69 107.88 160.69 107.88C160.69 107.88 179.69 104.61 191.16 117.67C194.61 121.61 200.11 132.88 202.03 145.56C202.41 148.09 191.03 149.48 191.03 149.48L198.03 194.87L204.49 215.32L117.43 215.08Z" fill="#00D7CF"/>
<path d="M166.09 185.16C146.48 178.79 130.29 167.57 116.09 152.7C108.36 144.58 101.29 135.89 94.41 127.06C92.0097 130.929 90.8254 135.43 91.01 139.98C91.55 158.76 117.4 215.08 117.4 215.08L204.46 215.35C204.46 215.35 204.24 205.62 203.46 192.26C190.774 191.321 178.236 188.939 166.09 185.16Z" fill="#04BFB1"/>
<path d="M89.4 160.93C89.4 160.93 85.32 211.27 92.4 213.72C99.48 216.17 160.14 207.46 160.14 207.46C160.14 207.46 175.93 224.87 162.87 205.56C162.87 205.56 181.87 224.06 166.4 204.47C166.4 204.47 187.35 216.98 168.85 201.75C168.85 201.75 187.06 206.58 166.4 197.94C154.7 193.04 114.16 190.05 114.16 190.05L117.69 161.21L89.69 151.41L89.4 160.93Z" fill="#F8BC91"/>
<path d="M93.51 170.12C98.4427 171.585 103.576 172.26 108.72 172.12C111.323 172.058 113.916 171.774 116.47 171.27L117.7 161.27L89.7 151.47L89.43 160.99C89.43 160.99 89.2 163.83 88.95 168.18C90.4216 168.935 91.9455 169.583 93.51 170.12Z" fill="#E8A06C"/>
<path d="M119.88 166.38C107.88 167.74 84.51 160.93 84.51 160.93C84.51 160.93 84.78 117.93 110.35 114.68C110.35 114.68 131.85 165.01 119.88 166.38Z" fill="#00D7CF"/>
<path d="M220.62 213.01C220.617 213.631 220.369 214.227 219.928 214.665C219.488 215.104 218.892 215.35 218.27 215.35H129.2C128.579 215.35 127.984 215.103 127.545 214.665C127.107 214.226 126.86 213.631 126.86 213.01C126.86 212.388 127.106 211.792 127.545 211.352C127.983 210.911 128.578 210.663 129.2 210.66H218.27C218.893 210.66 219.491 210.908 219.932 211.348C220.372 211.789 220.62 212.387 220.62 213.01Z" fill="#002838"/>
<path d="M257.07 155.19H179.73C177.571 155.19 175.82 156.941 175.82 159.1V211.44C175.82 213.6 177.571 215.35 179.73 215.35H257.07C259.229 215.35 260.98 213.6 260.98 211.44V159.1C260.98 156.941 259.229 155.19 257.07 155.19Z" fill="#01334C"/>
<path d="M181.52 211.44V159.1C181.52 158.063 181.932 157.069 182.665 156.336C183.399 155.602 184.393 155.19 185.43 155.19H179.69C178.653 155.19 177.659 155.602 176.925 156.336C176.192 157.069 175.78 158.063 175.78 159.1V211.44C175.788 212.472 176.203 213.459 176.936 214.186C177.668 214.913 178.658 215.32 179.69 215.32H185.39C184.365 215.31 183.385 214.898 182.662 214.172C181.938 213.446 181.528 212.465 181.52 211.44Z" fill="#002838"/>
</g>
<defs>
<clipPath id="clip0_111_1988">
<rect width="228.65" height="213.46" fill="white" transform="translate(58 2)"/>
</clipPath>
</defs>
</svg>
