<svg width="344" height="218" viewBox="0 0 344 218" fill="none" xmlns="http://www.w3.org/2000/svg">
<g clip-path="url(#clip0_111_2103)">
<path d="M0 10C0 4.47715 4.47715 0 10 0H334C339.523 0 344 4.47715 344 10V218H0V10Z" fill="#EAF6FF"/>
<path d="M25 33C25 27.4772 29.4772 23 35 23H359C364.523 23 369 27.4772 369 33V241H25V33Z" fill="#EAF6FF"/>
<g clip-path="url(#clip1_111_2103)">
<path d="M197.294 241V211.942L254.579 223.674V241H197.294Z" fill="#33A7C1"/>
<path d="M223.468 144.542C251.93 144.542 275 162.715 275 185.132V197.579H254.361V241H174V185.132C174 162.727 195.031 144.542 223.468 144.542Z" fill="#021417"/>
<path d="M274.901 183.656C274.963 184.472 275 185.299 275 186.146V213.902C275 217.098 273.732 220.163 271.474 222.422C269.216 224.682 266.154 225.951 262.961 225.951L205.751 224.955V183.656H274.901Z" fill="#021417"/>
<path d="M218.704 213.187C220.402 210.455 229.276 210.518 234.306 210.791C235.385 210.847 236.44 211.127 237.404 211.615C238.368 212.102 239.219 212.787 239.903 213.623L241.563 213.878V212.515H253.099V230.9H241.551V228.945C240.065 228.323 237.453 229.636 235.208 230.321C232.596 231.124 226.975 229.754 223.779 229.182C220.582 228.609 222.299 226.556 222.299 226.556C219.674 225.068 221.615 223.126 221.615 223.126C216.366 220.5 219.749 217.587 219.749 217.587C219.749 217.587 216.304 217.046 218.704 213.187Z" fill="#238E99"/>
<path d="M214.37 208.215C215.614 206.254 220.508 205.725 225.047 205.725C225.047 205.725 228.107 205.464 227.821 202.757C227.243 200.271 227.521 197.664 228.61 195.357C228.61 195.357 230.65 193.77 231.098 198.157C231.546 202.545 234.798 207.854 234.798 207.854C235.069 208.095 235.32 208.357 235.55 208.638L244.324 210.026C244.324 210.026 239.101 225.902 237.845 224.414C236.589 222.927 233.492 224.545 230.874 225.348C228.256 226.151 222.641 224.775 219.444 224.203C216.248 223.63 217.964 221.576 217.964 221.576C215.34 220.089 217.28 218.147 217.28 218.147C212.026 215.521 215.415 212.608 215.415 212.608C215.415 212.608 211.97 212.073 214.37 208.215Z" fill="#F8BC91"/>
<path d="M234.574 207.536L234.773 207.872C235.044 208.113 235.296 208.376 235.525 208.656L244.324 210.026C244.324 210.026 239.101 225.902 237.845 224.414C237.167 223.618 235.979 223.717 234.574 224.103V207.536Z" fill="#D19066"/>
<path d="M262.669 225.896H237.223V207.511H262.669V225.896Z" fill="#021417"/>
<path d="M256.052 207.536H238.641C238.316 207.529 237.999 207.636 237.745 207.839C237.49 208.041 237.315 208.326 237.248 208.644C237.216 208.835 237.227 209.03 237.278 209.217C237.329 209.404 237.421 209.577 237.545 209.725C237.67 209.873 237.825 209.992 238 210.074C238.176 210.156 238.367 210.199 238.56 210.2H256.052C256.405 210.2 256.744 210.06 256.993 209.81C257.243 209.56 257.383 209.221 257.383 208.868C257.383 208.515 257.243 208.176 256.993 207.926C256.744 207.677 256.405 207.536 256.052 207.536Z" fill="#238E99"/>
<path d="M273.526 213.219C273.135 213.219 272.76 213.063 272.484 212.787C272.208 212.51 272.052 212.135 272.052 211.744V185.132C272.052 163.101 249.772 145.184 222 144.567C222.491 144.567 222.976 144.567 223.468 144.567C251.93 144.567 275 162.74 275 185.157V211.769C275 212.16 274.845 212.535 274.568 212.812C274.292 213.088 273.917 213.244 273.526 213.244V213.219Z" fill="#238E99"/>
<path d="M223.468 144.542C233.375 144.473 243.153 146.796 251.973 151.314C247.763 158.782 240.295 164.19 227.037 164.731C211.678 165.354 203.183 158.856 198.495 149.857C206.33 146.279 214.855 144.465 223.468 144.542Z" fill="#0F282D"/>
<path d="M224.257 144.542C227.759 144.538 231.245 145.013 234.617 145.955V154.786C232.024 155.935 229.226 156.553 226.39 156.603C222.038 156.784 218.574 155.981 215.863 154.525V145.488C218.616 144.855 221.432 144.538 224.257 144.542Z" fill="#C6C6C6"/>
<path d="M198.762 82.2693C198.453 82.2475 198.144 82.2475 197.835 82.2693C192.506 82.5929 188.557 88.9782 189.005 96.5398C189.453 104.101 194.142 109.97 199.471 109.653C199.78 109.632 200.087 109.593 200.391 109.534L198.762 82.2693Z" fill="#F8BC91"/>
<path d="M225.296 139.849C233.728 139.849 240.568 146.023 240.568 153.635V157.537C240.568 157.815 240.495 158.089 240.358 158.331C240.222 158.573 240.025 158.776 239.787 158.921C239.549 159.065 239.278 159.146 239 159.155C238.722 159.165 238.446 159.102 238.199 158.974L225.296 152.222L212.399 158.993C212.152 159.121 211.876 159.183 211.598 159.174C211.32 159.165 211.049 159.084 210.811 158.939C210.573 158.795 210.377 158.592 210.24 158.35C210.103 158.107 210.031 157.834 210.03 157.555V153.653C210.03 146.023 216.87 139.849 225.296 139.849Z" fill="#D9D9D8"/>
<path d="M253.242 208.24V186.526C253.265 186.188 253.415 185.871 253.663 185.639C253.911 185.408 254.237 185.279 254.576 185.279C254.914 185.279 255.241 185.408 255.488 185.639C255.736 185.871 255.886 186.188 255.909 186.526V208.24H253.242Z" fill="#238E99"/>
<path d="M195.957 224.962V187.142C195.945 186.959 195.97 186.776 196.031 186.603C196.093 186.43 196.189 186.272 196.314 186.138C196.439 186.004 196.591 185.897 196.759 185.824C196.927 185.751 197.108 185.713 197.291 185.713C197.474 185.713 197.656 185.751 197.824 185.824C197.992 185.897 198.143 186.004 198.268 186.138C198.393 186.272 198.49 186.43 198.551 186.603C198.612 186.776 198.638 186.959 198.625 187.142V224.962H195.957Z" fill="#238E99"/>
<path d="M195.957 193.764H198.625V240.994H195.957V193.764Z" fill="#238E99"/>
<path d="M234.941 130.104V146.807C234.941 148.345 230.14 149.589 224.226 149.589C218.313 149.589 213.512 148.345 213.512 146.807V130.104H234.941Z" fill="#F8BC91"/>
<path d="M223.673 143.521C220.212 143.481 216.781 142.88 213.512 141.741V130.104H234.941V142.009C231.3 143.16 227.488 143.672 223.673 143.521Z" fill="#D19066"/>
<path d="M234.941 136.962C232.107 138.166 229.081 138.853 226.005 138.991C221.668 139.151 217.364 138.184 213.512 136.184V130.104H234.941V136.962Z" fill="#D19066"/>
<path d="M255.499 86.0781C255.806 86.0961 256.112 86.1356 256.413 86.1964C261.655 87.2232 264.721 94.0816 263.253 101.512C261.786 108.943 256.37 114.14 251.134 113.113C250.83 113.051 250.531 112.97 250.238 112.87L255.499 86.0781Z" fill="#F8BC91"/>
<path d="M251.14 113.113C250.837 113.051 250.537 112.97 250.244 112.87L255.499 86.0781C255.806 86.0961 256.112 86.1356 256.413 86.1964C257.555 86.4283 258.622 86.9369 259.522 87.6776C259.427 88.0053 259.334 88.3414 259.243 88.6858C257.729 93.9495 256.596 99.3157 255.853 104.742C255.533 107.504 255.062 110.247 254.442 112.957C253.368 113.266 252.238 113.319 251.14 113.113Z" fill="#D19066"/>
<path d="M255.802 89.7344C257.941 57.173 244.205 52.4867 227.589 52.0511C210.973 51.6154 197.927 53.1962 195.626 88.1474C194.445 106.164 191.839 137.686 221.924 138.477C252.009 139.267 254.621 107.751 255.802 89.7344Z" fill="#F8BC91"/>
<path d="M220.526 75.2747C220.526 75.2747 214.967 69.7918 206.616 73.1214C206.616 73.1214 209.787 68.0493 215.123 69.4495C220.458 70.8498 220.526 75.2747 220.526 75.2747Z" fill="#D19066"/>
<path d="M232.805 118.484C232.973 118.31 233.064 118.078 233.06 117.837C233.056 117.596 232.956 117.366 232.783 117.198C232.609 117.031 232.377 116.939 232.135 116.943C231.894 116.947 231.665 117.046 231.497 117.22C229.99 118.578 228.219 119.612 226.295 120.256C221.272 122.079 217.119 121.128 216.406 119.12C216.37 119.004 216.31 118.896 216.231 118.803C216.151 118.71 216.054 118.634 215.944 118.579C215.835 118.525 215.716 118.493 215.594 118.486C215.472 118.478 215.349 118.496 215.234 118.537C215.119 118.578 215.013 118.642 214.924 118.724C214.834 118.807 214.762 118.907 214.712 119.019C214.661 119.13 214.634 119.251 214.632 119.373C214.629 119.495 214.652 119.617 214.697 119.73C215.877 123.028 221.254 124.027 226.943 122.007C229.102 121.266 231.085 120.09 232.769 118.552L232.805 118.484Z" fill="#422918"/>
<path d="M221.242 137.385C245.064 138.007 251.774 118.366 254.075 101.22C254.66 96.3531 254.877 91.5486 255.157 87.3664C255.897 76.3508 254.684 68.6399 252.085 63.2441C255.194 68.6773 256.718 76.7678 255.909 88.804C255.63 92.9862 255.412 97.7908 254.834 102.664C252.533 119.803 245.817 139.451 222 138.822C209.719 138.499 202.891 133.059 199.185 125.504C203.034 132.3 209.756 137.086 221.242 137.385Z" fill="#632B0B"/>
<path d="M233.106 90.2793C233.038 92.9119 234.574 95.0901 236.533 95.1399C238.491 95.1897 240.133 93.0986 240.202 90.4661C240.27 87.8335 238.74 85.6553 236.781 85.6055C234.823 85.5557 233.175 87.6468 233.106 90.2793Z" fill="#D19066"/>
<path d="M233.137 89.1649C233.069 91.7975 234.599 93.9757 236.558 94.0255C238.516 94.0753 240.164 91.9842 240.233 89.3517C240.301 86.7191 238.771 84.5409 236.813 84.4911C234.854 84.4413 233.206 86.5324 233.137 89.1649Z" fill="#1E1C3C"/>
<path d="M234.406 87.2987C234.399 87.5804 234.475 87.858 234.625 88.0963C234.776 88.3346 234.993 88.523 235.251 88.6376C235.508 88.7522 235.793 88.7878 236.071 88.7401C236.348 88.6923 236.605 88.5633 236.81 88.3693C237.014 88.1753 237.156 87.9251 237.218 87.6502C237.281 87.3753 237.26 87.0882 237.159 86.825C237.058 86.5619 236.882 86.3346 236.652 86.1719C236.422 86.0091 236.149 85.9183 235.867 85.9108C235.68 85.905 235.494 85.9364 235.319 86.0032C235.143 86.07 234.983 86.1708 234.848 86.2998C234.712 86.4289 234.603 86.5836 234.527 86.755C234.451 86.9265 234.41 87.1112 234.406 87.2987Z" fill="white"/>
<path d="M208.22 87.1679C208.152 89.8004 209.681 91.9786 211.64 92.0284C213.599 92.0782 215.241 89.9871 215.315 87.3546C215.39 84.7221 213.848 82.5438 211.889 82.494C209.93 82.4442 208.289 84.5353 208.22 87.1679Z" fill="#D19066"/>
<path d="M208.245 86.0536C208.177 88.6861 209.713 90.8644 211.671 90.9142C213.63 90.9639 215.272 88.8729 215.34 86.2403C215.409 83.6078 213.879 81.4296 211.92 81.3798C209.961 81.33 208.32 83.4211 208.245 86.0536Z" fill="#1E1C3C"/>
<path d="M209.514 84.187C209.506 84.4687 209.583 84.7463 209.733 84.9846C209.883 85.223 210.101 85.4113 210.358 85.5259C210.615 85.6405 210.901 85.6762 211.178 85.6284C211.456 85.5807 211.713 85.4517 211.917 85.2577C212.122 85.0637 212.264 84.8134 212.326 84.5385C212.388 84.2636 212.367 83.9765 212.267 83.7134C212.166 83.4502 211.989 83.2229 211.759 83.0602C211.529 82.8975 211.256 82.8067 210.975 82.7992C210.598 82.7908 210.232 82.932 209.959 83.1919C209.685 83.4519 209.525 83.8095 209.514 84.187Z" fill="white"/>
<path d="M218.661 95.3767C220.526 95.19 221.932 87.9396 222.361 84.3486L225.141 84.5353C225.066 88.8046 224.22 103.056 222.342 104.575C216.839 109.05 209.557 96.304 218.661 95.3767Z" fill="#EC6E24"/>
<path d="M243.808 85.8541C243.808 85.8541 238.255 80.365 229.898 83.6945C229.898 83.6945 233.075 78.6286 238.404 80.0289C243.734 81.4292 243.808 85.8541 243.808 85.8541Z" fill="#D19066"/>
<path d="M244.088 86.5888C243.955 86.5691 243.828 86.5168 243.72 86.4365C243.611 86.3562 243.524 86.2503 243.466 86.1283C241.912 82.8921 239.984 81.0811 237.752 80.7388C233.884 80.1662 230.153 84.1181 230.115 84.1555C230.045 84.2441 229.957 84.3172 229.857 84.3702C229.757 84.4232 229.648 84.455 229.535 84.4636C229.422 84.4721 229.309 84.4573 229.202 84.42C229.095 84.3827 228.997 84.3237 228.914 84.2468C228.832 84.1698 228.765 84.0765 228.72 83.9728C228.675 83.8691 228.652 83.7571 228.652 83.6439C228.652 83.5308 228.675 83.4188 228.721 83.3152C228.766 83.2115 228.832 83.1183 228.915 83.0414C229.095 82.8547 233.268 78.4174 237.994 79.1207C240.799 79.5438 243.143 81.6661 244.946 85.4188C244.994 85.5159 245.021 85.6215 245.027 85.7294C245.034 85.8373 245.018 85.9453 244.983 86.0472C244.947 86.1492 244.891 86.2429 244.818 86.3231C244.746 86.4032 244.658 86.4682 244.561 86.5142C244.414 86.5844 244.25 86.6104 244.088 86.5888Z" fill="black"/>
<path d="M259.578 165.839C259.82 165.838 260.057 165.776 260.268 165.658C260.479 165.541 260.657 165.372 260.785 165.167C261.391 164.091 262.18 163.128 263.117 162.323C263.418 162.101 263.622 161.77 263.683 161.4C263.745 161.03 263.66 160.651 263.446 160.343C263.34 160.192 263.205 160.063 263.049 159.964C262.893 159.865 262.72 159.798 262.538 159.766C262.356 159.734 262.169 159.739 261.989 159.779C261.809 159.819 261.638 159.895 261.487 160.001C261.332 160.101 259.964 161.097 258.378 163.667C258.28 163.825 258.214 164.002 258.184 164.186C258.154 164.37 258.161 164.558 258.203 164.739C258.246 164.921 258.324 165.092 258.433 165.243C258.542 165.395 258.68 165.523 258.838 165.621C259.059 165.763 259.316 165.838 259.578 165.839Z" fill="#238E99"/>
<path d="M255.35 178.392C255.687 178.391 256.013 178.271 256.269 178.052C256.526 177.833 256.696 177.53 256.749 177.197C257.075 175.068 257.562 172.967 258.204 170.911C258.261 170.733 258.282 170.546 258.266 170.36C258.251 170.174 258.199 169.993 258.113 169.827C258.028 169.661 257.911 169.514 257.768 169.393C257.626 169.273 257.461 169.182 257.284 169.125C257.106 169.068 256.919 169.047 256.733 169.062C256.547 169.078 256.366 169.13 256.201 169.215C256.035 169.301 255.888 169.418 255.767 169.561C255.647 169.703 255.556 169.868 255.499 170.046C254.818 172.239 254.298 174.479 253.944 176.749C253.915 176.933 253.923 177.121 253.966 177.303C254.01 177.484 254.089 177.655 254.198 177.806C254.308 177.957 254.447 178.085 254.606 178.182C254.765 178.279 254.942 178.344 255.126 178.373L255.35 178.392Z" fill="#238E99"/>
<path d="M254.572 189.289C254.945 189.284 255.301 189.132 255.563 188.867C255.825 188.601 255.972 188.243 255.972 187.87C255.972 186.445 256.009 185.038 256.083 183.688C256.103 183.311 255.973 182.943 255.721 182.663C255.469 182.382 255.116 182.214 254.74 182.194C254.364 182.174 253.996 182.305 253.716 182.557C253.436 182.809 253.268 183.162 253.248 183.538C253.173 184.939 253.136 186.395 253.136 187.895C253.142 188.27 253.297 188.627 253.567 188.889C253.836 189.15 254.197 189.294 254.572 189.289Z" fill="#238E99"/>
<path d="M190.765 163.579C191.028 163.579 191.286 163.505 191.51 163.367C191.734 163.228 191.915 163.029 192.032 162.794C192.15 162.558 192.199 162.294 192.175 162.031C192.151 161.769 192.055 161.518 191.897 161.308C190.974 159.995 189.826 158.855 188.508 157.941C188.186 157.745 187.8 157.686 187.434 157.775C187.069 157.864 186.754 158.095 186.558 158.417C186.363 158.739 186.303 159.125 186.392 159.491C186.481 159.857 186.712 160.172 187.034 160.368C188.037 161.107 188.914 162.002 189.633 163.019C189.766 163.194 189.937 163.335 190.133 163.432C190.33 163.53 190.546 163.58 190.765 163.579Z" fill="#238E99"/>
<path d="M196.275 177.521C196.359 177.527 196.445 177.527 196.529 177.521C196.713 177.487 196.888 177.418 197.044 177.316C197.201 177.215 197.336 177.083 197.442 176.929C197.547 176.776 197.622 176.602 197.66 176.42C197.699 176.237 197.702 176.049 197.667 175.865C197.223 173.298 196.549 170.775 195.653 168.329C195.591 168.149 195.494 167.983 195.367 167.842C195.24 167.7 195.085 167.586 194.913 167.505C194.741 167.424 194.555 167.379 194.365 167.372C194.175 167.365 193.986 167.396 193.808 167.464C193.63 167.531 193.468 167.634 193.331 167.766C193.194 167.897 193.084 168.055 193.009 168.23C192.934 168.405 192.895 168.593 192.894 168.783C192.893 168.973 192.93 169.161 193.004 169.337C193.849 171.624 194.49 173.982 194.919 176.382C194.982 176.697 195.151 176.982 195.397 177.189C195.644 177.396 195.953 177.513 196.275 177.521Z" fill="#238E99"/>
<path d="M197.288 189.289C197.665 189.289 198.026 189.139 198.293 188.873C198.56 188.607 198.711 188.247 198.712 187.87C198.712 186.395 198.669 184.938 198.594 183.513C198.583 183.327 198.536 183.144 198.455 182.976C198.374 182.808 198.261 182.658 198.122 182.534C197.982 182.409 197.82 182.314 197.644 182.252C197.468 182.191 197.282 182.165 197.095 182.175C196.909 182.186 196.727 182.233 196.559 182.314C196.391 182.395 196.241 182.509 196.116 182.648C195.992 182.787 195.897 182.95 195.835 183.126C195.774 183.302 195.748 183.489 195.758 183.675C195.833 185.026 195.87 186.432 195.87 187.851C195.868 188.039 195.903 188.225 195.973 188.4C196.043 188.574 196.147 188.733 196.279 188.866C196.411 189 196.568 189.106 196.741 189.179C196.914 189.251 197.1 189.289 197.288 189.289Z" fill="#238E99"/>
<path d="M238.991 41.7254C238.991 41.7254 223.541 35.8528 209.255 49.9201C199.598 59.4282 190.189 70.5383 181 67.0368C171.812 63.5353 181.543 84.1327 201.273 84.55C221.003 84.9672 232.485 74.8792 239.012 67.0371C245.538 59.1949 247.629 45.5502 238.991 41.7254Z" fill="black"/>
<path d="M254 101C254 101 254.45 95.0314 248.5 79.3998C244.279 69.5005 241.096 68.1313 235 67.0005C228.903 65.8697 232.472 44.5998 244.279 52.0772C256.085 59.5545 261.088 71.252 263.55 79.3998C266.013 87.5477 259.828 101.684 254 101Z" fill="black"/>
<path d="M198.886 37.4041C199.275 37.1432 199.733 37.0039 200.201 37.0039C200.67 37.0039 201.128 37.1432 201.517 37.4041C200.609 37.4248 199.732 37.4248 198.886 37.4041Z" fill="#632B0B"/>
</g>
<path d="M127.67 219.93C127.67 220.551 127.916 221.148 128.355 221.588C128.793 222.028 129.388 222.277 130.01 222.28H219.08C219.701 222.277 220.297 222.028 220.735 221.588C221.174 221.148 221.42 220.551 221.42 219.93C221.42 219.309 221.173 218.714 220.735 218.275C220.296 217.836 219.701 217.59 219.08 217.59H130.01C129.389 217.59 128.794 217.836 128.355 218.275C127.916 218.714 127.67 219.309 127.67 219.93Z" fill="#002838"/>
<path d="M168.55 162.12H91.2098C89.0504 162.12 87.2998 163.871 87.2998 166.03V218.37C87.2998 220.53 89.0504 222.28 91.2098 222.28H168.55C170.709 222.28 172.46 220.53 172.46 218.37V166.03C172.46 163.871 170.709 162.12 168.55 162.12Z" fill="#01334C"/>
</g>
<defs>
<clipPath id="clip0_111_2103">
<path d="M0 10C0 4.47715 4.47715 0 10 0H334C339.523 0 344 4.47715 344 10V218H0V10Z" fill="white"/>
</clipPath>
<clipPath id="clip1_111_2103">
<rect width="101" height="204" fill="white" transform="matrix(-1 0 0 1 275 37)"/>
</clipPath>
</defs>
</svg>
