<svg width="335" height="218" viewBox="0 0 335 218" fill="none" xmlns="http://www.w3.org/2000/svg">
<path d="M0 10C0 4.47715 4.47715 0 10 0H325C330.523 0 335 4.47715 335 10V218H0V10Z" fill="#EAF6FF"/>
<g clip-path="url(#clip0_111_2189)">
<path d="M81.71 68.8405C81.7637 75.1997 83.7922 81.3851 87.515 86.541C91.2377 91.6969 96.4706 95.5686 102.49 97.6205C108.456 99.5459 114.858 99.6667 120.892 97.9677C126.927 96.2688 132.325 92.8257 136.41 88.0705C140.522 83.1316 142.976 77.0237 143.423 70.6125C143.87 64.2013 142.287 57.8121 138.9 52.3505C135.48 47.0965 130.555 42.9965 124.768 40.5864C118.981 38.1764 112.602 37.5685 106.464 38.8421C100.326 40.1157 94.7149 43.2116 90.3645 47.7251C86.0142 52.2387 83.1268 57.9597 82.08 64.1405C81.8413 65.706 81.7177 67.2869 81.71 68.8705C81.71 69.1005 83.07 68.8705 83.07 68.5105C83.0949 62.4169 84.9633 56.4735 88.4295 51.4617C91.8956 46.4499 96.7972 42.6043 102.49 40.4305C114.32 36.1105 127.91 40.3305 135.68 50.0905C139.425 54.8729 141.653 60.6667 142.077 66.726C142.501 72.7853 141.102 78.8329 138.06 84.0905C134.903 89.4761 130.11 93.7132 124.377 96.1846C118.645 98.656 112.273 99.2326 106.19 97.8305C100.364 96.3986 95.0908 93.2751 91.0355 88.8533C86.9802 84.4314 84.3236 78.9088 83.4 72.9805C83.1853 71.49 83.075 69.9863 83.07 68.4805C83.07 68.2505 81.71 68.4505 81.71 68.8405Z" fill="#0B4D8E"/>
<path d="M112.64 95.9102C127.689 95.9102 139.89 83.7099 139.89 68.6602C139.89 53.6104 127.689 41.4102 112.64 41.4102C97.5899 41.4102 85.3896 53.6104 85.3896 68.6602C85.3896 83.7099 97.5899 95.9102 112.64 95.9102Z" fill="#0B4D8E"/>
<path d="M111.67 53.6604L111.9 57.9704C111.97 59.4104 112.05 60.8504 112.1 62.2904C112.22 65.1604 112.31 68.0404 112.47 70.9104L111.54 70.0204C112.02 69.9704 112.54 69.9404 112.98 69.9104C113.42 69.8804 113.93 69.8304 114.41 69.8304C115.41 69.8304 116.33 69.8304 117.29 69.8304C118.25 69.8304 119.21 69.9104 120.18 69.9904C120.66 70.0404 121.18 70.0804 121.62 70.1504C122.06 70.2204 122.62 70.2704 123.07 70.3704V70.5604C122.59 70.6904 122.12 70.7804 121.64 70.8804C121.16 70.9804 120.69 71.0604 120.21 71.1504C119.26 71.3004 118.3 71.4304 117.35 71.5404C116.4 71.6504 115.44 71.7304 114.48 71.7704C114 71.7704 113.48 71.7704 113.04 71.7704C112.6 71.7704 112.04 71.7704 111.6 71.7704H110.6V70.9004C110.76 68.0304 110.85 65.1504 110.97 62.2804C111.02 60.8404 111.1 59.4004 111.17 57.9604L111.4 53.6504L111.67 53.6604Z" fill="#C6EEFF"/>
<path d="M110.71 44.49V49.49C110.71 49.6 110.92 49.66 110.99 49.67C111.165 49.705 111.345 49.705 111.52 49.67C111.78 49.6 112.16 49.4499 112.16 49.1499V44.1C112.16 43.99 111.95 43.93 111.89 43.92C111.712 43.8849 111.528 43.8849 111.35 43.92C111.1 43.99 110.71 44.14 110.71 44.45V44.49Z" fill="#C6EEFF"/>
<path d="M94.6704 52.7899L97.8004 55.9099L98.2404 56.36C98.4604 56.57 98.9504 56.45 99.2404 56.36C99.5304 56.27 99.8704 56.0399 99.6404 55.8199L96.5204 52.6899L96.0704 52.2499C95.8504 52.0299 95.3604 52.1499 95.1204 52.2499C94.8804 52.3499 94.5004 52.57 94.7204 52.8L94.6704 52.7899Z" fill="#C6EEFF"/>
<path d="M88.3299 70.2896H93.38C93.5644 70.3049 93.75 70.2788 93.9231 70.213C94.0961 70.1472 94.2522 70.0436 94.38 69.9096C94.58 69.6296 94.21 69.5296 94 69.5296H88.95C88.7657 69.5164 88.5807 69.5436 88.408 69.6092C88.2353 69.6748 88.079 69.7774 87.95 69.9096C87.76 70.1896 88.1199 70.2896 88.3299 70.2896Z" fill="#C6EEFF"/>
<path d="M95.45 85.6096L98.57 82.4795L99.01 82.0395C99.08 81.9595 99.2 81.8596 99.16 81.7396C99.12 81.6196 98.98 81.5795 98.89 81.5695C98.5341 81.5241 98.1747 81.6212 97.89 81.8395L94.78 84.9695L94.33 85.4196C94.26 85.4896 94.15 85.5895 94.18 85.7095C94.21 85.8295 94.36 85.8696 94.46 85.8896C94.6369 85.9118 94.8165 85.8984 94.9882 85.8504C95.1599 85.8023 95.3203 85.7204 95.46 85.6096H95.45Z" fill="#C6EEFF"/>
<path d="M112.78 90.86V85.81C112.78 85.7 112.57 85.64 112.5 85.63C112.325 85.595 112.145 85.595 111.97 85.63C111.72 85.7 111.33 85.85 111.33 86.16V91.16C111.33 91.26 111.54 91.32 111.6 91.33C111.778 91.37 111.962 91.37 112.14 91.33C112.39 91.26 112.78 91.11 112.78 90.81V90.86Z" fill="#C6EEFF"/>
<path d="M129.78 83.2004L126.66 80.0804L126.21 79.6304C125.99 79.4204 125.5 79.5404 125.21 79.6304C124.92 79.7204 124.59 79.9504 124.82 80.1704L127.94 83.2904L128.39 83.7404C128.61 83.9604 129.1 83.8404 129.34 83.7404C129.58 83.6404 129.97 83.4204 129.74 83.2004H129.78Z" fill="#C6EEFF"/>
<path d="M137.481 68.8896H132.43C132.245 68.8748 132.059 68.9023 131.886 68.9698C131.713 69.0374 131.557 69.1433 131.43 69.2796C131.23 69.5496 131.6 69.6596 131.81 69.6596H136.86C137.046 69.6752 137.232 69.6481 137.406 69.5805C137.579 69.5129 137.735 69.4066 137.86 69.2696C138.06 68.9996 137.691 68.8896 137.481 68.8896Z" fill="#C6EEFF"/>
<path d="M128.4 53.0895L125.27 56.2095L124.83 56.6596C124.76 56.7296 124.64 56.8296 124.68 56.9496C124.72 57.0696 124.86 57.1096 124.95 57.1296C125.307 57.1711 125.666 57.0705 125.95 56.8496L129.07 53.7296L129.52 53.2795C129.59 53.2095 129.7 53.1096 129.67 52.9896C129.64 52.8696 129.49 52.8295 129.39 52.8095C129.033 52.7691 128.674 52.8696 128.39 53.0895H128.4Z" fill="#C6EEFF"/>
<path d="M241.07 137.97C241.07 137.97 244.34 124.5 226.78 118.35C209.22 112.2 210.45 115.08 215.78 77.1197L189.25 74.6797C189.25 74.6797 188.43 108.96 180.68 111C172.93 113.04 151.84 103.65 140.82 126.1C129.8 148.55 133.61 205 133.61 205L214.54 216.35C214.54 216.35 240.66 162.86 241.07 137.97Z" fill="#FFAFA4"/>
<path d="M182.78 110.16L182.29 110.05C188.54 104.05 189.24 74.71 189.24 74.71L215.78 77.15C214.19 88.53 212.97 96.23 212.5 101.62C207.25 104.95 196.32 110.58 182.78 110.16Z" fill="#EA8D83"/>
<path d="M140.4 141.75C148.64 151.65 157.22 161.32 165.87 170.86C179.94 186.36 194.65 201.26 209.87 215.67L133.64 205.03C133.64 205.03 130.84 163.49 137 137.51C138.09 138.93 139.23 140.35 140.4 141.75Z" fill="#EA8D83"/>
<path d="M216.86 217.01C216.86 217.01 242.7 160.68 243.25 141.91C243.8 123.14 219.87 114.2 219.87 114.2C219.87 114.2 216.5 131.02 191.87 126.92C172.8 123.74 176.61 109.12 176.61 109.12C176.61 109.12 154.52 106.54 143.09 119.6C139.64 123.54 134.14 134.81 132.22 147.49C131.84 150.01 143.22 151.4 143.22 151.4L136.17 196.8L129.78 217.28L216.86 217.01Z" fill="white"/>
<path opacity="0.1" d="M168.19 187.09C187.81 180.72 203.99 169.5 218.19 154.63C225.93 146.5 232.99 137.82 239.87 128.99C242.274 132.859 243.462 137.359 243.28 141.91C242.73 160.68 216.89 217.01 216.89 217.01L129.82 217.28C129.82 217.28 130.04 207.55 130.77 194.19C143.473 193.257 156.028 190.874 168.19 187.09Z" fill="#002838"/>
<path d="M244.78 162.76C244.78 162.76 248.98 214.5 241.71 217.02C234.44 219.54 172.06 210.58 172.06 210.58C172.06 210.58 155.84 228.48 169.27 208.58C169.27 208.58 149.69 227.58 165.63 207.47C165.63 207.47 144.09 220.33 163.11 204.67C163.11 204.67 144.4 209.67 165.63 200.75C177.63 195.75 219.33 192.64 219.33 192.64L215.69 163L244.5 152.93L244.78 162.76Z" fill="#FFAFA4"/>
<path d="M219.32 192.68C231.63 194.08 247.81 198.99 247.81 198.99C247.81 198.99 256.3 117.99 223.24 115.21C223.24 115.21 207.3 135.51 211.14 150.92C213.83 161.74 214.71 192.16 219.32 192.68Z" fill="white"/>
<path d="M219.12 75.4497C219.12 75.4497 228.48 47.7697 214.63 36.1697C200.78 24.5697 179.34 17.7197 171.49 49.5097C166.11 71.2697 159.77 97.0297 176.97 104.13C194.17 111.23 212.78 94.5297 219.12 75.4497Z" fill="#FFAFA4"/>
<path d="M214.389 81.2801C214.389 81.2801 218.28 66.2101 221.92 66.4701C225.56 66.7301 228.149 69.8501 226.329 75.5701C224.509 81.2901 213.609 90.6301 214.389 81.2801Z" fill="#FFAFA4"/>
<path d="M236.06 42.7796C235.46 38.3996 231.31 36.8596 229.06 36.9296C235.32 11.8096 194.26 18.0496 185.46 19.5596C176.66 21.0696 178.33 11.5596 178.33 11.5596C171.33 16.1696 175.67 24.1396 175.67 24.1396C171.47 21.7696 172.03 16.0296 172.03 16.0296C169.708 19.2854 168.483 23.1964 168.533 27.1954C168.583 31.1943 169.906 35.0732 172.31 38.2696L169.66 36.1696C173 51.0296 208.98 45.0196 212.1 44.4696L211.48 44.7796C205.95 59.2896 215.67 62.9496 215.67 62.9496L212.38 74.4896C209.22 84.1696 204.19 96.2596 198.94 95.1196C190.3 93.2596 199.88 86.0196 188.94 82.7496C181.33 80.4796 168.86 78.0796 168.63 90.9196C168.4 103.76 165.63 84.3796 165.63 84.3796C165.63 84.3796 162.36 102.38 169.63 105.86C176.9 109.34 203.25 113.57 209.55 97.9196C211.648 92.2493 213.395 86.4549 214.78 80.5696C215.762 78.2457 216.623 75.8725 217.36 73.4596C219.36 67.2196 221.6 67.2196 221.6 67.2196C222.84 66.9696 224.34 68.4696 224.34 68.4696C224.34 68.4696 237.55 53.7496 236.06 42.7796Z" fill="#01334C"/>
<path d="M236.06 42.7805C235.46 38.4005 231.31 36.8605 229.06 36.9305C232.21 24.2805 223.36 19.5805 212.67 18.2305C213.91 28.1705 212.83 38.3805 207.39 45.2305C209.81 44.9205 211.52 44.6305 212.1 44.5305L211.48 44.8405C205.95 59.3505 215.67 63.0105 215.67 63.0105L212.38 74.5505C209.22 84.2305 204.19 96.3204 198.94 95.1805L198.43 95.0505C197.66 100.71 194.95 105.97 189.72 109.13C198.06 108.69 206.3 105.84 209.47 97.9705C211.597 92.2856 213.371 86.4745 214.78 80.5705C215.762 78.2466 216.623 75.8734 217.36 73.4604C219.36 67.2205 221.6 67.2205 221.6 67.2205C222.84 66.9705 224.34 68.4705 224.34 68.4705C224.34 68.4705 237.55 53.7505 236.06 42.7805Z" fill="#002838"/>
<path d="M184.46 57.0997L182.11 56.1497C181.79 56.0197 181.46 55.8797 181.11 55.7697C180.76 55.6597 180.41 55.5397 180.11 55.3997C179.81 55.2597 179.41 55.1697 179.06 55.1197C178.884 55.088 178.71 55.0446 178.54 54.9897L178.01 54.9197C177.67 54.8097 177.31 54.8597 176.96 54.7797C176.61 54.6997 176.25 54.7797 175.88 54.7297C175.51 54.6797 175.15 54.7297 174.79 54.7297C174.43 54.7297 174.07 54.7997 173.72 54.8097C173.385 54.8104 173.051 54.8338 172.72 54.8797L171.92 54.9397C171.45 54.9397 171.14 54.9397 171.14 54.9397C171.237 54.7005 171.354 54.4697 171.49 54.2497C171.634 53.9985 171.791 53.7548 171.96 53.5197C172.174 53.213 172.43 52.9371 172.72 52.6997C173.044 52.3877 173.399 52.1096 173.78 51.8697C174.228 51.62 174.693 51.3995 175.17 51.2097C175.714 51.0404 176.273 50.9232 176.84 50.8597C177.437 50.808 178.038 50.8315 178.63 50.9297L179.51 51.1097C179.79 51.1997 180.07 51.3197 180.34 51.4297C180.612 51.5272 180.87 51.6582 181.11 51.8197C181.35 51.9597 181.59 52.0997 181.81 52.2597C182.213 52.5794 182.588 52.9341 182.93 53.3197C183.225 53.656 183.487 54.0212 183.71 54.4097C184.044 54.9904 184.28 55.6222 184.41 56.2797C184.466 56.5491 184.483 56.8254 184.46 57.0997Z" fill="#01334C"/>
<path d="M190.4 55.7604C190.94 54.8244 191.657 54.0024 192.51 53.3404C193.377 52.6409 194.349 52.084 195.39 51.6904C196.003 51.4629 196.636 51.2954 197.28 51.1904C197.971 51.0793 198.673 51.0491 199.37 51.1004C200.094 51.1665 200.807 51.3244 201.49 51.5704C202.158 51.8056 202.786 52.143 203.35 52.5704C203.867 52.9598 204.325 53.4211 204.71 53.9404C205.039 54.3867 205.321 54.8659 205.55 55.3704C205.721 55.7923 205.858 56.227 205.96 56.6704C206.036 56.9994 206.086 57.3337 206.11 57.6704C206.13 57.9701 206.13 58.2708 206.11 58.5704C205.873 58.3935 205.646 58.2032 205.43 58.0004C205.25 57.8204 204.97 57.6204 204.71 57.3904C204.45 57.1604 204.11 56.9304 203.8 56.6704C203.121 56.1631 202.386 55.7337 201.61 55.3904C201.41 55.3104 201.2 55.2504 201.01 55.1704C200.82 55.0904 200.6 55.0504 200.38 55.0004C199.948 54.9072 199.511 54.8404 199.07 54.8004C197.175 54.7385 195.279 54.8962 193.42 55.2705L191.28 55.6004L190.4 55.7604Z" fill="#01334C"/>
<path d="M217.05 82.9197C217.407 82.7333 217.742 82.5086 218.05 82.2496C218.326 82.0284 218.534 81.7338 218.65 81.3996C218.65 81.3196 218.7 81.2496 218.65 81.1796C218.66 81.1066 218.66 81.0326 218.65 80.9596L218.59 80.7496L218.47 80.5397C218.4 80.4097 218.26 80.2796 218.17 80.1496L217.78 79.7697L217.58 79.5797V79.2597C217.68 78.5597 217.8 77.8797 217.95 77.1997C218.1 76.5197 218.25 75.8497 218.46 75.1997C218.829 73.8299 219.356 72.5077 220.03 71.2597C220.406 70.5628 220.927 69.9555 221.56 69.4797C221.773 69.3359 222.014 69.237 222.266 69.1888C222.519 69.1407 222.779 69.1444 223.03 69.1997C223.2 69.2697 223.33 69.2796 223.55 69.3796C223.754 69.4633 223.946 69.5743 224.12 69.7096C224.443 69.9593 224.712 70.2724 224.91 70.6296C225.083 70.9661 225.205 71.3269 225.27 71.6997C225.415 72.3955 225.415 73.1138 225.27 73.8096C225.178 73.1449 224.996 72.4956 224.73 71.8796C224.514 71.3211 224.111 70.8546 223.59 70.5596C223.484 70.5066 223.374 70.4631 223.26 70.4296C223.106 70.3854 222.949 70.352 222.79 70.3297C222.619 70.3501 222.458 70.4235 222.33 70.5397C221.908 70.9437 221.568 71.426 221.33 71.9596C221.034 72.54 220.774 73.1377 220.55 73.7496C220.32 74.3696 220.09 74.9997 219.89 75.6397C219.47 76.9097 219.08 78.2096 218.71 79.4996L218.55 78.9897L218.98 79.5296C219.105 79.7371 219.212 79.9545 219.3 80.1796L219.41 80.5296C219.41 80.6696 219.41 80.7996 219.41 80.9296C219.425 81.0592 219.425 81.1901 219.41 81.3196C219.376 81.4473 219.329 81.5712 219.27 81.6896C219.212 81.7973 219.141 81.898 219.06 81.9897C218.984 82.083 218.896 82.1669 218.8 82.2397C218.631 82.3849 218.442 82.506 218.24 82.5996C217.862 82.7671 217.461 82.8751 217.05 82.9197Z" fill="#FF8973"/>
<path d="M184.66 59.4297C183.66 61.1197 182.81 62.8197 181.96 64.5297C181.11 66.2397 180.3 67.9697 179.55 69.7097C179.18 70.5897 178.78 71.4497 178.44 72.3397C178.1 73.2297 177.73 74.0997 177.44 74.9997C177.15 75.8997 176.8 76.7897 176.44 77.6797C176.08 78.5697 175.86 79.4897 175.53 80.3897L174.96 79.5297C177.82 80.0497 180.67 80.6297 183.5 81.3797C180.58 81.3797 177.67 81.1497 174.77 80.8897L174.02 80.8197L174.2 80.0297C174.613 78.1244 175.148 76.2473 175.8 74.4097C176.11 73.4897 176.45 72.5697 176.8 71.6797C176.99 71.2197 177.19 70.7797 177.39 70.3397C177.59 69.8997 177.78 69.4397 178.01 69.0097C178.45 68.1397 178.9 67.2797 179.39 66.4297C179.88 65.5797 180.39 64.7597 180.94 63.9497C181.49 63.1397 182.06 62.3497 182.67 61.5997C183.285 60.8336 183.949 60.1087 184.66 59.4297Z" fill="#FF8973"/>
<path d="M172.62 63.6494C172.603 63.4431 172.603 63.2357 172.62 63.0294C172.647 62.4791 172.744 61.9346 172.91 61.4094C173.019 61.0448 173.167 60.6928 173.35 60.3594C173.562 59.9648 173.835 59.6069 174.16 59.2994C174.337 59.1221 174.535 58.9675 174.75 58.8394C174.965 58.6905 175.201 58.5758 175.45 58.4994C175.958 58.3244 176.498 58.2663 177.03 58.3294H177.2H177.29H177.45L177.76 58.4094C178.024 58.4888 178.279 58.5961 178.52 58.7294C178.971 58.9949 179.355 59.3611 179.64 59.7994C179.896 60.1815 180.076 60.6092 180.17 61.0594C180.265 61.4318 180.309 61.8153 180.3 62.1994C180.299 62.7547 180.218 63.307 180.06 63.8394C180.005 64.0409 179.935 64.2381 179.85 64.4294C179.85 64.4294 179.85 64.1994 179.77 63.8194C179.704 63.3092 179.6 62.8046 179.46 62.3094C179.371 61.999 179.261 61.6949 179.13 61.3994C178.993 61.0995 178.815 60.8202 178.6 60.5694C178.497 60.4463 178.383 60.3325 178.26 60.2294L177.85 59.9894C177.711 59.9233 177.567 59.8665 177.42 59.8194L177.1 59.7494H176.94H176.87C176.536 59.7023 176.196 59.7227 175.87 59.8094C175.552 59.895 175.253 60.041 174.99 60.2394C174.46 60.6473 174.009 61.1489 173.66 61.7194C173.32 62.2494 173.07 62.7194 172.89 63.0694C172.71 63.4194 172.62 63.6494 172.62 63.6494Z" fill="#01334C"/>
<path d="M192.78 65.7503C192.762 65.544 192.762 65.3366 192.78 65.1303C192.806 64.5801 192.903 64.0355 193.07 63.5103C193.182 63.1455 193.333 62.7935 193.52 62.4603C193.727 62.0659 193.997 61.7079 194.32 61.4003C194.496 61.223 194.694 61.0684 194.91 60.9403C195.126 60.7895 195.366 60.6746 195.62 60.6003C196.123 60.4248 196.66 60.3666 197.19 60.4303H197.37H197.45H197.61L197.92 60.5103C198.184 60.5898 198.438 60.697 198.68 60.8303C199.136 61.0924 199.523 61.4592 199.81 61.9003C200.063 62.2828 200.239 62.7107 200.33 63.1603C200.424 63.5327 200.468 63.9162 200.46 64.3003C200.456 64.8548 200.378 65.4062 200.23 65.9403C200.174 66.1419 200.104 66.3391 200.02 66.5303L199.94 65.9203C199.864 65.411 199.757 64.9067 199.62 64.4103C199.536 64.098 199.426 63.7935 199.29 63.5003C199.156 63.1984 198.977 62.9186 198.76 62.6703C198.656 62.5472 198.543 62.4335 198.42 62.3303C198.28 62.2503 198.15 62.1503 198.02 62.0903C197.878 62.0218 197.731 61.965 197.58 61.9203L197.26 61.8503H197.1H197.03C196.696 61.8012 196.355 61.8217 196.03 61.9103C195.706 61.9895 195.403 62.136 195.14 62.3403C194.612 62.7509 194.162 63.2521 193.81 63.8203C193.48 64.3503 193.22 64.8203 193.04 65.1703L192.78 65.7503Z" fill="#01334C"/>
<path d="M172.55 88.3496L191.55 87.6396C191.55 87.6396 184.42 95.2196 172.55 88.3496Z" fill="white"/>
<path d="M113.67 214.93C113.67 215.552 113.916 216.148 114.355 216.588C114.793 217.029 115.389 217.277 116.01 217.28H205.08C205.702 217.277 206.297 217.029 206.735 216.588C207.174 216.148 207.42 215.552 207.42 214.93C207.42 214.309 207.173 213.714 206.735 213.275C206.296 212.837 205.701 212.59 205.08 212.59H116.01C115.389 212.59 114.794 212.837 114.355 213.275C113.917 213.714 113.67 214.309 113.67 214.93Z" fill="#002838"/>
<path d="M154.55 157.12H77.21C75.0506 157.12 73.3 158.871 73.3 161.03V213.37C73.3 215.53 75.0506 217.28 77.21 217.28H154.55C156.709 217.28 158.46 215.53 158.46 213.37V161.03C158.46 158.871 156.709 157.12 154.55 157.12Z" fill="#01334C"/>
<path d="M152.78 213.35V161.02C152.777 159.985 152.364 158.993 151.631 158.262C150.898 157.531 149.905 157.12 148.87 157.12H154.58C155.614 157.123 156.604 157.534 157.335 158.265C158.066 158.996 158.477 159.987 158.48 161.02V213.35C158.48 214.385 158.069 215.378 157.338 216.111C156.607 216.844 155.615 217.257 154.58 217.26H148.87C149.907 217.26 150.902 216.848 151.635 216.115C152.368 215.382 152.78 214.387 152.78 213.35Z" fill="#002838"/>
</g>
<defs>
<clipPath id="clip0_111_2189">
<rect width="225.94" height="212.99" fill="white" transform="translate(60 5)"/>
</clipPath>
</defs>
</svg>
