<svg width="344" height="218" viewBox="0 0 344 218" fill="none" xmlns="http://www.w3.org/2000/svg">
<path d="M0 10C0 4.47715 4.47715 0 10 0H334C339.523 0 344 4.47715 344 10V218H0V10Z" fill="#EAF6FF"/>
<g clip-path="url(#clip0_111_1912)">
<path d="M171.244 218V188.657L112.826 200.504V218H171.244Z" fill="#33A7C1"/>
<path d="M93.9025 217.987H113.041L111.469 213.62L182.723 201.767C185.979 201.767 189.102 200.485 191.404 198.203C193.706 195.922 195 192.827 195 189.6V161.571C195 138.947 173.572 120.584 144.553 120.584C115.534 120.584 92 138.935 92 161.571V209.466C91.9944 212.21 92.5555 214.926 93.6488 217.447L93.9025 217.987Z" fill="#33A7C1"/>
<path d="M172.024 208.14L170.94 189.575H151.173V190.964L149.48 190.706C148.896 190 148.189 189.402 147.394 188.94L147.736 186.068C147.752 185.901 147.733 185.733 147.682 185.573C147.631 185.413 147.548 185.264 147.438 185.137C147.328 185.009 147.194 184.905 147.042 184.829C146.891 184.754 146.726 184.709 146.557 184.698L131.971 184.133C131.635 184.133 131.312 184.265 131.074 184.501C130.836 184.737 130.703 185.056 130.703 185.39L130.83 188.532C129.447 188.922 128.394 189.475 127.912 190.241C125.471 194.138 128.959 194.641 128.959 194.641C128.959 194.641 125.528 197.582 130.861 200.234C130.861 200.234 128.959 202.119 131.407 203.602V203.891C131.19 204.151 131.078 204.48 131.091 204.816C131.104 205.152 131.241 205.471 131.476 205.714L131.54 207.247C131.559 207.553 131.69 207.84 131.909 208.057C132.127 208.273 132.418 208.403 132.726 208.422L143.887 208.85C144.195 208.853 144.493 208.745 144.726 208.546C144.96 208.347 145.112 208.071 145.155 207.769L145.206 207.342C147.375 206.631 149.772 205.55 151.173 206.116V208.089L172.024 208.14Z" fill="#238E99"/>
<path d="M134.793 184.114L150.755 184.742C150.952 184.75 151.149 184.719 151.334 184.651C151.52 184.583 151.69 184.48 151.835 184.347C151.979 184.213 152.096 184.053 152.179 183.875C152.261 183.698 152.307 183.505 152.315 183.31V182.845C152.329 182.491 152.216 182.144 151.995 181.867C151.774 181.589 151.46 181.399 151.11 181.33L135.256 178.188C135.043 178.146 134.823 178.15 134.612 178.2C134.401 178.251 134.203 178.346 134.033 178.479C133.862 178.612 133.723 178.78 133.624 178.972C133.526 179.164 133.47 179.374 133.461 179.589L133.347 182.581C133.335 182.974 133.48 183.355 133.751 183.643C134.022 183.93 134.397 184.099 134.793 184.114Z" fill="#238E99"/>
<path d="M93.9025 217.987H96.9021L96.6611 217.434C95.57 214.916 95.0069 212.205 95.0059 209.465V161.584C95.0059 139.336 117.728 121.243 146.049 120.621C145.548 120.621 145.054 120.621 144.553 120.621C115.527 120.621 92 138.972 92 161.609V209.503C91.9996 212.234 92.5606 214.937 93.6488 217.447L93.9025 217.987Z" fill="#238E99"/>
<path d="M144.553 120.577C134.448 120.507 124.476 122.855 115.483 127.421C119.776 134.963 127.392 140.418 140.913 140.964C156.576 141.593 165.239 135.038 170.02 125.944C162.029 122.331 153.336 120.499 144.553 120.577Z" fill="#238E99"/>
<path d="M143.823 120.577C140.255 120.573 136.702 121.053 133.265 122.004V130.921C135.908 132.081 138.758 132.705 141.648 132.757C146.119 132.939 149.62 132.128 152.385 130.658V121.551C149.577 120.905 146.705 120.579 143.823 120.577Z" fill="#C6C6C6"/>
<path d="M169.748 57.7323C170.062 57.7103 170.378 57.7103 170.693 57.7323C176.127 58.0591 180.154 64.507 179.698 72.1427C179.241 79.7784 174.46 85.7047 169.025 85.3842C168.71 85.3634 168.396 85.3235 168.086 85.2648L169.748 57.7323Z" fill="#F8BC91"/>
<path d="M142.688 115.857C134.089 115.857 127.113 122.092 127.113 129.778V133.718C127.114 133.999 127.188 134.275 127.328 134.52C127.467 134.765 127.668 134.97 127.91 135.116C128.153 135.261 128.429 135.343 128.713 135.352C128.996 135.362 129.278 135.299 129.529 135.17L142.688 128.357L155.841 135.17C156.093 135.299 156.374 135.362 156.657 135.352C156.941 135.343 157.217 135.261 157.46 135.116C157.702 134.97 157.903 134.765 158.043 134.52C158.182 134.275 158.256 133.999 158.257 133.718V129.778C158.257 122.092 151.281 115.857 142.688 115.857Z" fill="#D9D9D8"/>
<path d="M114.189 217.988V163.614C114.202 163.429 114.176 163.244 114.114 163.07C114.051 162.895 113.953 162.735 113.825 162.6C113.698 162.464 113.544 162.357 113.372 162.283C113.201 162.209 113.016 162.171 112.829 162.171C112.642 162.171 112.457 162.209 112.286 162.283C112.114 162.357 111.96 162.464 111.833 162.6C111.705 162.735 111.607 162.895 111.544 163.07C111.482 163.244 111.456 163.429 111.469 163.614V213.633L113.041 218L114.189 217.988Z" fill="#238E99"/>
<path d="M172.608 201.78V163.614C172.621 163.429 172.595 163.244 172.532 163.07C172.47 162.895 172.372 162.735 172.244 162.6C172.116 162.464 171.962 162.357 171.791 162.283C171.619 162.209 171.434 162.171 171.248 162.171C171.061 162.171 170.876 162.209 170.704 162.283C170.533 162.357 170.379 162.464 170.251 162.6C170.124 162.735 170.025 162.895 169.963 163.07C169.9 163.244 169.875 163.429 169.887 163.614V201.78H172.608Z" fill="#238E99"/>
<path d="M172.608 170.301H169.887V217.994H172.608V170.301Z" fill="#238E99"/>
<path d="M132.852 106.023V122.884C132.852 124.436 137.748 125.693 143.779 125.693C149.81 125.693 154.706 124.436 154.706 122.884V106.023H132.852Z" fill="#F8BC91"/>
<path d="M144.343 119.566C147.872 119.523 151.371 118.919 154.706 117.775V106.023H132.852V118.064C136.567 119.217 140.454 119.725 144.343 119.566Z" fill="#D19066"/>
<path d="M132.852 112.942C135.743 114.157 138.829 114.853 141.965 114.997C146.388 115.153 150.777 114.175 154.706 112.156V106.023H132.852V112.942Z" fill="#D19066"/>
<path d="M111.887 61.5597C111.574 61.5778 111.263 61.6177 110.955 61.6791C105.609 62.716 102.483 69.6416 103.979 77.1516C105.476 84.6616 110.999 89.8966 116.339 88.8596C116.648 88.7971 116.953 88.7153 117.252 88.6145L111.887 61.5597Z" fill="#F8BC91"/>
<path d="M116.333 88.8593C116.642 88.7969 116.947 88.715 117.246 88.6142L111.887 61.5908C111.574 61.6089 111.263 61.6488 110.955 61.7102C109.791 61.9444 108.702 62.458 107.784 63.2059C107.879 63.539 107.974 63.8784 108.07 64.2303C109.613 69.5436 110.768 74.9602 111.526 80.4381C111.852 83.2273 112.332 85.9967 112.965 88.7336C114.063 89.0348 115.216 89.0778 116.333 88.8593Z" fill="#D19066"/>
<path d="M111.5 65.6006C109.319 32.7201 123.327 27.9941 140.272 27.5668C157.217 27.1394 170.522 28.7231 172.868 64.0169C174.073 82.242 176.73 114.042 146.049 114.84C115.369 115.638 112.705 83.7943 111.5 65.6006Z" fill="#F8BC91"/>
<path d="M164.789 34.9134C158.84 27.7113 150.203 27.2902 140.272 27.5479C130.582 27.8056 121.882 29.4333 116.555 36.673C117.506 42.0777 125.503 46.2695 132.738 46.5837C141.242 46.9608 153.837 45.7479 164.789 34.9134Z" fill="#D19066"/>
<path d="M173.09 67.3729C173.02 65.764 172.931 64.1992 172.83 62.7161C170.522 28.6352 157.217 27.108 140.272 27.5228C123.327 27.9376 109.319 32.5504 111.469 64.2935C111.754 68.5104 111.976 73.362 112.566 78.2828C114.912 95.5903 121.761 115.431 146.049 114.796C174.91 114.073 174.269 85.8682 173.09 67.3729ZM171.606 73.0981C170.192 87.785 162.912 87.3325 161.098 86.9806C160.766 86.916 160.428 86.8886 160.09 86.8989L135.015 87.4645C134.182 87.4886 133.37 87.7245 132.656 88.1495C126.023 92.0647 120.537 87.7096 117.24 83.6812C112.407 76.4414 115.597 60.7239 115.597 60.7239C118.375 51.3662 125.008 41.2733 140.469 38.4704C168.245 33.4428 171.46 61.1952 171.631 72.5576C171.632 72.7381 171.624 72.9185 171.606 73.0981Z" fill="#AA551B"/>
<path d="M146.823 113.369C122.528 113.998 115.686 94.1637 113.339 76.8562C112.743 71.9354 112.521 67.0838 112.236 62.8669C111.481 51.737 112.718 43.9505 115.369 38.5018C112.198 43.9882 110.644 52.1581 111.469 64.3186C111.754 68.5355 111.976 73.3872 112.566 78.3079C114.912 95.6155 121.761 115.456 146.049 114.821C158.574 114.494 165.537 109.001 169.317 101.372C165.391 108.235 158.536 113.068 146.823 113.369Z" fill="#632B0B"/>
<path d="M122.852 58.5119C122.852 58.5119 127.031 51.0899 136.987 53.4843C136.987 53.4843 132.06 49.9713 128.109 51.3853C124.158 52.7993 122.852 58.5119 122.852 58.5119Z" fill="#D19066"/>
<path d="M148.434 54.3322C148.434 54.3322 153.298 47.3312 162.988 50.6306C162.988 50.6306 158.415 46.6714 154.325 47.7083C150.235 48.7453 148.434 54.3322 148.434 54.3322Z" fill="#D19066"/>
<path d="M135.434 64.8524C135.503 67.5107 133.943 69.7103 131.946 69.7606C129.948 69.8109 128.274 67.6993 128.204 65.0409C128.134 62.3826 129.694 60.183 131.692 60.1327C133.69 60.0824 135.364 62.194 135.434 64.8524Z" fill="#D19066"/>
<path d="M135.408 63.7274C135.478 66.3857 133.912 68.5853 131.914 68.6356C129.916 68.6859 128.242 66.5743 128.172 63.9159C128.103 61.2576 129.663 59.058 131.66 59.0077C133.658 58.9574 135.332 61.069 135.408 63.7274Z" fill="#1E1C3C"/>
<path d="M134.114 61.8425C134.122 62.127 134.044 62.4073 133.891 62.6479C133.737 62.8886 133.516 63.0788 133.253 63.1945C132.991 63.3102 132.7 63.3462 132.417 63.298C132.134 63.2498 131.871 63.1195 131.663 62.9236C131.455 62.7277 131.31 62.475 131.246 62.1974C131.183 61.9199 131.204 61.6299 131.307 61.3642C131.41 61.0985 131.59 60.8689 131.824 60.7046C132.059 60.5403 132.337 60.4486 132.624 60.441C133.009 60.4326 133.381 60.5751 133.661 60.8376C133.94 61.1001 134.103 61.4613 134.114 61.8425Z" fill="white"/>
<path d="M160.819 63.1622C160.889 65.8205 159.329 68.0201 157.331 68.0704C155.333 68.1207 153.653 66.0091 153.583 63.3507C153.513 60.6924 155.073 58.4991 157.071 58.4425C159.069 58.386 160.749 60.5038 160.819 63.1622Z" fill="#D19066"/>
<path d="M160.787 62.0373C160.857 64.6957 159.297 66.8952 157.299 66.9455C155.302 66.9958 153.628 64.8842 153.551 62.2258C153.475 59.5675 155.048 57.3742 157.046 57.3176C159.043 57.2611 160.717 59.379 160.787 62.0373Z" fill="#1E1C3C"/>
<path d="M159.493 60.152C159.501 60.4367 159.423 60.7173 159.269 60.9581C159.116 61.1989 158.894 61.3892 158.631 61.5047C158.368 61.6203 158.077 61.656 157.793 61.6073C157.51 61.5586 157.248 61.4277 157.04 61.2311C156.832 61.0346 156.687 60.7813 156.624 60.5033C156.562 60.2253 156.584 59.9351 156.688 59.6694C156.791 59.4038 156.972 59.1747 157.208 59.0111C157.443 58.8475 157.722 58.7568 158.009 58.7505C158.2 58.7455 158.389 58.7778 158.567 58.8456C158.745 58.9134 158.907 59.0154 159.045 59.1456C159.183 59.2758 159.294 59.4318 159.371 59.6045C159.448 59.7772 159.489 59.9632 159.493 60.152Z" fill="white"/>
<path d="M149.455 70.9299C147.552 70.7413 146.119 63.4199 145.681 59.7937L142.847 59.9822C142.923 64.2934 143.785 78.6849 145.701 80.2246C151.313 84.7558 158.739 71.8851 149.455 70.9299Z" fill="#EC6E24"/>
<path d="M137.203 54.2696C137.074 54.3151 136.937 54.3286 136.802 54.3089C136.667 54.2892 136.539 54.2368 136.429 54.1565C133.474 52.026 130.868 51.3284 128.699 52.0951C124.945 53.44 123.499 58.7379 123.486 58.7881C123.419 58.9878 123.278 59.1548 123.092 59.2554C122.905 59.3559 122.687 59.3826 122.482 59.3299C122.276 59.2772 122.099 59.149 121.985 58.9715C121.871 58.7939 121.83 58.5801 121.869 58.3734C121.939 58.1157 123.549 52.1768 128.134 50.5429C130.861 49.5751 133.988 50.3418 137.418 52.8242C137.508 52.8877 137.583 52.9682 137.641 53.0609C137.698 53.1536 137.737 53.2567 137.754 53.3643C137.771 53.4718 137.766 53.5817 137.74 53.6874C137.714 53.7932 137.667 53.8928 137.602 53.9805C137.501 54.1143 137.362 54.215 137.203 54.2696Z" fill="#964D15"/>
<path d="M163.26 51.4479C163.128 51.4824 162.989 51.4838 162.857 51.452C162.724 51.4202 162.601 51.3561 162.499 51.2656C159.76 48.8649 157.236 47.9285 154.997 48.4879C151.135 49.4682 149.188 54.609 149.169 54.6593C149.094 54.8651 148.939 55.0327 148.738 55.1252C148.538 55.2178 148.309 55.2276 148.101 55.1526C147.893 55.0776 147.724 54.9239 147.631 54.7253C147.537 54.5267 147.527 54.2995 147.603 54.0937C147.692 53.8486 149.861 48.0857 154.579 46.8853C157.382 46.1814 160.419 47.2372 163.603 50.0276C163.768 50.1736 163.868 50.3787 163.881 50.5977C163.894 50.8168 163.819 51.0321 163.673 51.1965C163.564 51.3193 163.42 51.4068 163.26 51.4479Z" fill="#964D15"/>
<path d="M137.196 91.7756C136.486 92.9465 136.173 94.3119 136.302 95.672C136.797 100.216 142.441 103.345 148.909 102.654C155.378 101.963 160.223 97.7145 159.728 93.1708C159.564 91.8133 158.964 90.544 158.016 89.5509L137.196 91.7756Z" fill="#422918"/>
<path d="M146.982 98.1423C143.36 96.4518 139.556 96.2255 136.708 97.2687C138.186 100.92 143.227 103.258 148.909 102.655C150 102.537 151.075 102.31 152.118 101.976C150.696 100.355 148.946 99.0492 146.982 98.1423Z" fill="#F16E21"/>
<path d="M136.359 95.9988L159.69 94.6916C159.769 94.1885 159.782 93.6772 159.728 93.1708C159.564 91.8133 158.964 90.544 158.016 89.5509L137.196 91.7756C136.486 92.9465 136.173 94.3119 136.302 95.672C136.315 95.7851 136.34 95.8857 136.359 95.9988Z" fill="white"/>
<path d="M147.146 103.665C140.982 103.665 135.877 100.353 135.383 95.7721C135.231 94.2183 135.584 92.6571 136.391 91.3163L136.626 90.9141L158.39 88.5889L158.707 88.9345C159.782 90.0728 160.462 91.5216 160.648 93.0697C161.199 98.0973 155.974 102.817 149.011 103.565C148.377 103.609 147.755 103.665 147.146 103.665ZM137.78 92.6298C137.315 93.5376 137.122 94.5579 137.222 95.571C137.659 99.6119 142.86 102.352 148.821 101.723C154.782 101.095 159.259 97.2866 158.821 93.252C158.703 92.2392 158.294 91.2814 157.642 90.4931L137.78 92.6298Z" fill="#422918"/>
<path d="M122.389 86.6408C122.389 86.6408 133.449 80.2432 148.928 85.5913C148.928 85.5913 161.212 79.5582 169.71 84.6046C169.71 84.6046 163.698 96.96 149.036 92.4414C149.036 92.4351 134.368 99.6686 122.389 86.6408Z" fill="#632B0B"/>
<path d="M147.33 107.053C144.614 107.057 141.922 106.549 139.397 105.557C139.225 105.479 139.091 105.337 139.024 105.162C138.956 104.987 138.961 104.793 139.036 104.621C139.112 104.449 139.252 104.313 139.428 104.243C139.603 104.172 139.799 104.173 139.974 104.244C140.057 104.282 148.637 107.876 156.183 103.169C156.346 103.07 156.541 103.039 156.728 103.081C156.914 103.123 157.076 103.236 157.179 103.396C157.23 103.475 157.265 103.563 157.282 103.656C157.299 103.748 157.297 103.843 157.276 103.935C157.255 104.027 157.216 104.114 157.162 104.19C157.107 104.267 157.037 104.332 156.957 104.382C154.07 106.163 150.73 107.089 147.33 107.053Z" fill="#632B0B"/>
<path d="M107.727 142.083C107.481 142.082 107.239 142.019 107.024 141.9C106.809 141.781 106.627 141.611 106.497 141.404C105.878 140.317 105.074 139.345 104.119 138.532C103.811 138.308 103.604 137.974 103.541 137.6C103.478 137.227 103.565 136.844 103.783 136.533C104.002 136.226 104.335 136.018 104.71 135.953C105.084 135.888 105.469 135.973 105.78 136.188C107.069 137.21 108.145 138.469 108.951 139.896C109.087 140.113 109.161 140.362 109.167 140.617C109.173 140.872 109.11 141.124 108.985 141.348C108.859 141.571 108.676 141.756 108.454 141.886C108.231 142.015 107.978 142.083 107.721 142.083H107.727Z" fill="#238E99"/>
<path d="M112.039 154.778C111.696 154.778 111.363 154.656 111.102 154.435C110.84 154.214 110.667 153.908 110.613 153.572C110.28 151.422 109.784 149.3 109.129 147.224C109.071 147.045 109.049 146.856 109.065 146.668C109.081 146.48 109.134 146.297 109.221 146.13C109.308 145.962 109.428 145.813 109.573 145.692C109.718 145.57 109.886 145.478 110.067 145.421C110.248 145.363 110.439 145.342 110.629 145.358C110.818 145.373 111.003 145.426 111.172 145.512C111.341 145.598 111.491 145.717 111.614 145.861C111.736 146.005 111.829 146.171 111.887 146.351C112.582 148.565 113.112 150.828 113.473 153.119C113.503 153.305 113.496 153.496 113.452 153.679C113.408 153.863 113.328 154.036 113.216 154.189C113.104 154.341 112.962 154.47 112.799 154.568C112.637 154.666 112.456 154.731 112.268 154.759C112.192 154.772 112.116 154.778 112.039 154.778Z" fill="#238E99"/>
<path d="M112.832 165.782C112.449 165.782 112.081 165.631 111.81 165.362C111.539 165.093 111.386 164.729 111.386 164.349C111.386 162.91 111.348 161.489 111.272 160.125C111.252 159.745 111.385 159.373 111.642 159.09C111.899 158.807 112.258 158.637 112.642 158.617C113.025 158.597 113.401 158.729 113.687 158.984C113.972 159.238 114.144 159.595 114.164 159.975C114.24 161.389 114.278 162.859 114.278 164.374C114.271 164.749 114.116 165.108 113.846 165.371C113.575 165.634 113.211 165.782 112.832 165.782Z" fill="#238E99"/>
<path d="M177.903 139.827C177.588 139.828 177.282 139.724 177.034 139.532C176.729 139.308 176.524 138.974 176.466 138.602C176.408 138.23 176.5 137.851 176.724 137.546C177.665 136.22 178.835 135.069 180.18 134.146C180.508 133.949 180.901 133.888 181.274 133.978C181.647 134.069 181.968 134.302 182.168 134.627C182.367 134.952 182.428 135.342 182.337 135.711C182.246 136.081 182.011 136.399 181.683 136.597C180.66 137.343 179.765 138.247 179.032 139.274C178.898 139.444 178.727 139.583 178.531 139.678C178.336 139.774 178.121 139.825 177.903 139.827Z" fill="#238E99"/>
<path d="M172.284 153.885C172.198 153.891 172.111 153.891 172.024 153.885C171.837 153.851 171.659 153.781 171.499 153.679C171.34 153.576 171.202 153.443 171.094 153.288C170.986 153.133 170.911 152.958 170.871 152.774C170.831 152.589 170.829 152.399 170.864 152.214C171.329 149.622 172.029 147.076 172.957 144.609C173.017 144.424 173.114 144.253 173.242 144.107C173.371 143.96 173.529 143.841 173.705 143.757C173.882 143.672 174.074 143.624 174.27 143.616C174.466 143.607 174.661 143.638 174.845 143.707C175.028 143.775 175.195 143.88 175.337 144.015C175.478 144.15 175.59 144.312 175.666 144.491C175.742 144.67 175.781 144.863 175.779 145.057C175.778 145.251 175.737 145.443 175.658 145.621C174.796 147.931 174.143 150.311 173.705 152.735C173.639 153.06 173.461 153.352 173.202 153.562C172.943 153.772 172.619 153.886 172.284 153.885Z" fill="#238E99"/>
<path d="M171.251 165.782C170.867 165.782 170.498 165.631 170.226 165.363C169.954 165.094 169.8 164.73 169.799 164.349C169.799 162.86 169.843 161.389 169.919 159.95C169.929 159.762 169.977 159.578 170.059 159.408C170.142 159.238 170.257 159.086 170.399 158.96C170.54 158.834 170.705 158.737 170.885 158.675C171.064 158.612 171.254 158.586 171.444 158.596C171.634 158.606 171.82 158.654 171.991 158.735C172.163 158.817 172.316 158.931 172.443 159.071C172.57 159.211 172.668 159.375 172.731 159.553C172.794 159.731 172.821 159.919 172.811 160.107C172.735 161.471 172.697 162.891 172.697 164.324C172.7 164.514 172.665 164.704 172.594 164.88C172.523 165.057 172.417 165.218 172.282 165.354C172.148 165.489 171.987 165.597 171.81 165.671C171.633 165.744 171.443 165.782 171.251 165.782Z" fill="#238E99"/>
<path d="M137.171 179.024L138.04 200.906C138.059 201.212 138.191 201.5 138.409 201.716C138.627 201.932 138.918 202.062 139.226 202.082L150.387 202.509C150.695 202.512 150.993 202.404 151.226 202.205C151.46 202.006 151.612 201.73 151.655 201.428L154.236 179.69C154.252 179.523 154.234 179.354 154.182 179.194C154.131 179.034 154.048 178.886 153.938 178.758C153.828 178.631 153.694 178.526 153.542 178.451C153.391 178.375 153.226 178.331 153.057 178.32L138.471 177.754C138.301 177.75 138.131 177.78 137.973 177.842C137.815 177.904 137.67 177.997 137.549 178.116C137.428 178.234 137.332 178.375 137.267 178.532C137.202 178.688 137.169 178.855 137.171 179.024Z" fill="#BAA28A"/>
<path d="M154.205 179.985L154.236 179.69C154.252 179.522 154.234 179.354 154.182 179.194C154.131 179.034 154.048 178.886 153.938 178.758C153.828 178.63 153.694 178.526 153.542 178.45C153.391 178.375 153.226 178.331 153.057 178.32L138.471 177.754C138.135 177.754 137.812 177.886 137.574 178.122C137.336 178.358 137.203 178.677 137.203 179.011V179.306L154.205 179.985Z" fill="#A58E79"/>
<path d="M155.98 184.328C155.284 183.482 154.416 182.791 153.433 182.298C152.449 181.806 151.373 181.523 150.273 181.468C145.149 181.192 136.087 181.129 134.355 183.888C131.914 187.784 135.402 188.287 135.402 188.287C135.402 188.287 131.971 191.228 137.304 193.88C137.304 193.88 135.326 195.841 138.002 197.343C138.002 197.343 136.258 199.417 139.517 199.995C142.777 200.573 148.504 201.956 151.167 201.145C153.83 200.335 157.001 198.707 158.276 200.209C159.551 201.711 164.89 185.679 164.89 185.679L155.98 184.328Z" fill="#F8BC91"/>
<path d="M155.98 184.328C155.815 184.128 155.639 183.937 155.454 183.756V199.762C156.665 199.479 157.705 199.479 158.314 200.196C159.582 201.698 164.928 185.666 164.928 185.666L155.98 184.328Z" fill="#D19066"/>
<path d="M183.623 183.177H157.673V201.742H183.623V183.177Z" fill="#33A7C1"/>
<path d="M153.463 178.338L137.501 177.71C137.103 177.695 136.728 177.525 136.457 177.236C136.186 176.948 136.041 176.564 136.055 176.17L136.175 173.179C136.184 172.964 136.24 172.753 136.338 172.561C136.437 172.37 136.576 172.202 136.747 172.068C136.918 171.935 137.115 171.84 137.326 171.79C137.538 171.74 137.757 171.735 137.97 171.777L153.824 174.92C154.175 174.99 154.489 175.181 154.709 175.46C154.93 175.739 155.044 176.086 155.029 176.44V176.905C155.022 177.102 154.975 177.295 154.892 177.473C154.81 177.651 154.692 177.812 154.546 177.945C154.401 178.078 154.23 178.181 154.044 178.249C153.858 178.316 153.661 178.347 153.463 178.338Z" fill="#632B0B"/>
<path d="M175.17 183.184H159.119C158.788 183.174 158.464 183.281 158.205 183.484C157.945 183.688 157.766 183.975 157.699 184.297C157.665 184.49 157.673 184.689 157.725 184.878C157.776 185.068 157.869 185.244 157.997 185.395C158.124 185.545 158.283 185.666 158.463 185.749C158.643 185.831 158.839 185.874 159.037 185.874H175.17C175.349 185.875 175.526 185.841 175.691 185.773C175.857 185.706 176.007 185.607 176.134 185.482C176.26 185.357 176.361 185.209 176.429 185.045C176.498 184.882 176.533 184.706 176.533 184.529C176.533 184.352 176.498 184.177 176.429 184.013C176.361 183.849 176.26 183.701 176.134 183.576C176.007 183.451 175.857 183.352 175.691 183.285C175.526 183.218 175.349 183.183 175.17 183.184Z" fill="#238E99"/>
<path d="M120.372 31.4757C120.372 31.4757 125.585 19.6168 142.631 18.8375C154.154 18.3096 162.728 20.9491 165.822 13.8916C168.917 6.83408 180.04 20.9428 168.942 32.3869C157.845 43.831 144.908 45.0942 136.233 44.7108C127.557 44.3275 117.798 38.3949 120.372 31.4757Z" fill="#723710"/>
<path d="M164.789 34.9134C158.84 27.7113 150.203 27.2902 140.272 27.5479C130.582 27.8056 121.882 29.4333 116.555 36.673C117.189 40.274 120.943 43.3346 125.528 45.0691C129.244 42.0086 134.108 39.6205 140.469 38.4704C147.85 37.1318 153.494 38.1185 157.813 40.4877C160.338 38.889 162.677 37.0196 164.789 34.9134Z" fill="#723710"/>
<path d="M169.621 12.4148C169.225 12.1489 168.758 12.0068 168.28 12.0068C167.802 12.0068 167.334 12.1489 166.938 12.4148C167.864 12.4274 168.758 12.4274 169.621 12.4148Z" fill="#632B0B"/>
<path d="M126.067 28.0189C127.256 25.6826 128.829 23.5588 130.722 21.7344C123.023 25.4737 120.372 31.5005 120.372 31.5005C117.798 38.4135 127.564 44.3523 136.226 44.7357C139.135 44.8761 142.05 44.7689 144.94 44.4152C134.4 43.5982 122.953 36.3647 126.067 28.0189Z" fill="#632B0B"/>
</g>
<path d="M210.75 214.81C210.75 215.431 210.504 216.028 210.065 216.468C209.627 216.908 209.032 217.157 208.41 217.16H119.34C118.719 217.157 118.123 216.908 117.685 216.468C117.246 216.028 117 215.431 117 214.81C117 214.189 117.247 213.594 117.685 213.155C118.124 212.716 118.719 212.47 119.34 212.47H208.41C209.031 212.47 209.626 212.716 210.065 213.155C210.503 213.594 210.75 214.189 210.75 214.81Z" fill="#002838"/>
<path d="M169.87 157H247.21C249.37 157 251.12 158.751 251.12 160.91V213.25C251.12 215.409 249.37 217.16 247.21 217.16H169.87C167.711 217.16 165.96 215.409 165.96 213.25V160.91C165.96 158.751 167.711 157 169.87 157Z" fill="#01334C"/>
<defs>
<clipPath id="clip0_111_1912">
<rect width="103" height="206" fill="white" transform="translate(92 12)"/>
</clipPath>
</defs>
</svg>
