<svg width="20" height="20" viewBox="0 0 20 20" fill="none" xmlns="http://www.w3.org/2000/svg">
<path d="M17.7593 0C14.4309 0 9.96819 2.28257 6.97029 6.20684H4.48444C2.68911 6.20684 1.66033 7.54752 0.951199 8.96423L0 10.862H4.48444L6.81201 13.1895L9.13958 15.5171V20L11.0373 19.0504C12.454 18.3428 13.7947 17.3124 13.7947 15.5171V13.0313C17.719 10.0334 20.0016 5.56909 20.0016 2.24222V0H17.7593ZM13.7947 4.65513C14.2062 4.65513 14.6009 4.81862 14.8919 5.10962C15.1829 5.40062 15.3464 5.7953 15.3464 6.20684C15.3464 6.61838 15.1829 7.01307 14.8919 7.30407C14.6009 7.59507 14.2062 7.75855 13.7947 7.75855C13.3832 7.75855 12.9885 7.59507 12.6975 7.30407C12.4065 7.01307 12.243 6.61838 12.243 6.20684C12.243 5.7953 12.4065 5.40062 12.6975 5.10962C12.9885 4.81862 13.3832 4.65513 13.7947 4.65513ZM3.70859 13.9654L2.93273 14.7413C1.8124 15.8616 1.38102 18.6205 1.38102 18.6205C1.38102 18.6205 4.01583 18.3133 5.2603 17.0688L6.03615 16.293L3.70859 13.9654Z" fill="#1CB2E8"/>
</svg>
