<svg width="171" height="188" viewBox="0 0 171 188" fill="none" xmlns="http://www.w3.org/2000/svg">
<g filter="url(#filter0_d_327_14692)">
<path d="M81.4708 3.97632L151.196 44.2322V124.744L81.4708 165L11.7455 124.744V44.2322L81.4708 3.97632Z" fill="#E9E9E9"/>
</g>
<path d="M52.2456 105.176C51.1469 105.176 50.1869 104.931 49.3656 104.44C48.5442 103.939 47.9042 103.245 47.4456 102.36C46.9869 101.464 46.7576 100.419 46.7576 99.224C46.7576 98.0293 46.9922 96.984 47.4616 96.088C47.9309 95.192 48.5816 94.4933 49.4136 93.992C50.2562 93.4907 51.2269 93.24 52.3256 93.24C53.2002 93.24 53.9896 93.4053 54.6936 93.736C55.3976 94.056 55.9842 94.5093 56.4536 95.096C56.9229 95.6827 57.2269 96.3707 57.3656 97.16H55.6856C55.4722 96.4027 55.0616 95.8107 54.4536 95.384C53.8456 94.9573 53.1202 94.744 52.2776 94.744C51.4989 94.744 50.8162 94.9307 50.2296 95.304C49.6536 95.6667 49.2056 96.184 48.8856 96.856C48.5656 97.5173 48.4056 98.3013 48.4056 99.208C48.4056 100.104 48.5656 100.888 48.8856 101.56C49.2056 102.232 49.6589 102.755 50.2456 103.128C50.8322 103.491 51.5096 103.672 52.2776 103.672C53.1309 103.672 53.8669 103.464 54.4856 103.048C55.1149 102.621 55.5362 102.051 55.7496 101.336H57.4136C57.2536 102.104 56.9282 102.776 56.4376 103.352C55.9576 103.928 55.3549 104.376 54.6296 104.696C53.9149 105.016 53.1202 105.176 52.2456 105.176ZM58.5682 101.08C58.5682 100.28 58.7442 99.5707 59.0962 98.952C59.4482 98.3333 59.9282 97.848 60.5362 97.496C61.1549 97.144 61.8589 96.968 62.6482 96.968C63.4375 96.968 64.1362 97.144 64.7442 97.496C65.3522 97.848 65.8322 98.3333 66.1842 98.952C66.5362 99.5707 66.7122 100.28 66.7122 101.08C66.7122 101.88 66.5362 102.589 66.1842 103.208C65.8322 103.827 65.3522 104.312 64.7442 104.664C64.1362 105.016 63.4375 105.192 62.6482 105.192C61.8589 105.192 61.1549 105.016 60.5362 104.664C59.9282 104.312 59.4482 103.827 59.0962 103.208C58.7442 102.589 58.5682 101.88 58.5682 101.08ZM60.0882 101.08C60.0882 101.624 60.1949 102.104 60.4082 102.52C60.6322 102.936 60.9362 103.261 61.3202 103.496C61.7042 103.731 62.1469 103.848 62.6482 103.848C63.1495 103.848 63.5922 103.731 63.9762 103.496C64.3602 103.261 64.6589 102.936 64.8722 102.52C65.0962 102.104 65.2082 101.624 65.2082 101.08C65.2082 100.525 65.0962 100.045 64.8722 99.64C64.6589 99.224 64.3602 98.8987 63.9762 98.664C63.5922 98.4293 63.1495 98.312 62.6482 98.312C62.1469 98.312 61.7042 98.4293 61.3202 98.664C60.9362 98.8987 60.6322 99.224 60.4082 99.64C60.1949 100.045 60.0882 100.525 60.0882 101.08ZM73.5976 97.176H75.0856V105H73.7416L73.5816 103.816C73.3576 104.221 73.0056 104.552 72.5256 104.808C72.0456 105.064 71.5176 105.192 70.9416 105.192C70.0349 105.192 69.3309 104.909 68.8296 104.344C68.3389 103.768 68.0936 103 68.0936 102.04V97.176H69.5976V101.544C69.5976 102.376 69.7629 102.973 70.0936 103.336C70.4349 103.688 70.8936 103.864 71.4696 103.864C72.1629 103.864 72.6909 103.651 73.0536 103.224C73.4162 102.787 73.5976 102.147 73.5976 101.304V97.176ZM78.7717 105H77.2677V97.176H78.6277L78.7877 98.376C79.033 97.928 79.385 97.5813 79.8437 97.336C80.313 97.08 80.825 96.952 81.3797 96.952C82.4037 96.952 83.161 97.2453 83.6517 97.832C84.1424 98.4187 84.3877 99.2133 84.3877 100.216V105H82.8837V100.552C82.8837 99.7627 82.713 99.1973 82.3717 98.856C82.0304 98.504 81.5717 98.328 80.9957 98.328C80.2917 98.328 79.7424 98.5573 79.3477 99.016C78.9637 99.4747 78.7717 100.088 78.7717 100.856V105ZM85.6388 97.176H90.2148V98.44H85.6388V97.176ZM88.6788 105H87.1748V94.728H88.6788V105ZM96.0446 97.112V98.488H95.3726C94.6579 98.488 94.0926 98.696 93.6766 99.112C93.2712 99.5173 93.0686 100.099 93.0686 100.856V105H91.5646V97.192H92.9726L93.1006 98.76H92.9566C93.0632 98.248 93.3192 97.832 93.7246 97.512C94.1299 97.1813 94.6366 97.016 95.2446 97.016C95.3832 97.016 95.5112 97.0267 95.6286 97.048C95.7566 97.0587 95.8952 97.08 96.0446 97.112ZM97.4552 105V97.176H98.9592V105H97.4552ZM98.1912 95.32C97.9245 95.32 97.6899 95.224 97.4872 95.032C97.2952 94.8293 97.1992 94.5947 97.1992 94.328C97.1992 94.0507 97.2952 93.816 97.4872 93.624C97.6899 93.432 97.9245 93.336 98.1912 93.336C98.4685 93.336 98.7032 93.432 98.8952 93.624C99.0872 93.816 99.1832 94.0507 99.1832 94.328C99.1832 94.5947 99.0872 94.8293 98.8952 95.032C98.7032 95.224 98.4685 95.32 98.1912 95.32ZM104.519 105.192C103.761 105.192 103.089 105.021 102.503 104.68C101.916 104.328 101.457 103.848 101.127 103.24C100.796 102.621 100.631 101.907 100.631 101.096C100.631 100.275 100.791 99.5547 101.111 98.936C101.441 98.3173 101.889 97.832 102.455 97.48C103.031 97.128 103.697 96.952 104.455 96.952C105.201 96.952 105.847 97.112 106.391 97.432C106.945 97.752 107.372 98.2 107.671 98.776C107.98 99.352 108.135 100.029 108.135 100.808V101.368L101.431 101.384L101.463 100.376H106.631C106.631 99.7253 106.433 99.2027 106.039 98.808C105.644 98.4133 105.116 98.216 104.455 98.216C103.953 98.216 103.521 98.328 103.159 98.552C102.807 98.7653 102.535 99.0853 102.343 99.512C102.161 99.928 102.071 100.429 102.071 101.016C102.071 101.955 102.284 102.68 102.711 103.192C103.137 103.693 103.751 103.944 104.551 103.944C105.137 103.944 105.617 103.827 105.991 103.592C106.364 103.357 106.615 103.016 106.743 102.568H108.151C107.959 103.4 107.548 104.045 106.919 104.504C106.289 104.963 105.489 105.192 104.519 105.192ZM109.175 102.728H110.615C110.615 103.123 110.759 103.437 111.047 103.672C111.335 103.896 111.724 104.008 112.215 104.008C112.748 104.008 113.159 103.907 113.447 103.704C113.735 103.491 113.879 103.208 113.879 102.856C113.879 102.6 113.799 102.387 113.639 102.216C113.489 102.045 113.212 101.907 112.807 101.8L111.431 101.48C110.737 101.309 110.22 101.048 109.879 100.696C109.548 100.344 109.383 99.88 109.383 99.304C109.383 98.824 109.505 98.408 109.751 98.056C110.007 97.704 110.353 97.432 110.791 97.24C111.239 97.048 111.751 96.952 112.327 96.952C112.903 96.952 113.399 97.0533 113.815 97.256C114.241 97.4587 114.572 97.7413 114.807 98.104C115.052 98.4667 115.18 98.8987 115.191 99.4H113.751C113.74 98.9947 113.607 98.68 113.351 98.456C113.095 98.232 112.737 98.12 112.279 98.12C111.809 98.12 111.447 98.2213 111.191 98.424C110.935 98.6267 110.807 98.904 110.807 99.256C110.807 99.7787 111.191 100.136 111.959 100.328L113.335 100.664C113.996 100.813 114.492 101.059 114.823 101.4C115.153 101.731 115.319 102.184 115.319 102.76C115.319 103.251 115.185 103.683 114.919 104.056C114.652 104.419 114.284 104.701 113.815 104.904C113.356 105.096 112.812 105.192 112.183 105.192C111.265 105.192 110.535 104.968 109.991 104.52C109.447 104.072 109.175 103.475 109.175 102.728Z" fill="#212121"/>
<path d="M75.8536 71.7436C74.2829 71.7436 72.8983 71.4336 71.6996 70.8136C70.5216 70.1729 69.6019 69.2842 68.9406 68.1476C68.2999 66.9902 67.9796 65.6469 67.9796 64.1176H71.8856C71.8856 65.3989 72.2473 66.4012 72.9706 67.1246C73.6939 67.8479 74.6859 68.2096 75.9466 68.2096C76.8353 68.2096 77.5999 68.0339 78.2406 67.6826C78.9019 67.3106 79.4083 66.7836 79.7596 66.1016C80.1316 65.4196 80.3176 64.6239 80.3176 63.7146C80.3176 62.8466 80.1419 62.0819 79.7906 61.4206C79.4599 60.7386 78.9743 60.2116 78.3336 59.8396C77.6929 59.4676 76.9179 59.2816 76.0086 59.2816C75.1406 59.2816 74.3346 59.4779 73.5906 59.8706C72.8673 60.2426 72.2989 60.7282 71.8856 61.3276L68.3826 60.5836L71.1726 48.7106H82.9836V52.3686H73.0016L74.3346 51.1286L72.5056 58.3516L71.1726 58.9096C71.6686 57.9589 72.4126 57.2356 73.4046 56.7396C74.4173 56.2229 75.5539 55.9646 76.8146 55.9646C78.3233 55.9646 79.6356 56.2849 80.7516 56.9256C81.8883 57.5662 82.7666 58.4549 83.3866 59.5916C84.0273 60.7076 84.3476 62.0096 84.3476 63.4976C84.3476 65.1302 83.9859 66.5666 83.2626 67.8066C82.5599 69.0466 81.5679 70.0179 80.2866 70.7206C79.0259 71.4026 77.5483 71.7436 75.8536 71.7436ZM97.1075 53.1746V68.7056H93.9455V53.1746H97.1075ZM87.7765 59.3436H103.276V62.5056H87.7765V59.3436Z" fill="#212121"/>
<defs>
<filter id="filter0_d_327_14692" x="4.74512" y="0.976318" width="165.451" height="187.024" filterUnits="userSpaceOnUse" color-interpolation-filters="sRGB">
<feFlood flood-opacity="0" result="BackgroundImageFix"/>
<feColorMatrix in="SourceAlpha" type="matrix" values="0 0 0 0 0 0 0 0 0 0 0 0 0 0 0 0 0 0 127 0" result="hardAlpha"/>
<feOffset dx="6" dy="10"/>
<feGaussianBlur stdDeviation="6.5"/>
<feComposite in2="hardAlpha" operator="out"/>
<feColorMatrix type="matrix" values="0 0 0 0 0 0 0 0 0 0 0 0 0 0 0 0 0 0 0.16 0"/>
<feBlend mode="normal" in2="BackgroundImageFix" result="effect1_dropShadow_327_14692"/>
<feBlend mode="normal" in="SourceGraphic" in2="effect1_dropShadow_327_14692" result="shape"/>
</filter>
</defs>
</svg>
