<svg width="171" height="188" viewBox="0 0 171 188" fill="none" xmlns="http://www.w3.org/2000/svg">
<g filter="url(#filter0_d_327_14693)">
<path d="M81.4766 3L151.202 43.4941V124.482L81.4766 164.976L11.7514 124.482V43.4941L81.4766 3Z" fill="#E9E9E9"/>
</g>
<path d="M52.0424 98.176C50.9438 98.176 49.9838 97.9307 49.1624 97.44C48.3411 96.9387 47.7011 96.2453 47.2424 95.36C46.7838 94.464 46.5544 93.4187 46.5544 92.224C46.5544 91.0293 46.7891 89.984 47.2584 89.088C47.7278 88.192 48.3784 87.4933 49.2104 86.992C50.0531 86.4907 51.0238 86.24 52.1224 86.24C52.9971 86.24 53.7864 86.4053 54.4904 86.736C55.1944 87.056 55.7811 87.5093 56.2504 88.096C56.7198 88.6827 57.0238 89.3707 57.1624 90.16H55.4824C55.2691 89.4027 54.8584 88.8107 54.2504 88.384C53.6424 87.9573 52.9171 87.744 52.0744 87.744C51.2958 87.744 50.6131 87.9307 50.0264 88.304C49.4504 88.6667 49.0024 89.184 48.6824 89.856C48.3624 90.5173 48.2024 91.3013 48.2024 92.208C48.2024 93.104 48.3624 93.888 48.6824 94.56C49.0024 95.232 49.4558 95.7547 50.0424 96.128C50.6291 96.4907 51.3064 96.672 52.0744 96.672C52.9278 96.672 53.6638 96.464 54.2824 96.048C54.9118 95.6213 55.3331 95.0507 55.5464 94.336H57.2104C57.0504 95.104 56.7251 95.776 56.2344 96.352C55.7544 96.928 55.1518 97.376 54.4264 97.696C53.7118 98.016 52.9171 98.176 52.0424 98.176ZM58.3651 94.08C58.3651 93.28 58.5411 92.5707 58.8931 91.952C59.2451 91.3333 59.7251 90.848 60.3331 90.496C60.9517 90.144 61.6557 89.968 62.4451 89.968C63.2344 89.968 63.9331 90.144 64.5411 90.496C65.1491 90.848 65.6291 91.3333 65.9811 91.952C66.3331 92.5707 66.5091 93.28 66.5091 94.08C66.5091 94.88 66.3331 95.5893 65.9811 96.208C65.6291 96.8267 65.1491 97.312 64.5411 97.664C63.9331 98.016 63.2344 98.192 62.4451 98.192C61.6557 98.192 60.9517 98.016 60.3331 97.664C59.7251 97.312 59.2451 96.8267 58.8931 96.208C58.5411 95.5893 58.3651 94.88 58.3651 94.08ZM59.8851 94.08C59.8851 94.624 59.9917 95.104 60.2051 95.52C60.4291 95.936 60.7331 96.2613 61.1171 96.496C61.5011 96.7307 61.9437 96.848 62.4451 96.848C62.9464 96.848 63.3891 96.7307 63.7731 96.496C64.1571 96.2613 64.4557 95.936 64.6691 95.52C64.8931 95.104 65.0051 94.624 65.0051 94.08C65.0051 93.5253 64.8931 93.0453 64.6691 92.64C64.4557 92.224 64.1571 91.8987 63.7731 91.664C63.3891 91.4293 62.9464 91.312 62.4451 91.312C61.9437 91.312 61.5011 91.4293 61.1171 91.664C60.7331 91.8987 60.4291 92.224 60.2051 92.64C59.9917 93.0453 59.8851 93.5253 59.8851 94.08ZM69.6779 98H68.1739V90.176H69.5179L69.7259 91.616L69.5339 91.488C69.6939 91.0507 69.9873 90.688 70.4139 90.4C70.8513 90.1013 71.3793 89.952 71.9979 89.952C72.6913 89.952 73.2673 90.1387 73.7259 90.512C74.1846 90.8853 74.4833 91.3813 74.6219 92H74.3499C74.4566 91.3813 74.7499 90.8853 75.2299 90.512C75.7099 90.1387 76.3019 89.952 77.0059 89.952C77.9019 89.952 78.6059 90.2133 79.1179 90.736C79.6299 91.2587 79.8859 91.9733 79.8859 92.88V98H78.4139V93.248C78.4139 92.6293 78.2539 92.1547 77.9339 91.824C77.6246 91.4827 77.2033 91.312 76.6699 91.312C76.2966 91.312 75.9659 91.3973 75.6779 91.568C75.4006 91.728 75.1819 91.9627 75.0219 92.272C74.8619 92.5813 74.7819 92.944 74.7819 93.36V98H73.2939V93.232C73.2939 92.6133 73.1393 92.144 72.8299 91.824C72.5206 91.4933 72.0993 91.328 71.5659 91.328C71.1926 91.328 70.8619 91.4133 70.5739 91.584C70.2966 91.744 70.0779 91.9787 69.9179 92.288C69.7579 92.5867 69.6779 92.944 69.6779 93.36V98ZM81.9708 101.504V90.176H83.3308L83.4428 91.584C83.6988 91.04 84.0775 90.6347 84.5788 90.368C85.0908 90.0907 85.6561 89.952 86.2748 89.952C87.0215 89.952 87.6668 90.128 88.2108 90.48C88.7548 90.8213 89.1708 91.3013 89.4588 91.92C89.7575 92.528 89.9068 93.232 89.9068 94.032C89.9068 94.832 89.7628 95.5467 89.4748 96.176C89.1975 96.8053 88.7868 97.3013 88.2428 97.664C87.7095 98.0267 87.0535 98.208 86.2748 98.208C85.6455 98.208 85.0855 98.08 84.5948 97.824C84.1041 97.568 83.7308 97.2 83.4748 96.72V101.504H81.9708ZM83.4908 94.096C83.4908 94.6187 83.5868 95.0933 83.7788 95.52C83.9815 95.936 84.2641 96.2613 84.6268 96.496C85.0001 96.7307 85.4428 96.848 85.9548 96.848C86.4668 96.848 86.9041 96.7307 87.2668 96.496C87.6295 96.2507 87.9068 95.92 88.0988 95.504C88.3015 95.088 88.4028 94.6187 88.4028 94.096C88.4028 93.552 88.3015 93.072 88.0988 92.656C87.9068 92.24 87.6295 91.9147 87.2668 91.68C86.9041 91.4453 86.4668 91.328 85.9548 91.328C85.4428 91.328 85.0001 91.4453 84.6268 91.68C84.2641 91.9147 83.9815 92.24 83.7788 92.656C83.5868 93.072 83.4908 93.552 83.4908 94.096ZM93.1006 98H91.5966V86.224H93.1006V98ZM98.6906 98.192C97.9332 98.192 97.2612 98.0213 96.6746 97.68C96.0879 97.328 95.6292 96.848 95.2986 96.24C94.9679 95.6213 94.8026 94.9067 94.8026 94.096C94.8026 93.2747 94.9626 92.5547 95.2826 91.936C95.6132 91.3173 96.0612 90.832 96.6266 90.48C97.2026 90.128 97.8692 89.952 98.6266 89.952C99.3732 89.952 100.019 90.112 100.563 90.432C101.117 90.752 101.544 91.2 101.843 91.776C102.152 92.352 102.307 93.0293 102.307 93.808V94.368L95.6026 94.384L95.6346 93.376H100.803C100.803 92.7253 100.605 92.2027 100.211 91.808C99.8159 91.4133 99.2879 91.216 98.6266 91.216C98.1252 91.216 97.6932 91.328 97.3306 91.552C96.9786 91.7653 96.7066 92.0853 96.5146 92.512C96.3332 92.928 96.2426 93.4293 96.2426 94.016C96.2426 94.9547 96.4559 95.68 96.8826 96.192C97.3092 96.6933 97.9226 96.944 98.7226 96.944C99.3092 96.944 99.7892 96.8267 100.163 96.592C100.536 96.3573 100.787 96.016 100.915 95.568H102.323C102.131 96.4 101.72 97.0453 101.091 97.504C100.461 97.9627 99.6612 98.192 98.6906 98.192ZM103.076 90.176H107.652V91.44H103.076V90.176ZM106.116 98H104.612V87.728H106.116V98ZM112.3 98.192C111.543 98.192 110.871 98.0213 110.284 97.68C109.697 97.328 109.239 96.848 108.908 96.24C108.577 95.6213 108.412 94.9067 108.412 94.096C108.412 93.2747 108.572 92.5547 108.892 91.936C109.223 91.3173 109.671 90.832 110.236 90.48C110.812 90.128 111.479 89.952 112.236 89.952C112.983 89.952 113.628 90.112 114.172 90.432C114.727 90.752 115.153 91.2 115.452 91.776C115.761 92.352 115.916 93.0293 115.916 93.808V94.368L109.212 94.384L109.244 93.376H114.412C114.412 92.7253 114.215 92.2027 113.82 91.808C113.425 91.4133 112.897 91.216 112.236 91.216C111.735 91.216 111.303 91.328 110.94 91.552C110.588 91.7653 110.316 92.0853 110.124 92.512C109.943 92.928 109.852 93.4293 109.852 94.016C109.852 94.9547 110.065 95.68 110.492 96.192C110.919 96.6933 111.532 96.944 112.332 96.944C112.919 96.944 113.399 96.8267 113.772 96.592C114.145 96.3573 114.396 96.016 114.524 95.568H115.932C115.74 96.4 115.329 97.0453 114.7 97.504C114.071 97.9627 113.271 98.192 112.3 98.192ZM120.732 98.192C119.974 98.192 119.324 98.0213 118.78 97.68C118.236 97.328 117.814 96.8427 117.516 96.224C117.228 95.6053 117.084 94.9013 117.084 94.112C117.084 93.312 117.233 92.6027 117.532 91.984C117.83 91.3547 118.257 90.8587 118.812 90.496C119.366 90.1333 120.028 89.952 120.796 89.952C121.404 89.952 121.942 90.08 122.412 90.336C122.892 90.5813 123.265 90.9493 123.532 91.44V86.224H125.02V98H123.676L123.548 96.576C123.292 97.0987 122.913 97.4987 122.412 97.776C121.921 98.0533 121.361 98.192 120.732 98.192ZM121.036 96.832C121.548 96.832 121.985 96.7147 122.348 96.48C122.721 96.2453 123.009 95.92 123.212 95.504C123.414 95.088 123.516 94.608 123.516 94.064C123.516 93.52 123.414 93.0453 123.212 92.64C123.009 92.224 122.721 91.8987 122.348 91.664C121.985 91.4293 121.548 91.312 121.036 91.312C120.524 91.312 120.086 91.4347 119.724 91.68C119.361 91.9147 119.084 92.24 118.892 92.656C118.7 93.0613 118.604 93.5307 118.604 94.064C118.604 94.608 118.7 95.088 118.892 95.504C119.084 95.92 119.361 96.2453 119.724 96.48C120.086 96.7147 120.524 96.832 121.036 96.832ZM59.8729 108.432V120H58.3049V108.432H59.8729ZM62.8009 115.872H59.5209V114.464H62.4649C63.2436 114.464 63.8409 114.256 64.2569 113.84C64.6729 113.413 64.8809 112.843 64.8809 112.128C64.8809 111.403 64.6729 110.843 64.2569 110.448C63.8409 110.043 63.2649 109.84 62.5289 109.84H59.1689V108.432H62.8009C63.5583 108.432 64.2143 108.587 64.7689 108.896C65.3236 109.205 65.7556 109.637 66.0649 110.192C66.3743 110.747 66.5289 111.397 66.5289 112.144C66.5289 112.859 66.3743 113.499 66.0649 114.064C65.7556 114.629 65.3236 115.072 64.7689 115.392C64.2143 115.712 63.5583 115.872 62.8009 115.872ZM72.5289 112.112V113.488H71.8569C71.1423 113.488 70.5769 113.696 70.1609 114.112C69.7556 114.517 69.5529 115.099 69.5529 115.856V120H68.0489V112.192H69.4569L69.5849 113.76H69.4409C69.5476 113.248 69.8036 112.832 70.2089 112.512C70.6143 112.181 71.1209 112.016 71.7289 112.016C71.8676 112.016 71.9956 112.027 72.1129 112.048C72.2409 112.059 72.3796 112.08 72.5289 112.112ZM73.1463 116.08C73.1463 115.28 73.3223 114.571 73.6743 113.952C74.0263 113.333 74.5063 112.848 75.1143 112.496C75.733 112.144 76.437 111.968 77.2263 111.968C78.0156 111.968 78.7143 112.144 79.3223 112.496C79.9303 112.848 80.4103 113.333 80.7623 113.952C81.1143 114.571 81.2903 115.28 81.2903 116.08C81.2903 116.88 81.1143 117.589 80.7623 118.208C80.4103 118.827 79.9303 119.312 79.3223 119.664C78.7143 120.016 78.0156 120.192 77.2263 120.192C76.437 120.192 75.733 120.016 75.1143 119.664C74.5063 119.312 74.0263 118.827 73.6743 118.208C73.3223 117.589 73.1463 116.88 73.1463 116.08ZM74.6663 116.08C74.6663 116.624 74.773 117.104 74.9863 117.52C75.2103 117.936 75.5143 118.261 75.8983 118.496C76.2823 118.731 76.725 118.848 77.2263 118.848C77.7276 118.848 78.1703 118.731 78.5543 118.496C78.9383 118.261 79.237 117.936 79.4503 117.52C79.6743 117.104 79.7863 116.624 79.7863 116.08C79.7863 115.525 79.6743 115.045 79.4503 114.64C79.237 114.224 78.9383 113.899 78.5543 113.664C78.1703 113.429 77.7276 113.312 77.2263 113.312C76.725 113.312 76.2823 113.429 75.8983 113.664C75.5143 113.899 75.2103 114.224 74.9863 114.64C74.773 115.045 74.6663 115.525 74.6663 116.08ZM80.9712 123.552L81.2272 122.192C81.3765 122.235 81.5045 122.261 81.6112 122.272C81.7179 122.293 81.8299 122.304 81.9472 122.304C82.3099 122.304 82.5659 122.197 82.7152 121.984C82.8752 121.771 82.9552 121.445 82.9552 121.008V112.176H84.4592V121.152C84.4592 121.931 84.2512 122.549 83.8352 123.008C83.4192 123.467 82.8325 123.696 82.0752 123.696C81.8832 123.696 81.7072 123.685 81.5472 123.664C81.3872 123.643 81.1952 123.605 80.9712 123.552ZM83.7072 110.32C83.4299 110.32 83.1952 110.224 83.0032 110.032C82.8112 109.829 82.7152 109.595 82.7152 109.328C82.7152 109.051 82.8112 108.816 83.0032 108.624C83.1952 108.432 83.4299 108.336 83.7072 108.336C83.9739 108.336 84.2032 108.432 84.3952 108.624C84.5979 108.816 84.6992 109.051 84.6992 109.328C84.6992 109.595 84.5979 109.829 84.3952 110.032C84.2032 110.224 83.9739 110.32 83.7072 110.32ZM90.0187 120.192C89.2614 120.192 88.5894 120.021 88.0027 119.68C87.416 119.328 86.9574 118.848 86.6267 118.24C86.296 117.621 86.1307 116.907 86.1307 116.096C86.1307 115.275 86.2907 114.555 86.6107 113.936C86.9414 113.317 87.3894 112.832 87.9547 112.48C88.5307 112.128 89.1974 111.952 89.9547 111.952C90.7014 111.952 91.3467 112.112 91.8907 112.432C92.4454 112.752 92.872 113.2 93.1707 113.776C93.48 114.352 93.6347 115.029 93.6347 115.808V116.368L86.9307 116.384L86.9627 115.376H92.1307C92.1307 114.725 91.9334 114.203 91.5387 113.808C91.144 113.413 90.616 113.216 89.9547 113.216C89.4534 113.216 89.0214 113.328 88.6587 113.552C88.3067 113.765 88.0347 114.085 87.8427 114.512C87.6614 114.928 87.5707 115.429 87.5707 116.016C87.5707 116.955 87.784 117.68 88.2107 118.192C88.6374 118.693 89.2507 118.944 90.0507 118.944C90.6374 118.944 91.1174 118.827 91.4907 118.592C91.864 118.357 92.1147 118.016 92.2427 117.568H93.6507C93.4587 118.4 93.048 119.045 92.4187 119.504C91.7894 119.963 90.9894 120.192 90.0187 120.192ZM94.8026 116.096C94.8026 115.275 94.9626 114.555 95.2826 113.936C95.6132 113.317 96.0666 112.832 96.6426 112.48C97.2186 112.128 97.8852 111.952 98.6426 111.952C99.6239 111.952 100.44 112.213 101.091 112.736C101.741 113.259 102.131 113.952 102.259 114.816H100.755C100.627 114.315 100.376 113.936 100.003 113.68C99.6292 113.424 99.1919 113.296 98.6906 113.296C98.2212 113.296 97.8052 113.413 97.4426 113.648C97.0799 113.872 96.7972 114.192 96.5946 114.608C96.3919 115.024 96.2906 115.515 96.2906 116.08C96.2906 116.645 96.3866 117.136 96.5786 117.552C96.7706 117.957 97.0426 118.277 97.3946 118.512C97.7466 118.736 98.1572 118.848 98.6266 118.848C99.1599 118.848 99.6186 118.715 100.003 118.448C100.387 118.181 100.643 117.819 100.771 117.36H102.275C102.179 117.925 101.96 118.421 101.619 118.848C101.288 119.264 100.861 119.595 100.339 119.84C99.8266 120.075 99.2559 120.192 98.6266 120.192C97.8586 120.192 97.1866 120.021 96.6106 119.68C96.0452 119.339 95.6026 118.864 95.2826 118.256C94.9626 117.637 94.8026 116.917 94.8026 116.096ZM103.029 112.176H107.605V113.44H103.029V112.176ZM106.069 120H104.565V109.728H106.069V120ZM108.315 117.728H109.755C109.755 118.123 109.899 118.437 110.187 118.672C110.475 118.896 110.865 119.008 111.355 119.008C111.889 119.008 112.299 118.907 112.587 118.704C112.875 118.491 113.019 118.208 113.019 117.856C113.019 117.6 112.939 117.387 112.779 117.216C112.63 117.045 112.353 116.907 111.947 116.8L110.571 116.48C109.878 116.309 109.361 116.048 109.019 115.696C108.689 115.344 108.523 114.88 108.523 114.304C108.523 113.824 108.646 113.408 108.891 113.056C109.147 112.704 109.494 112.432 109.931 112.24C110.379 112.048 110.891 111.952 111.467 111.952C112.043 111.952 112.539 112.053 112.955 112.256C113.382 112.459 113.713 112.741 113.947 113.104C114.193 113.467 114.321 113.899 114.331 114.4H112.891C112.881 113.995 112.747 113.68 112.491 113.456C112.235 113.232 111.878 113.12 111.419 113.12C110.95 113.12 110.587 113.221 110.331 113.424C110.075 113.627 109.947 113.904 109.947 114.256C109.947 114.779 110.331 115.136 111.099 115.328L112.475 115.664C113.137 115.813 113.633 116.059 113.963 116.4C114.294 116.731 114.459 117.184 114.459 117.76C114.459 118.251 114.326 118.683 114.059 119.056C113.793 119.419 113.425 119.701 112.955 119.904C112.497 120.096 111.953 120.192 111.323 120.192C110.406 120.192 109.675 119.968 109.131 119.52C108.587 119.072 108.315 118.475 108.315 117.728Z" fill="#212121"/>
<path d="M54.7484 47.904H49.7884V44.339H58.5304V67H54.7484V47.904ZM62.4189 55.716C62.4189 53.36 62.8116 51.3037 63.5969 49.547C64.4029 47.7903 65.5189 46.416 66.9449 45.424C68.3916 44.4113 70.0759 43.905 71.9979 43.905C73.9406 43.905 75.6249 44.4113 77.0509 45.424C78.4976 46.416 79.6136 47.7903 80.3989 49.547C81.2049 51.3037 81.6079 53.36 81.6079 55.716C81.6079 58.0513 81.2256 60.0973 80.4609 61.854C79.6963 63.6107 78.6009 64.9747 77.1749 65.946C75.7489 66.9173 74.0233 67.403 71.9979 67.403C70.0139 67.403 68.2986 66.9173 66.8519 65.946C65.4259 64.9747 64.3306 63.6107 63.5659 61.854C62.8013 60.0973 62.4189 58.0513 62.4189 55.716ZM66.3249 55.716C66.3249 57.452 66.5523 58.94 67.0069 60.18C67.4616 61.3993 68.1126 62.3293 68.9599 62.97C69.8073 63.59 70.8199 63.9 71.9979 63.9C73.2173 63.9 74.2403 63.59 75.0669 62.97C75.9143 62.3293 76.5653 61.3993 77.0199 60.18C77.4746 58.94 77.7019 57.452 77.7019 55.716C77.7019 53.918 77.4746 52.4093 77.0199 51.19C76.5653 49.95 75.9143 49.0097 75.0669 48.369C74.2403 47.7283 73.2173 47.408 71.9979 47.408C70.8199 47.408 69.8073 47.7283 68.9599 48.369C68.1126 49.0097 67.4616 49.95 67.0069 51.19C66.5523 52.4093 66.3249 53.918 66.3249 55.716ZM84.2764 55.716C84.2764 53.36 84.669 51.3037 85.4544 49.547C86.2604 47.7903 87.3764 46.416 88.8024 45.424C90.249 44.4113 91.9334 43.905 93.8554 43.905C95.798 43.905 97.4824 44.4113 98.9084 45.424C100.355 46.416 101.471 47.7903 102.256 49.547C103.062 51.3037 103.465 53.36 103.465 55.716C103.465 58.0513 103.083 60.0973 102.318 61.854C101.554 63.6107 100.458 64.9747 99.0324 65.946C97.6064 66.9173 95.8807 67.403 93.8554 67.403C91.8714 67.403 90.156 66.9173 88.7094 65.946C87.2834 64.9747 86.188 63.6107 85.4234 61.854C84.6587 60.0973 84.2764 58.0513 84.2764 55.716ZM88.1824 55.716C88.1824 57.452 88.4097 58.94 88.8644 60.18C89.319 61.3993 89.97 62.3293 90.8174 62.97C91.6647 63.59 92.6774 63.9 93.8554 63.9C95.0747 63.9 96.0977 63.59 96.9244 62.97C97.7717 62.3293 98.4227 61.3993 98.8774 60.18C99.332 58.94 99.5594 57.452 99.5594 55.716C99.5594 53.918 99.332 52.4093 98.8774 51.19C98.4227 49.95 97.7717 49.0097 96.9244 48.369C96.0977 47.7283 95.0747 47.408 93.8554 47.408C92.6774 47.408 91.6647 47.7283 90.8174 48.369C89.97 49.0097 89.319 49.95 88.8644 51.19C88.4097 52.4093 88.1824 53.918 88.1824 55.716ZM116.612 48.803V64.334H113.45V48.803H116.612ZM107.281 54.972H122.781V58.134H107.281V54.972Z" fill="#212121"/>
<defs>
<filter id="filter0_d_327_14693" x="4.75098" y="0" width="165.451" height="187.976" filterUnits="userSpaceOnUse" color-interpolation-filters="sRGB">
<feFlood flood-opacity="0" result="BackgroundImageFix"/>
<feColorMatrix in="SourceAlpha" type="matrix" values="0 0 0 0 0 0 0 0 0 0 0 0 0 0 0 0 0 0 127 0" result="hardAlpha"/>
<feOffset dx="6" dy="10"/>
<feGaussianBlur stdDeviation="6.5"/>
<feComposite in2="hardAlpha" operator="out"/>
<feColorMatrix type="matrix" values="0 0 0 0 0 0 0 0 0 0 0 0 0 0 0 0 0 0 0.16 0"/>
<feBlend mode="normal" in2="BackgroundImageFix" result="effect1_dropShadow_327_14693"/>
<feBlend mode="normal" in="SourceGraphic" in2="effect1_dropShadow_327_14693" result="shape"/>
</filter>
</defs>
</svg>
