<svg width="172" height="188" viewBox="0 0 172 188" fill="none" xmlns="http://www.w3.org/2000/svg">
<g filter="url(#filter0_d_327_14691)">
<path d="M81.9589 3.97632L152.097 44.2322V124.744L81.9589 165L11.8211 124.744V44.2322L81.9589 3.97632Z" fill="#E9E9E9"/>
</g>
<path d="M54.0392 94.552C54.0392 93.8907 54.2045 93.3093 54.5352 92.808C54.8659 92.3067 55.3299 91.9173 55.9272 91.64C56.5352 91.3627 57.2339 91.224 58.0232 91.224C58.7592 91.224 59.3992 91.3573 59.9432 91.624C60.4979 91.88 60.9299 92.248 61.2392 92.728C61.5592 93.208 61.7405 93.784 61.7832 94.456H60.1992C60.1565 93.88 59.9432 93.432 59.5592 93.112C59.1752 92.792 58.6579 92.632 58.0072 92.632C57.2819 92.632 56.7005 92.8027 56.2632 93.144C55.8259 93.4747 55.6072 93.928 55.6072 94.504C55.6072 94.9733 55.7405 95.352 56.0072 95.64C56.2739 95.9173 56.6792 96.12 57.2232 96.248L59.1272 96.696C60.0765 96.9093 60.7859 97.2773 61.2552 97.8C61.7352 98.312 61.9752 98.9733 61.9752 99.784C61.9752 100.477 61.8045 101.08 61.4632 101.592C61.1325 102.104 60.6579 102.499 60.0392 102.776C59.4312 103.053 58.7165 103.192 57.8952 103.192C57.1165 103.192 56.4285 103.064 55.8312 102.808C55.2445 102.541 54.7805 102.168 54.4392 101.688C54.1085 101.197 53.9219 100.627 53.8792 99.976H55.4792C55.4899 100.531 55.7139 100.973 56.1512 101.304C56.5885 101.624 57.1699 101.784 57.8952 101.784C58.6632 101.784 59.2712 101.613 59.7192 101.272C60.1779 100.931 60.4072 100.477 60.4072 99.912C60.4072 99.4533 60.2792 99.08 60.0232 98.792C59.7672 98.504 59.3619 98.296 58.8072 98.168L56.9032 97.736C55.9645 97.5227 55.2499 97.1493 54.7592 96.616C54.2792 96.072 54.0392 95.384 54.0392 94.552ZM69.0976 95.176H70.5856V103H69.2416L69.0816 101.816C68.8576 102.221 68.5056 102.552 68.0256 102.808C67.5456 103.064 67.0176 103.192 66.4416 103.192C65.5349 103.192 64.8309 102.909 64.3296 102.344C63.8389 101.768 63.5936 101 63.5936 100.04V95.176H65.0976V99.544C65.0976 100.376 65.2629 100.973 65.5936 101.336C65.9349 101.688 66.3936 101.864 66.9696 101.864C67.6629 101.864 68.1909 101.651 68.5536 101.224C68.9162 100.787 69.0976 100.147 69.0976 99.304V95.176ZM72.0994 99.096C72.0994 98.2747 72.2594 97.5547 72.5794 96.936C72.9101 96.3173 73.3634 95.832 73.9394 95.48C74.5154 95.128 75.1821 94.952 75.9394 94.952C76.9208 94.952 77.7368 95.2133 78.3874 95.736C79.0381 96.2587 79.4274 96.952 79.5554 97.816H78.0514C77.9234 97.3147 77.6728 96.936 77.2994 96.68C76.9261 96.424 76.4888 96.296 75.9874 96.296C75.5181 96.296 75.1021 96.4133 74.7394 96.648C74.3768 96.872 74.0941 97.192 73.8914 97.608C73.6888 98.024 73.5874 98.5147 73.5874 99.08C73.5874 99.6453 73.6834 100.136 73.8754 100.552C74.0674 100.957 74.3394 101.277 74.6914 101.512C75.0434 101.736 75.4541 101.848 75.9234 101.848C76.4568 101.848 76.9154 101.715 77.2994 101.448C77.6834 101.181 77.9394 100.819 78.0674 100.36H79.5714C79.4754 100.925 79.2568 101.421 78.9154 101.848C78.5848 102.264 78.1581 102.595 77.6354 102.84C77.1234 103.075 76.5528 103.192 75.9234 103.192C75.1554 103.192 74.4834 103.021 73.9074 102.68C73.3421 102.339 72.8994 101.864 72.5794 101.256C72.2594 100.637 72.0994 99.9173 72.0994 99.096ZM80.6463 99.096C80.6463 98.2747 80.8063 97.5547 81.1263 96.936C81.457 96.3173 81.9103 95.832 82.4863 95.48C83.0623 95.128 83.729 94.952 84.4863 94.952C85.4676 94.952 86.2836 95.2133 86.9343 95.736C87.585 96.2587 87.9743 96.952 88.1023 97.816H86.5983C86.4703 97.3147 86.2196 96.936 85.8463 96.68C85.473 96.424 85.0356 96.296 84.5343 96.296C84.065 96.296 83.649 96.4133 83.2863 96.648C82.9236 96.872 82.641 97.192 82.4383 97.608C82.2356 98.024 82.1343 98.5147 82.1343 99.08C82.1343 99.6453 82.2303 100.136 82.4223 100.552C82.6143 100.957 82.8863 101.277 83.2383 101.512C83.5903 101.736 84.001 101.848 84.4703 101.848C85.0036 101.848 85.4623 101.715 85.8463 101.448C86.2303 101.181 86.4863 100.819 86.6143 100.36H88.1183C88.0223 100.925 87.8036 101.421 87.4623 101.848C87.1316 102.264 86.705 102.595 86.1823 102.84C85.6703 103.075 85.0996 103.192 84.4703 103.192C83.7023 103.192 83.0303 103.021 82.4543 102.68C81.889 102.339 81.4463 101.864 81.1263 101.256C80.8063 100.637 80.6463 99.9173 80.6463 99.096ZM93.0812 103.192C92.3239 103.192 91.6519 103.021 91.0652 102.68C90.4785 102.328 90.0199 101.848 89.6892 101.24C89.3585 100.621 89.1932 99.9067 89.1932 99.096C89.1932 98.2747 89.3532 97.5547 89.6732 96.936C90.0039 96.3173 90.4519 95.832 91.0172 95.48C91.5932 95.128 92.2599 94.952 93.0172 94.952C93.7639 94.952 94.4092 95.112 94.9532 95.432C95.5079 95.752 95.9345 96.2 96.2332 96.776C96.5425 97.352 96.6972 98.0293 96.6972 98.808V99.368L89.9932 99.384L90.0252 98.376H95.1932C95.1932 97.7253 94.9959 97.2027 94.6012 96.808C94.2065 96.4133 93.6785 96.216 93.0172 96.216C92.5159 96.216 92.0839 96.328 91.7212 96.552C91.3692 96.7653 91.0972 97.0853 90.9052 97.512C90.7239 97.928 90.6332 98.4293 90.6332 99.016C90.6332 99.9547 90.8465 100.68 91.2732 101.192C91.6999 101.693 92.3132 101.944 93.1132 101.944C93.6999 101.944 94.1799 101.827 94.5532 101.592C94.9265 101.357 95.1772 101.016 95.3052 100.568H96.7132C96.5212 101.4 96.1105 102.045 95.4812 102.504C94.8519 102.963 94.0519 103.192 93.0812 103.192ZM97.7371 100.728H99.1771C99.1771 101.123 99.3211 101.437 99.6091 101.672C99.8971 101.896 100.286 102.008 100.777 102.008C101.31 102.008 101.721 101.907 102.009 101.704C102.297 101.491 102.441 101.208 102.441 100.856C102.441 100.6 102.361 100.387 102.201 100.216C102.052 100.045 101.774 99.9067 101.369 99.8L99.9931 99.48C99.2997 99.3093 98.7824 99.048 98.4411 98.696C98.1104 98.344 97.9451 97.88 97.9451 97.304C97.9451 96.824 98.0677 96.408 98.3131 96.056C98.5691 95.704 98.9157 95.432 99.3531 95.24C99.8011 95.048 100.313 94.952 100.889 94.952C101.465 94.952 101.961 95.0533 102.377 95.256C102.804 95.4587 103.134 95.7413 103.369 96.104C103.614 96.4667 103.742 96.8987 103.753 97.4H102.313C102.302 96.9947 102.169 96.68 101.913 96.456C101.657 96.232 101.3 96.12 100.841 96.12C100.372 96.12 100.009 96.2213 99.7531 96.424C99.4971 96.6267 99.3691 96.904 99.3691 97.256C99.3691 97.7787 99.7531 98.136 100.521 98.328L101.897 98.664C102.558 98.8133 103.054 99.0587 103.385 99.4C103.716 99.7307 103.881 100.184 103.881 100.76C103.881 101.251 103.748 101.683 103.481 102.056C103.214 102.419 102.846 102.701 102.377 102.904C101.918 103.096 101.374 103.192 100.745 103.192C99.8277 103.192 99.0971 102.968 98.5531 102.52C98.0091 102.072 97.7371 101.475 97.7371 100.728ZM104.909 100.728H106.349C106.349 101.123 106.493 101.437 106.781 101.672C107.069 101.896 107.458 102.008 107.949 102.008C108.482 102.008 108.893 101.907 109.181 101.704C109.469 101.491 109.613 101.208 109.613 100.856C109.613 100.6 109.533 100.387 109.373 100.216C109.224 100.045 108.946 99.9067 108.541 99.8L107.165 99.48C106.472 99.3093 105.954 99.048 105.613 98.696C105.282 98.344 105.117 97.88 105.117 97.304C105.117 96.824 105.24 96.408 105.485 96.056C105.741 95.704 106.088 95.432 106.525 95.24C106.973 95.048 107.485 94.952 108.061 94.952C108.637 94.952 109.133 95.0533 109.549 95.256C109.976 95.4587 110.306 95.7413 110.541 96.104C110.786 96.4667 110.914 96.8987 110.925 97.4H109.485C109.474 96.9947 109.341 96.68 109.085 96.456C108.829 96.232 108.472 96.12 108.013 96.12C107.544 96.12 107.181 96.2213 106.925 96.424C106.669 96.6267 106.541 96.904 106.541 97.256C106.541 97.7787 106.925 98.136 107.693 98.328L109.069 98.664C109.73 98.8133 110.226 99.0587 110.557 99.4C110.888 99.7307 111.053 100.184 111.053 100.76C111.053 101.251 110.92 101.683 110.653 102.056C110.386 102.419 110.018 102.701 109.549 102.904C109.09 103.096 108.546 103.192 107.917 103.192C107 103.192 106.269 102.968 105.725 102.52C105.181 102.072 104.909 101.475 104.909 100.728ZM69.2792 125H67.7112V113.432H72.0792C73.3165 113.432 74.2819 113.741 74.9752 114.36C75.6792 114.968 76.0312 115.816 76.0312 116.904C76.0312 117.704 75.8339 118.381 75.4392 118.936C75.0552 119.491 74.5059 119.885 73.7912 120.12L76.1432 125H74.3992L72.2392 120.424H69.2792V125ZM69.2792 114.84V119.032H72.0952C72.8205 119.032 73.3805 118.845 73.7752 118.472C74.1805 118.099 74.3832 117.581 74.3832 116.92C74.3832 116.248 74.1752 115.736 73.7592 115.384C73.3539 115.021 72.7939 114.84 72.0792 114.84H69.2792ZM79.8994 125.192C79.0674 125.192 78.4114 124.973 77.9314 124.536C77.4621 124.099 77.2274 123.528 77.2274 122.824C77.2274 122.109 77.4834 121.539 77.9954 121.112C78.5074 120.675 79.2221 120.419 80.1394 120.344L82.6034 120.152V119.928C82.6034 119.491 82.5234 119.144 82.3634 118.888C82.2034 118.621 81.9848 118.435 81.7074 118.328C81.4301 118.211 81.1154 118.152 80.7634 118.152C80.1341 118.152 79.6434 118.285 79.2914 118.552C78.9501 118.808 78.7794 119.176 78.7794 119.656H77.4674C77.4674 119.112 77.6061 118.637 77.8834 118.232C78.1608 117.827 78.5501 117.512 79.0514 117.288C79.5634 117.064 80.1554 116.952 80.8274 116.952C81.4781 116.952 82.0434 117.069 82.5234 117.304C83.0141 117.528 83.3928 117.875 83.6594 118.344C83.9368 118.803 84.0754 119.384 84.0754 120.088V125H82.7954L82.6354 123.736C82.4328 124.184 82.0808 124.541 81.5794 124.808C81.0888 125.064 80.5288 125.192 79.8994 125.192ZM80.3314 124.024C81.0461 124.024 81.6061 123.811 82.0114 123.384C82.4168 122.947 82.6194 122.36 82.6194 121.624V121.208L80.6194 121.368C79.9581 121.432 79.4781 121.587 79.1794 121.832C78.8914 122.077 78.7474 122.392 78.7474 122.776C78.7474 123.192 78.8861 123.507 79.1634 123.72C79.4514 123.923 79.8408 124.024 80.3314 124.024ZM85.2013 117.176H89.7773V118.44H85.2013V117.176ZM88.2413 125H86.7373V114.728H88.2413V125ZM94.4249 125.192C93.6676 125.192 92.9956 125.021 92.4089 124.68C91.8223 124.328 91.3636 123.848 91.0329 123.24C90.7023 122.621 90.5369 121.907 90.5369 121.096C90.5369 120.275 90.6969 119.555 91.0169 118.936C91.3476 118.317 91.7956 117.832 92.3609 117.48C92.9369 117.128 93.6036 116.952 94.3609 116.952C95.1076 116.952 95.7529 117.112 96.2969 117.432C96.8516 117.752 97.2783 118.2 97.5769 118.776C97.8863 119.352 98.0409 120.029 98.0409 120.808V121.368L91.3369 121.384L91.3689 120.376H96.5369C96.5369 119.725 96.3396 119.203 95.9449 118.808C95.5503 118.413 95.0223 118.216 94.3609 118.216C93.8596 118.216 93.4276 118.328 93.0649 118.552C92.7129 118.765 92.4409 119.085 92.2489 119.512C92.0676 119.928 91.9769 120.429 91.9769 121.016C91.9769 121.955 92.1903 122.68 92.6169 123.192C93.0436 123.693 93.6569 123.944 94.4569 123.944C95.0436 123.944 95.5236 123.827 95.8969 123.592C96.2703 123.357 96.5209 123.016 96.6489 122.568H98.0569C97.8649 123.4 97.4543 124.045 96.8249 124.504C96.1956 124.963 95.3956 125.192 94.4249 125.192Z" fill="#212121"/>
<path d="M60.3524 72.372C58.8438 72.372 57.5728 72.0827 56.5394 71.504C55.5061 70.9047 54.7001 70.1297 54.1214 69.179C53.5428 68.2283 53.2018 67.2053 53.0984 66.11H56.7874C56.9528 67.0607 57.3454 67.7943 57.9654 68.311C58.6061 68.8277 59.4121 69.086 60.3835 69.086C61.7681 69.086 62.8841 68.4557 63.7314 67.195C64.5788 65.9137 65.0334 63.971 65.0954 61.367C64.5994 62.2143 63.8451 62.917 62.8324 63.475C61.8404 64.033 60.7451 64.312 59.5464 64.312C58.3478 64.312 57.2214 64.0227 56.1674 63.444C55.1134 62.8653 54.2558 62.049 53.5944 60.995C52.9331 59.941 52.6024 58.701 52.6024 57.275C52.6024 55.973 52.9228 54.764 53.5634 53.648C54.2041 52.532 55.0928 51.633 56.2294 50.951C57.3661 50.269 58.6991 49.928 60.2284 49.928C61.8611 49.928 63.2355 50.2277 64.3514 50.827C65.4674 51.4263 66.3561 52.2323 67.0174 53.245C67.6994 54.2577 68.1851 55.384 68.4744 56.624C68.7845 57.864 68.9395 59.135 68.9395 60.437C68.9395 62.855 68.5985 64.963 67.9164 66.761C67.2551 68.5383 66.2735 69.923 64.9715 70.915C63.6901 71.8863 62.1504 72.372 60.3524 72.372ZM60.4764 60.964C61.2411 60.964 61.9334 60.7987 62.5534 60.468C63.1734 60.1167 63.6591 59.662 64.0104 59.104C64.3618 58.5253 64.5375 57.8847 64.5375 57.182C64.5375 56.066 64.1448 55.1463 63.3594 54.423C62.5948 53.6997 61.6234 53.338 60.4454 53.338C59.2881 53.338 58.3271 53.6997 57.5624 54.423C56.7978 55.1257 56.4154 56.0247 56.4154 57.12C56.4154 58.2773 56.7978 59.2073 57.5624 59.91C58.3271 60.6127 59.2984 60.964 60.4764 60.964ZM79.9999 72.372C78.4912 72.372 77.2202 72.0827 76.1869 71.504C75.1536 70.9047 74.3476 70.1297 73.7689 69.179C73.1902 68.2283 72.8492 67.2053 72.7459 66.11H76.4349C76.6002 67.0607 76.9929 67.7943 77.6129 68.311C78.2536 68.8277 79.0596 69.086 80.0309 69.086C81.4156 69.086 82.5316 68.4557 83.3789 67.195C84.2262 65.9137 84.6809 63.971 84.7429 61.367C84.2469 62.2143 83.4926 62.917 82.4799 63.475C81.4879 64.033 80.3926 64.312 79.1939 64.312C77.9952 64.312 76.8689 64.0227 75.8149 63.444C74.7609 62.8653 73.9032 62.049 73.2419 60.995C72.5806 59.941 72.2499 58.701 72.2499 57.275C72.2499 55.973 72.5702 54.764 73.2109 53.648C73.8516 52.532 74.7402 51.633 75.8769 50.951C77.0136 50.269 78.3466 49.928 79.8759 49.928C81.5086 49.928 82.8829 50.2277 83.9989 50.827C85.1149 51.4263 86.0036 52.2323 86.6649 53.245C87.3469 54.2577 87.8326 55.384 88.1219 56.624C88.4319 57.864 88.5869 59.135 88.5869 60.437C88.5869 62.855 88.2459 64.963 87.5639 66.761C86.9026 68.5383 85.9209 69.923 84.6189 70.915C83.3376 71.8863 81.7979 72.372 79.9999 72.372ZM80.1239 60.964C80.8886 60.964 81.5809 60.7987 82.2009 60.468C82.8209 60.1167 83.3066 59.662 83.6579 59.104C84.0092 58.5253 84.1849 57.8847 84.1849 57.182C84.1849 56.066 83.7922 55.1463 83.0069 54.423C82.2422 53.6997 81.2709 53.338 80.0929 53.338C78.9356 53.338 77.9746 53.6997 77.2099 54.423C76.4452 55.1257 76.0629 56.0247 76.0629 57.12C76.0629 58.2773 76.4452 59.2073 77.2099 59.91C77.9746 60.6127 78.9459 60.964 80.1239 60.964ZM96.7024 60.964C95.7104 60.964 94.8114 60.747 94.0054 60.313C93.1994 59.8583 92.5587 59.2177 92.0834 58.391C91.608 57.5643 91.3704 56.5827 91.3704 55.446C91.3704 54.3093 91.608 53.3277 92.0834 52.501C92.5587 51.6743 93.1994 51.044 94.0054 50.61C94.8114 50.1553 95.7207 49.928 96.7334 49.928C97.7254 49.928 98.614 50.1553 99.3994 50.61C100.205 51.044 100.846 51.6743 101.321 52.501C101.797 53.3277 102.034 54.3093 102.034 55.446C102.034 56.5827 101.797 57.5643 101.321 58.391C100.846 59.2177 100.205 59.8583 99.3994 60.313C98.5934 60.747 97.6944 60.964 96.7024 60.964ZM95.5244 72L107.769 50.3H111.644L99.3994 72H95.5244ZM96.7024 58.205C97.3017 58.205 97.8184 57.9777 98.2524 57.523C98.6864 57.0477 98.9034 56.3553 98.9034 55.446C98.9034 54.5367 98.6864 53.8443 98.2524 53.369C97.839 52.8937 97.3224 52.656 96.7024 52.656C96.0824 52.656 95.5554 52.8937 95.1214 53.369C94.708 53.8443 94.5014 54.5367 94.5014 55.446C94.5014 56.3553 94.708 57.0477 95.1214 57.523C95.5554 57.9777 96.0824 58.205 96.7024 58.205ZM110.59 72.372C109.598 72.372 108.699 72.155 107.893 71.721C107.087 71.2663 106.447 70.6257 105.971 69.799C105.496 68.9723 105.258 67.9907 105.258 66.854C105.258 65.7173 105.496 64.746 105.971 63.94C106.447 63.1133 107.087 62.483 107.893 62.049C108.699 61.5943 109.609 61.367 110.621 61.367C111.613 61.367 112.502 61.5943 113.287 62.049C114.093 62.483 114.734 63.1133 115.209 63.94C115.685 64.746 115.922 65.7173 115.922 66.854C115.922 67.9907 115.685 68.9723 115.209 69.799C114.734 70.6257 114.093 71.2663 113.287 71.721C112.502 72.155 111.603 72.372 110.59 72.372ZM110.59 69.613C111.21 69.613 111.727 69.3857 112.14 68.931C112.574 68.4557 112.791 67.7633 112.791 66.854C112.791 65.9447 112.574 65.2523 112.14 64.777C111.727 64.3017 111.21 64.064 110.59 64.064C109.97 64.064 109.443 64.3017 109.009 64.777C108.596 65.2523 108.389 65.9447 108.389 66.854C108.389 67.7633 108.596 68.4557 109.009 68.931C109.443 69.3857 109.97 69.613 110.59 69.613Z" fill="#212121"/>
<defs>
<filter id="filter0_d_327_14691" x="4.82129" y="0.976318" width="166.275" height="187.024" filterUnits="userSpaceOnUse" color-interpolation-filters="sRGB">
<feFlood flood-opacity="0" result="BackgroundImageFix"/>
<feColorMatrix in="SourceAlpha" type="matrix" values="0 0 0 0 0 0 0 0 0 0 0 0 0 0 0 0 0 0 127 0" result="hardAlpha"/>
<feOffset dx="6" dy="10"/>
<feGaussianBlur stdDeviation="6.5"/>
<feComposite in2="hardAlpha" operator="out"/>
<feColorMatrix type="matrix" values="0 0 0 0 0 0 0 0 0 0 0 0 0 0 0 0 0 0 0.16 0"/>
<feBlend mode="normal" in2="BackgroundImageFix" result="effect1_dropShadow_327_14691"/>
<feBlend mode="normal" in="SourceGraphic" in2="effect1_dropShadow_327_14691" result="shape"/>
</filter>
</defs>
</svg>
