<svg width="171" height="188" viewBox="0 0 171 188" fill="none" xmlns="http://www.w3.org/2000/svg">
<g filter="url(#filter0_d_327_14694)">
<path d="M80.9882 3.95288L151.126 44.2088V124.721L80.9882 164.976L10.8504 124.721V44.2088L80.9882 3.95288Z" fill="#0697D5"/>
</g>
<path d="M60.2181 87.712C59.3861 87.712 58.6714 87.904 58.0741 88.288C57.4767 88.672 57.0181 89.2053 56.6981 89.888C56.3781 90.5707 56.2181 91.3707 56.2181 92.288C56.2181 93.216 56.3834 94.0107 56.7141 94.672C57.0554 95.3333 57.5301 95.84 58.1381 96.192C58.7461 96.5333 59.4447 96.704 60.2341 96.704C60.7354 96.704 61.1994 96.64 61.6261 96.512C62.0527 96.384 62.4261 96.1867 62.7461 95.92C63.0661 95.6427 63.3167 95.2907 63.4981 94.864C63.6901 94.4373 63.7861 93.936 63.7861 93.36V92.272L64.5221 93.024H59.9141V91.632H65.2581V98.016H63.9461L63.7861 95.872L63.9941 96.128C63.8234 96.512 63.5514 96.8587 63.1781 97.168C62.8047 97.4773 62.3567 97.728 61.8341 97.92C61.3114 98.1013 60.7354 98.192 60.1061 98.192C59.0181 98.192 58.0581 97.9467 57.2261 97.456C56.3941 96.9547 55.7434 96.2613 55.2741 95.376C54.8047 94.4907 54.5701 93.4507 54.5701 92.256C54.5701 91.0827 54.8047 90.0427 55.2741 89.136C55.7541 88.2293 56.4207 87.52 57.2741 87.008C58.1274 86.496 59.1194 86.24 60.2501 86.24C61.0927 86.24 61.8607 86.3947 62.5541 86.704C63.2474 87.0027 63.8181 87.4293 64.2661 87.984C64.7247 88.528 65.0127 89.1733 65.1301 89.92H63.4661C63.2527 89.184 62.8474 88.6347 62.2501 88.272C61.6634 87.8987 60.9861 87.712 60.2181 87.712ZM68.7724 98H67.2684V86.224H68.7724V98ZM70.4744 94.08C70.4744 93.28 70.6504 92.5707 71.0024 91.952C71.3544 91.3333 71.8344 90.848 72.4424 90.496C73.0611 90.144 73.7651 89.968 74.5544 89.968C75.3438 89.968 76.0424 90.144 76.6504 90.496C77.2584 90.848 77.7384 91.3333 78.0904 91.952C78.4424 92.5707 78.6184 93.28 78.6184 94.08C78.6184 94.88 78.4424 95.5893 78.0904 96.208C77.7384 96.8267 77.2584 97.312 76.6504 97.664C76.0424 98.016 75.3438 98.192 74.5544 98.192C73.7651 98.192 73.0611 98.016 72.4424 97.664C71.8344 97.312 71.3544 96.8267 71.0024 96.208C70.6504 95.5893 70.4744 94.88 70.4744 94.08ZM71.9944 94.08C71.9944 94.624 72.1011 95.104 72.3144 95.52C72.5384 95.936 72.8424 96.2613 73.2264 96.496C73.6104 96.7307 74.0531 96.848 74.5544 96.848C75.0558 96.848 75.4984 96.7307 75.8824 96.496C76.2664 96.2613 76.5651 95.936 76.7784 95.52C77.0024 95.104 77.1144 94.624 77.1144 94.08C77.1144 93.5253 77.0024 93.0453 76.7784 92.64C76.5651 92.224 76.2664 91.8987 75.8824 91.664C75.4984 91.4293 75.0558 91.312 74.5544 91.312C74.0531 91.312 73.6104 91.4293 73.2264 91.664C72.8424 91.8987 72.5384 92.224 72.3144 92.64C72.1011 93.0453 71.9944 93.5253 71.9944 94.08ZM81.6433 98H80.2833V86.224H81.7873V91.52C82.0433 91.008 82.422 90.6187 82.9233 90.352C83.4246 90.0853 83.9953 89.952 84.6353 89.952C85.382 89.952 86.022 90.1333 86.5553 90.496C87.0886 90.848 87.4993 91.3387 87.7873 91.968C88.0753 92.5973 88.2193 93.3173 88.2193 94.128C88.2193 94.9067 88.07 95.6053 87.7713 96.224C87.4726 96.8427 87.046 97.328 86.4913 97.68C85.9473 98.0213 85.2966 98.192 84.5393 98.192C83.9313 98.192 83.3766 98.0533 82.8753 97.776C82.3846 97.4987 82.0113 97.0987 81.7553 96.576L81.6433 98ZM81.8033 94.064C81.8033 94.608 81.8993 95.088 82.0913 95.504C82.294 95.92 82.5766 96.2453 82.9393 96.48C83.3126 96.7147 83.7553 96.832 84.2673 96.832C84.7793 96.832 85.2166 96.7147 85.5793 96.48C85.942 96.2453 86.2193 95.92 86.4113 95.504C86.614 95.088 86.7153 94.608 86.7153 94.064C86.7153 93.5307 86.614 93.0613 86.4113 92.656C86.2193 92.24 85.942 91.9147 85.5793 91.68C85.2166 91.4347 84.7793 91.312 84.2673 91.312C83.7553 91.312 83.3126 91.4293 82.9393 91.664C82.5766 91.8987 82.294 92.224 82.0913 92.64C81.8993 93.0453 81.8033 93.52 81.8033 94.064ZM92.1651 98.192C91.3331 98.192 90.6771 97.9733 90.1971 97.536C89.7277 97.0987 89.4931 96.528 89.4931 95.824C89.4931 95.1093 89.7491 94.5387 90.2611 94.112C90.7731 93.6747 91.4877 93.4187 92.4051 93.344L94.8691 93.152V92.928C94.8691 92.4907 94.7891 92.144 94.6291 91.888C94.4691 91.6213 94.2504 91.4347 93.9731 91.328C93.6957 91.2107 93.3811 91.152 93.0291 91.152C92.3997 91.152 91.9091 91.2853 91.5571 91.552C91.2157 91.808 91.0451 92.176 91.0451 92.656H89.7331C89.7331 92.112 89.8717 91.6373 90.1491 91.232C90.4264 90.8267 90.8157 90.512 91.3171 90.288C91.8291 90.064 92.4211 89.952 93.0931 89.952C93.7437 89.952 94.3091 90.0693 94.7891 90.304C95.2797 90.528 95.6584 90.8747 95.9251 91.344C96.2024 91.8027 96.3411 92.384 96.3411 93.088V98H95.0611L94.9011 96.736C94.6984 97.184 94.3464 97.5413 93.8451 97.808C93.3544 98.064 92.7944 98.192 92.1651 98.192ZM92.5971 97.024C93.3117 97.024 93.8717 96.8107 94.2771 96.384C94.6824 95.9467 94.8851 95.36 94.8851 94.624V94.208L92.8851 94.368C92.2237 94.432 91.7437 94.5867 91.4451 94.832C91.1571 95.0773 91.0131 95.392 91.0131 95.776C91.0131 96.192 91.1517 96.5067 91.4291 96.72C91.7171 96.9227 92.1064 97.024 92.5971 97.024ZM99.9599 98H98.4559V86.224H99.9599V98ZM58.9487 120.176C57.85 120.176 56.89 119.931 56.0687 119.44C55.2474 118.939 54.6074 118.245 54.1487 117.36C53.69 116.464 53.4607 115.419 53.4607 114.224C53.4607 113.029 53.6954 111.984 54.1647 111.088C54.634 110.192 55.2847 109.493 56.1167 108.992C56.9594 108.491 57.93 108.24 59.0287 108.24C59.9034 108.24 60.6927 108.405 61.3967 108.736C62.1007 109.056 62.6874 109.509 63.1567 110.096C63.626 110.683 63.93 111.371 64.0687 112.16H62.3887C62.1754 111.403 61.7647 110.811 61.1567 110.384C60.5487 109.957 59.8234 109.744 58.9807 109.744C58.202 109.744 57.5194 109.931 56.9327 110.304C56.3567 110.667 55.9087 111.184 55.5887 111.856C55.2687 112.517 55.1087 113.301 55.1087 114.208C55.1087 115.104 55.2687 115.888 55.5887 116.56C55.9087 117.232 56.362 117.755 56.9487 118.128C57.5354 118.491 58.2127 118.672 58.9807 118.672C59.834 118.672 60.57 118.464 61.1887 118.048C61.818 117.621 62.2394 117.051 62.4527 116.336H64.1167C63.9567 117.104 63.6314 117.776 63.1407 118.352C62.6607 118.928 62.058 119.376 61.3327 119.696C60.618 120.016 59.8234 120.176 58.9487 120.176ZM67.2412 120H65.7372V108.224H67.2412V120ZM69.4552 120V112.176H70.9592V120H69.4552ZM70.1912 110.32C69.9245 110.32 69.6899 110.224 69.4872 110.032C69.2952 109.829 69.1992 109.595 69.1992 109.328C69.1992 109.051 69.2952 108.816 69.4872 108.624C69.6899 108.432 69.9245 108.336 70.1912 108.336C70.4685 108.336 70.7032 108.432 70.8952 108.624C71.0872 108.816 71.1832 109.051 71.1832 109.328C71.1832 109.595 71.0872 109.829 70.8952 110.032C70.7032 110.224 70.4685 110.32 70.1912 110.32ZM76.5187 120.192C75.7614 120.192 75.0894 120.021 74.5027 119.68C73.916 119.328 73.4574 118.848 73.1267 118.24C72.796 117.621 72.6307 116.907 72.6307 116.096C72.6307 115.275 72.7907 114.555 73.1107 113.936C73.4414 113.317 73.8894 112.832 74.4547 112.48C75.0307 112.128 75.6974 111.952 76.4547 111.952C77.2014 111.952 77.8467 112.112 78.3907 112.432C78.9454 112.752 79.372 113.2 79.6707 113.776C79.98 114.352 80.1347 115.029 80.1347 115.808V116.368L73.4307 116.384L73.4627 115.376H78.6307C78.6307 114.725 78.4334 114.203 78.0387 113.808C77.644 113.413 77.116 113.216 76.4547 113.216C75.9534 113.216 75.5214 113.328 75.1587 113.552C74.8067 113.765 74.5347 114.085 74.3427 114.512C74.1614 114.928 74.0707 115.429 74.0707 116.016C74.0707 116.955 74.284 117.68 74.7107 118.192C75.1374 118.693 75.7507 118.944 76.5507 118.944C77.1374 118.944 77.6174 118.827 77.9907 118.592C78.364 118.357 78.6147 118.016 78.7427 117.568H80.1507C79.9587 118.4 79.548 119.045 78.9187 119.504C78.2894 119.963 77.4894 120.192 76.5187 120.192ZM83.3186 120H81.8146V112.176H83.1746L83.3346 113.376C83.5799 112.928 83.9319 112.581 84.3906 112.336C84.8599 112.08 85.3719 111.952 85.9266 111.952C86.9506 111.952 87.7079 112.245 88.1986 112.832C88.6892 113.419 88.9346 114.213 88.9346 115.216V120H87.4306V115.552C87.4306 114.763 87.2599 114.197 86.9186 113.856C86.5772 113.504 86.1186 113.328 85.5426 113.328C84.8386 113.328 84.2892 113.557 83.8946 114.016C83.5106 114.475 83.3186 115.088 83.3186 115.856V120ZM90.1857 112.176H94.7617V113.44H90.1857V112.176ZM93.2257 120H91.7217V109.728H93.2257V120ZM95.4714 117.728H96.9114C96.9114 118.123 97.0554 118.437 97.3434 118.672C97.6314 118.896 98.0208 119.008 98.5114 119.008C99.0448 119.008 99.4554 118.907 99.7434 118.704C100.031 118.491 100.175 118.208 100.175 117.856C100.175 117.6 100.095 117.387 99.9354 117.216C99.7861 117.045 99.5088 116.907 99.1034 116.8L97.7274 116.48C97.0341 116.309 96.5168 116.048 96.1754 115.696C95.8448 115.344 95.6794 114.88 95.6794 114.304C95.6794 113.824 95.8021 113.408 96.0474 113.056C96.3034 112.704 96.6501 112.432 97.0874 112.24C97.5354 112.048 98.0474 111.952 98.6234 111.952C99.1994 111.952 99.6954 112.053 100.111 112.256C100.538 112.459 100.869 112.741 101.103 113.104C101.349 113.467 101.477 113.899 101.487 114.4H100.047C100.037 113.995 99.9034 113.68 99.6474 113.456C99.3914 113.232 99.0341 113.12 98.5754 113.12C98.1061 113.12 97.7434 113.221 97.4874 113.424C97.2314 113.627 97.1034 113.904 97.1034 114.256C97.1034 114.779 97.4874 115.136 98.2554 115.328L99.6314 115.664C100.293 115.813 100.789 116.059 101.119 116.4C101.45 116.731 101.615 117.184 101.615 117.76C101.615 118.251 101.482 118.683 101.215 119.056C100.949 119.419 100.581 119.701 100.111 119.904C99.6528 120.096 99.1088 120.192 98.4794 120.192C97.5621 120.192 96.8314 119.968 96.2874 119.52C95.7434 119.072 95.4714 118.475 95.4714 117.728Z" fill="white"/>
<path d="M52.2484 47.904H47.2884V44.339H56.0304V67H52.2484V47.904ZM59.9189 55.716C59.9189 53.36 60.3116 51.3037 61.0969 49.547C61.9029 47.7903 63.0189 46.416 64.4449 45.424C65.8916 44.4113 67.5759 43.905 69.4979 43.905C71.4406 43.905 73.1249 44.4113 74.5509 45.424C75.9976 46.416 77.1136 47.7903 77.8989 49.547C78.7049 51.3037 79.1079 53.36 79.1079 55.716C79.1079 58.0513 78.7256 60.0973 77.9609 61.854C77.1963 63.6107 76.1009 64.9747 74.6749 65.946C73.2489 66.9173 71.5233 67.403 69.4979 67.403C67.5139 67.403 65.7986 66.9173 64.3519 65.946C62.9259 64.9747 61.8306 63.6107 61.0659 61.854C60.3013 60.0973 59.9189 58.0513 59.9189 55.716ZM63.8249 55.716C63.8249 57.452 64.0523 58.94 64.5069 60.18C64.9616 61.3993 65.6126 62.3293 66.4599 62.97C67.3073 63.59 68.3199 63.9 69.4979 63.9C70.7173 63.9 71.7403 63.59 72.5669 62.97C73.4143 62.3293 74.0653 61.3993 74.5199 60.18C74.9746 58.94 75.2019 57.452 75.2019 55.716C75.2019 53.918 74.9746 52.4093 74.5199 51.19C74.0653 49.95 73.4143 49.0097 72.5669 48.369C71.7403 47.7283 70.7173 47.408 69.4979 47.408C68.3199 47.408 67.3073 47.7283 66.4599 48.369C65.6126 49.0097 64.9616 49.95 64.5069 51.19C64.0523 52.4093 63.8249 53.918 63.8249 55.716ZM81.7764 55.716C81.7764 53.36 82.169 51.3037 82.9544 49.547C83.7604 47.7903 84.8764 46.416 86.3024 45.424C87.749 44.4113 89.4334 43.905 91.3554 43.905C93.298 43.905 94.9824 44.4113 96.4084 45.424C97.855 46.416 98.971 47.7903 99.7564 49.547C100.562 51.3037 100.965 53.36 100.965 55.716C100.965 58.0513 100.583 60.0973 99.8184 61.854C99.0537 63.6107 97.9584 64.9747 96.5324 65.946C95.1064 66.9173 93.3807 67.403 91.3554 67.403C89.3714 67.403 87.656 66.9173 86.2094 65.946C84.7834 64.9747 83.688 63.6107 82.9234 61.854C82.1587 60.0973 81.7764 58.0513 81.7764 55.716ZM85.6824 55.716C85.6824 57.452 85.9097 58.94 86.3644 60.18C86.819 61.3993 87.47 62.3293 88.3174 62.97C89.1647 63.59 90.1774 63.9 91.3554 63.9C92.5747 63.9 93.5977 63.59 94.4244 62.97C95.2717 62.3293 95.9227 61.3993 96.3774 60.18C96.832 58.94 97.0594 57.452 97.0594 55.716C97.0594 53.918 96.832 52.4093 96.3774 51.19C95.9227 49.95 95.2717 49.0097 94.4244 48.369C93.5977 47.7283 92.5747 47.408 91.3554 47.408C90.1774 47.408 89.1647 47.7283 88.3174 48.369C87.47 49.0097 86.819 49.95 86.3644 51.19C85.9097 52.4093 85.6824 53.918 85.6824 55.716ZM114.112 48.803V64.334H110.95V48.803H114.112ZM104.781 54.972H120.281V58.134H104.781V54.972Z" fill="white"/>
<defs>
<filter id="filter0_d_327_14694" x="3.85059" y="0.952881" width="166.275" height="187.024" filterUnits="userSpaceOnUse" color-interpolation-filters="sRGB">
<feFlood flood-opacity="0" result="BackgroundImageFix"/>
<feColorMatrix in="SourceAlpha" type="matrix" values="0 0 0 0 0 0 0 0 0 0 0 0 0 0 0 0 0 0 127 0" result="hardAlpha"/>
<feOffset dx="6" dy="10"/>
<feGaussianBlur stdDeviation="6.5"/>
<feComposite in2="hardAlpha" operator="out"/>
<feColorMatrix type="matrix" values="0 0 0 0 0.591667 0 0 0 0 0.879444 0 0 0 0 1 0 0 0 1 0"/>
<feBlend mode="normal" in2="BackgroundImageFix" result="effect1_dropShadow_327_14694"/>
<feBlend mode="normal" in="SourceGraphic" in2="effect1_dropShadow_327_14694" result="shape"/>
</filter>
</defs>
</svg>
