<svg width="32" height="28" viewBox="0 0 32 28" fill="none" xmlns="http://www.w3.org/2000/svg">
<g filter="url(#filter0_d_245_3)">
<path d="M6.3998 4.58471C6.39769 3.63214 6.693 2.70267 7.24452 1.92599C7.79605 1.14932 8.57627 0.564187 9.47632 0.252243C10.3764 -0.059701 11.3513 -0.0828949 12.2652 0.185897C13.1791 0.45469 13.9862 1.00206 14.5741 1.75163C13.1449 1.98075 11.8398 2.69948 10.8822 3.78479C9.92456 4.87011 9.37392 6.25454 9.32454 7.7011C9.32038 7.77325 9.32038 7.84559 9.32454 7.91775C9.32261 8.24181 9.3505 8.56537 9.40786 8.88433C8.91963 8.71231 8.46551 8.45563 8.06632 8.12606C7.54342 7.6962 7.12262 7.15547 6.8344 6.54299C6.54617 5.93051 6.39773 5.26161 6.3998 4.58471ZM10.1578 11.0758C10.1224 11.026 10.0917 10.973 10.0661 10.9175L8.81625 10.4675C8.15516 10.2278 7.54058 9.87539 6.99974 9.42594C6.85809 9.30929 6.72477 9.1843 6.59145 9.05931C6.39361 9.21236 6.20703 9.37944 6.03316 9.55927C5.387 10.206 4.8748 10.9739 4.52592 11.819C4.17703 12.664 3.99832 13.5696 4.00001 14.4838C4.00442 15.0658 4.23927 15.6223 4.65314 16.0315C5.067 16.4407 5.62616 16.6692 6.20815 16.667H7.04141C7.3195 14.4708 8.43619 12.4674 10.1578 11.0758ZM10.9911 7.91775C10.9911 8.82452 11.2601 9.71091 11.764 10.4647C12.2679 11.2186 12.9842 11.806 13.8221 12.1526C14.66 12.4992 15.5819 12.5895 16.4711 12.412C17.3604 12.2345 18.1769 11.7972 18.8175 11.1554C19.4581 10.5136 19.894 9.69626 20.0699 8.80671C20.2457 7.91716 20.1538 6.99543 19.8057 6.15815C19.4575 5.32088 18.8688 4.6057 18.114 4.10313C17.3593 3.60055 16.4724 3.33317 15.5656 3.33482C14.3509 3.33702 13.1865 3.82057 12.3275 4.67956C11.4685 5.53855 10.9849 6.70295 10.9827 7.91775H10.9911ZM19.9403 12.3757C18.777 13.5237 17.2083 14.1674 15.574 14.1674C13.9396 14.1674 12.371 13.5237 11.2077 12.3757C10.3957 13.0274 9.74047 13.8532 9.29048 14.7921C8.8405 15.731 8.60724 16.759 8.60793 17.8002C8.60792 18.3807 8.83739 18.9378 9.24634 19.3498C9.65528 19.7619 10.2105 19.9956 10.7911 20H20.3402C20.9222 19.9978 21.4796 19.7651 21.8903 19.3528C22.3011 18.9405 22.5317 18.3822 22.5317 17.8002C22.5324 16.759 22.2991 15.731 21.8491 14.7921C21.3992 13.8532 20.7439 13.0274 19.9319 12.3757H19.9403ZM21.8151 7.7011C21.8192 7.77325 21.8192 7.84559 21.8151 7.91775C21.817 8.24181 21.7891 8.56537 21.7318 8.88433C22.2171 8.71142 22.6683 8.45478 23.065 8.12606C23.5508 7.71466 23.9454 7.2064 24.2235 6.63378C24.5017 6.06116 24.6572 5.43679 24.6803 4.80061C24.7033 4.16442 24.5933 3.53044 24.3573 2.9392C24.1213 2.34796 23.7645 1.81249 23.3097 1.36703C22.855 0.921566 22.3122 0.575928 21.7162 0.352221C21.1202 0.128514 20.4841 0.0316633 19.8485 0.0678633C19.213 0.104063 18.592 0.272517 18.0252 0.56245C17.4585 0.852383 16.9585 1.25741 16.5572 1.75163C17.9864 1.98075 19.2915 2.69948 20.2491 3.78479C21.2067 4.87011 21.7574 6.25454 21.8068 7.7011H21.8151ZM25.0898 9.55093C24.9111 9.3679 24.7219 9.19541 24.5232 9.03431C24.3926 9.17079 24.2534 9.29882 24.1066 9.41761C23.5717 9.86467 22.9625 10.2144 22.3067 10.4509L21.0568 10.9008C21.0313 10.9563 21.0006 11.0093 20.9652 11.0591C22.7061 12.4474 23.8386 14.4585 24.1232 16.667H24.9565C25.5385 16.6648 26.0958 16.432 26.5066 16.0197C26.9173 15.6074 27.148 15.0491 27.1479 14.4672C27.146 13.5517 26.9623 12.6458 26.6076 11.8019C26.2529 10.9579 25.7341 10.1928 25.0815 9.55093H25.0898Z" fill="#1CB2E8"/>
</g>
<defs>
<filter id="filter0_d_245_3" x="0" y="0" width="31.1479" height="28" filterUnits="userSpaceOnUse" color-interpolation-filters="sRGB">
<feFlood flood-opacity="0" result="BackgroundImageFix"/>
<feColorMatrix in="SourceAlpha" type="matrix" values="0 0 0 0 0 0 0 0 0 0 0 0 0 0 0 0 0 0 127 0" result="hardAlpha"/>
<feOffset dy="4"/>
<feGaussianBlur stdDeviation="2"/>
<feComposite in2="hardAlpha" operator="out"/>
<feColorMatrix type="matrix" values="0 0 0 0 0 0 0 0 0 0 0 0 0 0 0 0 0 0 0.25 0"/>
<feBlend mode="normal" in2="BackgroundImageFix" result="effect1_dropShadow_245_3"/>
<feBlend mode="normal" in="SourceGraphic" in2="effect1_dropShadow_245_3" result="shape"/>
</filter>
</defs>
</svg>
