<svg width="344" height="218" viewBox="0 0 344 218" fill="none" xmlns="http://www.w3.org/2000/svg">
<path d="M0.5 10C0.5 4.47715 4.97715 0 10.5 0H333.5C339.023 0 343.5 4.47715 343.5 10V218H0.5V10Z" fill="#EAF6FF"/>
<g clip-path="url(#clip0_111_2069)">
<path d="M205.759 114.865C205.759 114.865 209.857 131.279 202.568 132.185C195.278 133.091 169.257 118.054 161.038 158.668C152.82 199.282 156.492 215.572 156.492 215.572L252.259 213.748C252.259 213.748 270.04 154.058 262.337 140.386C254.633 126.714 232.687 140.386 230.873 133.55C229.059 126.714 234.232 103.084 234.232 103.084L205.759 114.865Z" fill="#FFAFA4"/>
<path d="M206.52 127.698C207.416 127.475 208.3 127.217 209.185 126.926C217.157 124.32 224.525 120.336 231.758 116.13C232.878 109.215 234.188 103.084 234.188 103.084L205.759 114.865C205.759 114.865 207.651 122.563 206.52 127.698Z" fill="#EA8D83"/>
<path d="M262.281 140.386C257.477 131.927 247.288 133.93 239.764 135.071C240.547 152.794 241.275 170.516 241.298 188.25C241.298 196.82 240.917 205.39 240.637 213.983L252.248 213.759C252.248 213.759 270.029 154.058 262.281 140.386Z" fill="#EA8D83"/>
<path d="M190.229 128.996C190.229 128.996 179.894 144.66 202.232 151.474C224.57 158.288 230.817 133.572 230.817 133.572C218.77 135.553 255.675 128.448 262.281 140.408C269.581 153.6 268.461 172.743 268.461 172.743L241.712 173.951L240.592 213.972L150.558 211.925C150.558 211.925 147.815 128.538 190.229 128.996Z" fill="#FF696A"/>
<path d="M156.492 162.338C149.64 185.386 150.513 211.925 150.513 211.925L240.592 213.972L241.555 179.557C212.23 185.419 179.289 180.329 156.492 162.338Z" fill="#EF525A"/>
<path d="M227.47 46.6716C227.47 46.6716 203.452 36.3447 189.769 61.5522C176.087 86.7597 179.782 115.167 197.372 120.191C216.519 125.651 230.504 112.594 242.059 87.9904C253.614 63.3871 231.422 47.9024 227.47 46.6716Z" fill="#FFAFA4"/>
<path d="M244.399 50.5767C244.399 50.5767 235.621 44.5461 239.17 34.4765C242.72 24.407 253.592 25.2909 258.81 31.355L252.338 29.6767C252.338 29.6767 254.432 22.7847 263.624 25.716C272.817 28.6474 276.579 36.3562 266.132 48.6858C266.132 48.6858 272.604 47.2201 273.444 41.1672C273.444 41.1672 274.698 54.1122 265.293 55.1527C255.887 56.1932 257.141 52.6465 257.141 52.6465C257.141 52.6465 260.903 59.5386 272.817 54.3248C272.817 54.3248 265.505 67.6837 246.068 53.4856L244.399 50.5767Z" fill="#543333"/>
<path d="M244.836 61.3283C249.56 61.3283 253.39 57.5013 253.39 52.7804C253.39 48.0595 249.56 44.2324 244.836 44.2324C240.111 44.2324 236.281 48.0595 236.281 52.7804C236.281 57.5013 240.111 61.3283 244.836 61.3283Z" fill="#FFDD88"/>
<path d="M229.272 51.0803C229.272 51.0803 221.972 76.5898 239.764 84.7909C239.764 84.7909 232.922 91.1795 233.605 100.063C233.605 100.063 238.846 86.1671 245.004 90.2621C245.004 90.2621 247.053 91.3809 246.123 95.2745C246.123 95.2745 261.172 79.6107 254.555 61.7876C247.937 43.9645 234.008 38.773 229.272 51.0803Z" fill="#633737"/>
<path d="M254.521 61.7875C254.219 60.9708 253.894 60.1876 253.57 59.4268C252.364 63.6792 249.839 67.4398 246.359 70.1676C241.824 73.6808 235.89 74.9898 229.978 74.8108C231.83 79.2551 235.31 82.825 239.708 84.7909C239.708 84.7909 232.866 91.1794 233.549 100.063C233.549 100.063 238.79 86.167 244.948 90.262C244.948 90.262 246.997 91.3808 246.068 95.2744C246.068 95.2744 261.139 79.5547 254.521 61.7875Z" fill="#543333"/>
<path d="M194.103 40.8205C169.022 53.8102 167.23 94.592 177.464 108.947C174.62 98.0677 174.62 86.6409 177.464 75.7619C176.42 82.5647 176.724 89.5064 178.36 96.1919C178.36 96.1919 179.233 71.3201 193.756 58.5765C193.516 59.9358 193.475 61.3226 193.632 62.6938C197.854 62.8881 202.081 62.4276 206.162 61.3289L198.66 64.0141C216.161 65.3903 225.398 57.7374 228.892 53.855C230.886 54.9702 232.687 56.4024 234.221 58.0954L236.729 47.3881C236.729 47.3881 219.195 27.842 194.103 40.8205Z" fill="#633737"/>
<path d="M233.549 100.063C233.549 100.063 238.342 86.6369 244.948 90.262C251.554 93.887 241.533 108.04 231.724 104.393L233.549 100.063Z" fill="#FFAFA4"/>
<path d="M193.957 75.1911C193.409 77.1938 193.599 78.984 194.383 79.1966C195.166 79.4091 196.219 77.9546 196.756 75.9519C197.294 73.9492 197.115 72.1479 196.342 71.9353C195.57 71.7227 194.495 73.1884 193.957 75.1911Z" fill="#01334C"/>
<path d="M217.213 85.4401C216.665 87.4541 216.855 89.2442 217.639 89.4568C218.422 89.6694 219.475 88.2037 220.012 86.201C220.55 84.1982 220.371 82.3969 219.598 82.1955C218.826 81.9941 217.751 83.4374 217.213 85.4401Z" fill="#01334C"/>
<path d="M213.026 74.5419C213.234 74.3475 213.459 74.1716 213.697 74.016C213.967 73.8318 214.247 73.6637 214.537 73.5125C214.922 73.3186 215.323 73.1576 215.735 73.0314C216.224 72.8654 216.726 72.7419 217.236 72.6622C217.816 72.5944 218.402 72.5944 218.982 72.6622C219.296 72.6622 219.609 72.6622 219.923 72.7629C220.236 72.8636 220.539 72.9084 220.852 73.0091C221.476 73.2143 222.079 73.4765 222.655 73.7923C223.204 74.1414 223.721 74.5382 224.2 74.9782C224.661 75.3962 225.078 75.8612 225.443 76.3656C225.784 76.8182 226.094 77.2929 226.372 77.7865C226.619 78.2676 226.831 78.7263 227.01 79.1515C227.196 79.5325 227.335 79.9344 227.425 80.3487C227.537 80.7067 227.604 81.02 227.671 81.2885C227.794 81.8032 227.85 82.1052 227.85 82.1052C227.85 82.1052 227.649 81.8591 227.335 81.4339C227.022 81.0088 226.652 80.3151 226.104 79.6662C225.824 79.3193 225.532 78.9501 225.241 78.5473C224.95 78.1445 224.547 77.8089 224.222 77.4285C223.859 77.0269 223.466 76.6529 223.047 76.3096C222.633 75.9578 222.191 75.6397 221.726 75.3586C221.266 75.0916 220.787 74.8597 220.292 74.6649C220.037 74.596 219.786 74.51 219.542 74.4076C219.296 74.3405 219.038 74.3069 218.792 74.251C218.305 74.1512 217.811 74.0876 217.314 74.0608C216.832 74.0608 216.373 74.0608 215.948 74.0608C215.24 74.1088 214.536 74.2098 213.843 74.3629C213.328 74.4524 213.026 74.5419 213.026 74.5419Z" fill="#01334C"/>
<path d="M203.452 70.4473C203.452 70.4473 202.579 69.541 201.213 68.3327C200.477 67.6511 199.699 67.0158 198.884 66.4306C198.436 66.1127 197.973 65.8177 197.495 65.5468C197.022 65.2754 196.523 65.0506 196.006 64.8754C195.508 64.6928 194.989 64.5726 194.461 64.5174C193.955 64.4558 193.444 64.4558 192.938 64.5174C192.451 64.5907 191.972 64.7068 191.505 64.8643C191.069 65.0225 190.643 65.2056 190.229 65.4125C189.859 65.6363 189.49 65.8041 189.187 66.0167C188.885 66.2293 188.605 66.3747 188.392 66.5425C187.956 66.8558 187.687 67.0236 187.687 67.0236C187.687 67.0236 187.832 66.7551 188.135 66.2852C188.56 65.6465 189.064 65.0638 189.635 64.551C190.493 63.7889 191.516 63.2373 192.625 62.9399C193.272 62.7776 193.941 62.7172 194.607 62.7608C195.288 62.8069 195.962 62.9385 196.611 63.1524C197.822 63.6149 198.935 64.302 199.892 65.1775C200.696 65.9114 201.407 66.7419 202.008 67.6502C202.624 68.5067 203.111 69.4492 203.452 70.4473Z" fill="#01334C"/>
<path d="M234.188 103.084C234.575 103.034 234.953 102.924 235.307 102.76C235.461 102.688 235.602 102.589 235.722 102.469C235.82 102.374 235.889 102.254 235.923 102.122C235.923 102.066 235.923 101.988 235.923 101.932C235.923 101.876 235.923 101.786 235.923 101.73C235.887 101.579 235.842 101.429 235.789 101.283C235.63 100.971 235.455 100.669 235.263 100.377L235.095 100.13L235.229 99.7612C235.712 98.4929 236.304 97.2688 236.998 96.1026C237.34 95.5124 237.714 94.941 238.118 94.3908C238.558 93.8285 239.045 93.3045 239.573 92.8244C240.177 92.2593 240.924 91.872 241.734 91.7055C242.218 91.6529 242.705 91.759 243.123 92.0076C243.478 92.1956 243.796 92.4457 244.063 92.7461C244.338 93.0698 244.533 93.4528 244.634 93.8649C244.704 94.2346 244.704 94.614 244.634 94.9837C244.523 95.6794 244.234 96.3345 243.795 96.8858C243.947 96.2638 243.985 95.6193 243.907 94.9837C243.865 94.7044 243.782 94.4329 243.66 94.1782C243.542 93.9525 243.369 93.7601 243.156 93.6187C242.949 93.4671 242.718 93.35 242.473 93.2719C242.297 93.2004 242.101 93.2004 241.925 93.2719C241.452 93.4409 241.031 93.7301 240.704 94.111C240.271 94.5361 239.874 94.9964 239.517 95.4872C239.148 96.0019 238.767 96.5054 238.398 97.0424C237.703 98.1612 237.02 99.2801 236.36 100.332V99.7164L236.617 100.321C236.685 100.533 236.729 100.768 236.785 100.981C236.814 101.226 236.814 101.474 236.785 101.719C236.779 101.852 236.757 101.984 236.718 102.111C236.673 102.239 236.617 102.362 236.55 102.48C236.415 102.69 236.232 102.866 236.016 102.992C235.8 103.119 235.557 103.192 235.307 103.207C234.93 103.24 234.549 103.198 234.188 103.084Z" fill="#FF8973"/>
<path d="M202.556 75.3594C202.388 76.7601 202.049 78.1352 201.549 79.4543C201.304 80.1233 201.02 80.7771 200.698 81.4123C200.552 81.7368 200.362 82.05 200.183 82.3633C200.006 82.6787 199.808 82.9815 199.589 83.2696C199.365 83.5605 199.186 83.8849 198.94 84.1535C198.693 84.422 198.447 84.7129 198.19 84.9814L197.339 85.731C197.038 85.9701 196.719 86.187 196.387 86.38C196.056 86.5938 195.698 86.7631 195.323 86.8834L194.774 87.096C194.584 87.096 194.383 87.1631 194.181 87.2079C193.796 87.2985 193.401 87.3399 193.005 87.331L191.818 87.2303L192.546 85.8541C193.476 86.9729 194.383 88.0023 195.256 89.1211C196.129 90.2399 196.969 91.3588 197.753 92.5895C196.633 91.7392 195.513 90.8329 194.394 89.8819C193.274 88.9309 192.289 87.9799 191.292 86.9841L189.904 85.6191H192.02H192.905C193.2 85.6174 193.494 85.5761 193.778 85.4961C193.912 85.4961 194.069 85.4961 194.203 85.4066L194.618 85.2275C194.897 85.129 195.164 84.9975 195.413 84.836C195.683 84.6892 195.942 84.5208 196.185 84.3325L196.913 83.7395C197.137 83.5045 197.35 83.2696 197.585 83.0458C197.82 82.822 198.01 82.5535 198.234 82.3186C198.458 82.0836 198.649 81.8039 198.839 81.5354C199.029 81.2668 199.242 81.0095 199.421 80.7186C199.802 80.1704 200.149 79.5998 200.541 79.0068C201.28 77.8096 201.918 76.6125 202.556 75.3594Z" fill="#FF8973"/>
<path d="M192.591 98.4854C192.591 98.4854 192.849 98.6979 193.319 99.0336C193.789 99.3692 194.439 99.828 195.278 100.32C195.681 100.578 196.152 100.813 196.622 101.081C197.092 101.35 197.618 101.562 198.156 101.808C198.693 102.054 199.276 102.267 199.835 102.446C200.411 102.659 201.003 102.828 201.605 102.95C202.201 103.1 202.807 103.212 203.418 103.285C204.012 103.375 204.617 103.397 205.199 103.453C205.781 103.509 206.318 103.453 206.901 103.453C207.483 103.453 207.953 103.375 208.435 103.363C208.916 103.352 209.364 103.363 209.745 103.24L210.764 103.095C211.346 103.017 211.682 102.994 211.682 102.994L210.887 103.442L209.935 103.912C209.519 104.111 209.084 104.268 208.636 104.382C208.121 104.572 207.588 104.715 207.046 104.807C206.439 104.921 205.826 105.004 205.21 105.053C204.55 105.092 203.888 105.092 203.228 105.053C202.543 104.984 201.863 104.876 201.19 104.728C200.518 104.572 199.859 104.363 199.22 104.102C198.602 103.864 198.003 103.58 197.428 103.252C196.892 102.945 196.376 102.605 195.883 102.233C195.446 101.886 195.031 101.513 194.64 101.115C194.046 100.553 193.516 99.9259 193.061 99.2462C192.882 99.0071 192.725 98.7524 192.591 98.4854Z" fill="#FF8973"/>
<path d="M212.802 129.454C212.802 129.454 210.976 117.606 217.583 113.5C224.189 109.394 226.025 108.487 226.025 108.487C226.025 108.487 214.828 84.5666 228.265 107.369C228.265 107.369 227.145 81.6352 231.221 106.004C231.221 106.004 235.789 78.4354 233.46 109.875L225.107 121.746C225.107 121.746 244.948 155.423 252.472 181.626C259.997 207.829 254.891 216.858 241.981 216.03C220.785 214.609 212.802 129.454 212.802 129.454Z" fill="#F9A198"/>
<path d="M130.851 215.382C130.851 216.077 131.127 216.742 131.619 217.233C132.11 217.724 132.777 218 133.471 218H233.202C233.898 218 234.566 217.725 235.059 217.234C235.552 216.743 235.831 216.078 235.834 215.382C235.834 214.685 235.556 214.016 235.063 213.523C234.569 213.03 233.9 212.753 233.202 212.753H133.471C132.775 212.756 132.109 213.034 131.618 213.527C131.127 214.02 130.851 214.687 130.851 215.382Z" fill="#002838"/>
<path d="M85.6494 213.625C85.6494 214.785 86.1107 215.898 86.9317 216.719C87.7527 217.539 88.8663 218 90.0274 218H176.647C177.806 217.997 178.917 217.535 179.735 216.715C180.554 215.895 181.013 214.784 181.013 213.625L165.864 155.065C165.864 154.491 165.751 153.922 165.531 153.391C165.311 152.86 164.988 152.378 164.582 151.972C164.175 151.566 163.693 151.243 163.161 151.023C162.63 150.804 162.061 150.69 161.486 150.69H74.8668C73.7076 150.693 72.5969 151.156 71.7783 151.976C70.9597 152.796 70.5 153.907 70.5 155.065L85.6494 213.625Z" fill="#01334C"/>
<path d="M174.62 213.625L159.471 155.065C159.471 153.905 159.009 152.792 158.188 151.972C157.367 151.151 156.254 150.69 155.093 150.69H161.475C163.893 150.69 165.103 152.022 168.092 162.841L181.002 213.625C180.994 214.776 180.531 215.877 179.716 216.689C178.901 217.502 177.798 217.96 176.647 217.966H170.264C171.416 217.96 172.519 217.502 173.334 216.689C174.149 215.877 174.611 214.776 174.62 213.625Z" fill="#002838"/>
</g>
<defs>
<clipPath id="clip0_111_2069">
<rect width="203" height="193" fill="white" transform="translate(70.5 25)"/>
</clipPath>
</defs>
</svg>
